SplineFontDB: 3.2
FontName: EZPsaltica
FullName: EZ Psaltica
FamilyName: EZ Psaltica
Weight: Book
Copyright: 
Version: 1.0
ItalicAngle: 0
UnderlinePosition: 0
UnderlineWidth: 0
Ascent: 800
Descent: 200
InvalidEm: 0
sfntRevision: 0x00000000
LayerCount: 2
Layer: 0 1 "Back" 1
Layer: 1 1 "Fore" 0
XUID: [1021 151 880831689 18806]
StyleMap: 0x0040
FSType: 0
OS2Version: 0
OS2_WeightWidthSlopeOnly: 0
OS2_UseTypoMetrics: 0
CreationTime: -2082844800
ModificationTime: 1646880613
PfmFamily: 17
TTFWeight: 400
TTFWidth: 5
LineGap: 0
VLineGap: 0
Panose: 2 11 6 3 5 3 2 2 2 4
OS2TypoAscent: 1928
OS2TypoAOffset: 0
OS2TypoDescent: 40
OS2TypoDOffset: 0
OS2TypoLinegap: 0
OS2WinAscent: 1928
OS2WinAOffset: 0
OS2WinDescent: -40
OS2WinDOffset: 0
HheadAscent: 1928
HheadAOffset: 0
HheadDescent: 40
HheadDOffset: 0
OS2SubXSize: 0
OS2SubYSize: 0
OS2SubXOff: 0
OS2SubYOff: 0
OS2SupXSize: 0
OS2SupYSize: 0
OS2SupXOff: 0
OS2SupYOff: 0
OS2StrikeYSize: 0
OS2StrikeYPos: 0
OS2UnicodeRanges: 00000000.00000000.00000000.00000000
MarkAttachClasses: 1
DEI: 91125
ShortTable: maxp 16
  1
  0
  105
  168
  5
  0
  0
  1
  0
  16
  0
  0
  0
  0
  0
  0
EndShort
LangName: 1033 "" "" "Regular" "EZ Psaltica"
Encoding: Mac
UnicodeInterp: none
NameList: AGL For New Fonts
DisplaySize: -128
AntiAlias: 1
FitToEm: 1
WinInfo: 35 7 5
BeginPrivate: 0
EndPrivate
BeginChars: 256 105

StartChar: .notdef
Encoding: 255 711 0
AltUni2: 0002db.ffffffff.0 0002dd.ffffffff.0 0000b8.ffffffff.0 0002da.ffffffff.0 0002d9.ffffffff.0 0002d8.ffffffff.0 0002dc.ffffffff.0 0002c6.ffffffff.0 000131.ffffffff.0 0000d9.ffffffff.0 0000db.ffffffff.0 0000da.ffffffff.0 0000d2.ffffffff.0 0000d4.ffffffff.0 0000d3.ffffffff.0 0000cc.ffffffff.0 0000cf.ffffffff.0 0000ce.ffffffff.0 0000cd.ffffffff.0 0000c8.ffffffff.0 0000cb.ffffffff.0 0000c1.ffffffff.0 0000ca.ffffffff.0 0000c2.ffffffff.0 00201e.ffffffff.0 00201a.ffffffff.0 0000b7.ffffffff.0 002021.ffffffff.0 00fb02.ffffffff.0 00fb01.ffffffff.0 00203a.ffffffff.0 002039.ffffffff.0 0000a4.ffffffff.0 002044.ffffffff.0 000178.ffffffff.0 0000ff.ffffffff.0 0000f7.ffffffff.0 002019.ffffffff.0 002018.ffffffff.0 00201d.ffffffff.0 00201c.ffffffff.0 002014.ffffffff.0 000153.ffffffff.0 0000d5.ffffffff.0 0000c3.ffffffff.0 0000c0.ffffffff.0 002026.ffffffff.0 0000bb.ffffffff.0 0000ab.ffffffff.0 002206.ffffffff.0 002248.ffffffff.0 000192.ffffffff.0 00221a.ffffffff.0 0000ac.ffffffff.0 0000a1.ffffffff.0 0000bf.ffffffff.0 0000f8.ffffffff.0 0000e6.ffffffff.0 002126.ffffffff.0 0000ba.ffffffff.0 0000aa.ffffffff.0 0003c0.ffffffff.0 00220f.ffffffff.0 002211.ffffffff.0 002202.ffffffff.0 0000b5.ffffffff.0 0000a5.ffffffff.0 002265.ffffffff.0 002264.ffffffff.0 0000b1.ffffffff.0 00221e.ffffffff.0 0000d8.ffffffff.0 0000c6.ffffffff.0 002260.ffffffff.0 0000a8.ffffffff.0 0000b4.ffffffff.0 002122.ffffffff.0 0000a9.ffffffff.0 0000ae.ffffffff.0 0000df.ffffffff.0 0000b6.ffffffff.0 002022.ffffffff.0 0000a7.ffffffff.0 0000a3.ffffffff.0 0000a2.ffffffff.0 0000b0.ffffffff.0 002020.ffffffff.0 0000fc.ffffffff.0 0000fb.ffffffff.0 0000f9.ffffffff.0 0000fa.ffffffff.0 0000f5.ffffffff.0 0000f6.ffffffff.0 0000f4.ffffffff.0 0000f2.ffffffff.0 0000f3.ffffffff.0 0000f1.ffffffff.0 0000ef.ffffffff.0 0000ee.ffffffff.0 0000ec.ffffffff.0 0000ed.ffffffff.0 0000ea.ffffffff.0 0000e8.ffffffff.0 0000e9.ffffffff.0 0000e7.ffffffff.0 0000e5.ffffffff.0 0000e3.ffffffff.0 0000e4.ffffffff.0 0000e2.ffffffff.0 0000e0.ffffffff.0 0000e1.ffffffff.0 0000dc.ffffffff.0 0000d6.ffffffff.0 0000d1.ffffffff.0 0000c9.ffffffff.0 0000c7.ffffffff.0 0000c5.ffffffff.0 0000c4.ffffffff.0 00007f.ffffffff.0 00001f.ffffffff.0 00001e.ffffffff.0 00001c.ffffffff.0 00001b.ffffffff.0 00001a.ffffffff.0 000019.ffffffff.0 000018.ffffffff.0 000017.ffffffff.0 000016.ffffffff.0 000015.ffffffff.0 000014.ffffffff.0 000013.ffffffff.0 000012.ffffffff.0 000011.ffffffff.0 000010.ffffffff.0 00000f.ffffffff.0 00000e.ffffffff.0 00000c.ffffffff.0 00000b.ffffffff.0 00000a.ffffffff.0 000007.ffffffff.0 000006.ffffffff.0 000005.ffffffff.0 000004.ffffffff.0 000003.ffffffff.0 000002.ffffffff.0 000001.ffffffff.0
Width: 208
VWidth: 345
GlyphClass: 1
Flags: W
LayerCount: 2
Fore
SplineSet
90 248 m 257,0,1
 90 248 90 248 90 248 c 129,-1,2
 90 248 90 248 90 248 c 257,3,4
 90 248 90 248 90 248 c 129,-1,5
 90 248 90 248 90 248 c 257,6,7
 90 248 90 248 90 248 c 129,-1,8
 90 248 90 248 90 248 c 257,9,10
 90 248 90 248 90 248 c 129,-1,11
 90 248 90 248 90 248 c 257,0,1
106 812 m 1,12,13
 30 809 30 809 -15.5 786.5 c 128,-1,14
 -61 764 -61 764 -101 712 c 1,15,-1
 -91 703 l 1,16,17
 -31 759 -31 759 14 770 c 128,-1,18
 59 781 59 781 106 783 c 1,19,20
 169 779 169 779 209 764 c 128,-1,21
 249 749 249 749 296 703 c 1,22,-1
 306 714 l 1,23,24
 257 773 257 773 213 790.5 c 128,-1,25
 169 808 169 808 106 812 c 1,12,13
91 693 m 2,26,27
 92 706 92 706 107 705 c 128,-1,28
 122 704 122 704 123 693 c 2,29,-1
 123 30 l 2,30,31
 123 15 123 15 123 15 c 1,32,33
 117 2 117 2 104 4 c 128,-1,34
 91 6 91 6 91 15 c 2,35,-1
 91 678 l 2,36,37
 91 693 91 693 91 693 c 2,26,27
EndSplineSet
EndChar

StartChar: nine
Encoding: 57 57 4
Width: 1596
VWidth: 345
GlyphClass: 1
Flags: W
LayerCount: 2
Fore
SplineSet
371 697 m 0,0,1
 401 697 401 697 434 696 c 128,-1,2
 467 695 467 695 493 690 c 1,3,4
 512 690 512 690 533 626 c 128,-1,5
 554 562 554 562 583 501 c 0,6,7
 592 480 592 480 602 477 c 0,8,9
 610 474 610 474 614 466.5 c 128,-1,10
 618 459 618 459 605 453 c 1,11,12
 575 447 575 447 543.5 448 c 128,-1,13
 512 449 512 449 484 453 c 1,14,15
 458 465 458 465 443 510.5 c 128,-1,16
 428 556 428 556 397 643 c 0,17,18
 395 648 395 648 386.5 658.5 c 128,-1,19
 378 669 378 669 368 671 c 0,20,21
 354 673 354 673 352 684.5 c 128,-1,22
 350 696 350 696 371 697 c 0,0,1
642 697 m 0,23,24
 672 697 672 697 704.5 696 c 128,-1,25
 737 695 737 695 764 690 c 1,26,27
 783 690 783 690 803.5 626 c 128,-1,28
 824 562 824 562 853 501 c 0,29,30
 862 480 862 480 872 477 c 0,31,32
 880 474 880 474 884 466.5 c 128,-1,33
 888 459 888 459 875 453 c 1,34,35
 845 447 845 447 814 448 c 128,-1,36
 783 449 783 449 755 453 c 1,37,38
 729 465 729 465 714 510.5 c 128,-1,39
 699 556 699 556 668 643 c 0,40,41
 665 648 665 648 656.5 658.5 c 128,-1,42
 648 669 648 669 638 671 c 0,43,44
 624 673 624 673 622.5 684.5 c 128,-1,45
 621 696 621 696 642 697 c 0,23,24
85 384 m 128,-1,47
 90 392 90 392 96.5 392.5 c 128,-1,48
 103 393 103 393 110 389 c 128,-1,49
 117 385 117 385 128 379.5 c 128,-1,50
 139 374 139 374 156 370.5 c 128,-1,51
 173 367 173 367 204 367 c 2,52,-1
 1228 367 l 2,53,54
 1256 367 1256 367 1279 362.5 c 128,-1,55
 1302 358 1302 358 1321 348 c 128,-1,56
 1340 338 1340 338 1350.5 330 c 128,-1,57
 1361 322 1361 322 1379 302.5 c 128,-1,58
 1397 283 1397 283 1410.5 265 c 128,-1,59
 1424 247 1424 247 1416 230 c 1,60,61
 1408 218 1408 218 1397.5 225 c 128,-1,62
 1387 232 1387 232 1373 237 c 128,-1,63
 1359 242 1359 242 1342.5 244 c 128,-1,64
 1326 246 1326 246 1291 246 c 2,65,-1
 282 246 l 2,66,67
 259 246 259 246 240 249 c 128,-1,68
 221 252 221 252 210.5 255.5 c 128,-1,69
 200 259 200 259 188 265 c 128,-1,70
 176 271 176 271 162.5 279.5 c 128,-1,71
 149 288 149 288 134 303.5 c 128,-1,72
 119 319 119 319 103.5 339.5 c 128,-1,73
 88 360 88 360 84 368 c 128,-1,46
 80 376 80 376 85 384 c 128,-1,47
1481 1163 m 1,74,75
 1497 1160 1497 1160 1495 1146.5 c 128,-1,76
 1493 1133 1493 1133 1475 1132 c 1,77,78
 1454 1125 1454 1125 1441 1079 c 128,-1,79
 1428 1033 1428 1033 1414 982 c 0,80,81
 1380 863 1380 863 1352 789 c 128,-1,82
 1324 715 1324 715 1298.5 685.5 c 128,-1,83
 1273 656 1273 656 1238 640 c 0,84,85
 1184 617 1184 617 1131.5 606 c 128,-1,86
 1079 595 1079 595 1041 595 c 1,87,88
 1060 550 1060 550 1104.5 532 c 128,-1,89
 1149 514 1149 514 1130 494 c 0,90,91
 1119 483 1119 483 1061 523 c 128,-1,92
 1003 563 1003 563 981 602 c 1,93,94
 981 627 981 627 1001.5 623 c 128,-1,95
 1022 619 1022 619 1045 617 c 256,96,97
 1068 616 1068 616 1093 620 c 128,-1,98
 1118 624 1118 624 1159 645 c 0,99,100
 1179 655 1179 655 1196.5 690.5 c 128,-1,101
 1214 726 1214 726 1228.5 769 c 128,-1,102
 1243 812 1243 812 1253 854.5 c 128,-1,103
 1263 897 1263 897 1279.5 977 c 128,-1,104
 1296 1057 1296 1057 1307.5 1084 c 128,-1,105
 1319 1111 1319 1111 1340.5 1128 c 128,-1,106
 1362 1145 1362 1145 1381.5 1150 c 128,-1,107
 1401 1155 1401 1155 1425 1157 c 128,-1,108
 1449 1159 1449 1159 1481 1163 c 1,74,75
874 1272 m 1,109,110
 888 1270 888 1270 886.5 1259.5 c 128,-1,111
 885 1249 885 1249 868 1248 c 1,112,113
 850 1242 850 1242 838.5 1208.5 c 128,-1,114
 827 1175 827 1175 814 1137 c 0,115,116
 784 1048 784 1048 759.5 993 c 128,-1,117
 735 938 735 938 713 916 c 128,-1,118
 691 894 691 894 660 882 c 0,119,120
 612 865 612 865 566 856.5 c 128,-1,121
 520 848 520 848 486 848 c 1,122,123
 503 814 503 814 542.5 801 c 128,-1,124
 582 788 582 788 565 773 c 0,125,126
 555 765 555 765 504 795 c 128,-1,127
 453 825 453 825 434 854 c 1,128,129
 434 873 434 873 451.5 869.5 c 128,-1,130
 469 866 469 866 490 865 c 0,131,132
 511 864 511 864 532.5 867 c 128,-1,133
 554 870 554 870 590 886 c 0,134,135
 608 894 608 894 623.5 920 c 128,-1,136
 639 946 639 946 651.5 978.5 c 128,-1,137
 664 1011 664 1011 673 1042.5 c 128,-1,138
 682 1074 682 1074 696 1133.5 c 128,-1,139
 710 1193 710 1193 720.5 1213 c 128,-1,140
 731 1233 731 1233 750 1245.5 c 128,-1,141
 769 1258 769 1258 786.5 1261.5 c 128,-1,142
 804 1265 804 1265 825 1267 c 128,-1,143
 846 1269 846 1269 874 1272 c 1,109,110
EndSplineSet
EndChar

StartChar: one
Encoding: 49 49 5
Width: 1515
VWidth: 345
GlyphClass: 1
Flags: W
LayerCount: 2
Fore
SplineSet
85 384 m 128,-1,1
 90 392 90 392 96.5 392.5 c 128,-1,2
 103 393 103 393 110 389 c 128,-1,3
 117 385 117 385 128 379.5 c 128,-1,4
 139 374 139 374 156 370.5 c 128,-1,5
 173 367 173 367 204 367 c 2,6,-1
 1228 367 l 2,7,8
 1256 367 1256 367 1279 362.5 c 128,-1,9
 1302 358 1302 358 1321 348 c 128,-1,10
 1340 338 1340 338 1350.5 330 c 128,-1,11
 1361 322 1361 322 1379 302.5 c 128,-1,12
 1397 283 1397 283 1410.5 265 c 128,-1,13
 1424 247 1424 247 1416 230 c 1,14,15
 1408 218 1408 218 1397.5 225 c 128,-1,16
 1387 232 1387 232 1373 237 c 128,-1,17
 1359 242 1359 242 1342.5 244 c 128,-1,18
 1326 246 1326 246 1291 246 c 2,19,-1
 282 246 l 2,20,21
 259 246 259 246 240 249 c 128,-1,22
 221 252 221 252 210.5 255.5 c 128,-1,23
 200 259 200 259 188 265 c 128,-1,24
 176 271 176 271 162.5 279.5 c 128,-1,25
 149 288 149 288 134 303.5 c 128,-1,26
 119 319 119 319 103.5 339.5 c 128,-1,27
 88 360 88 360 84 368 c 128,-1,0
 80 376 80 376 85 384 c 128,-1,1
EndSplineSet
EndChar

StartChar: grave
Encoding: 96 96 6
Width: 738
VWidth: 345
GlyphClass: 1
Flags: W
LayerCount: 2
Fore
SplineSet
107 452 m 0,0,1
 141 452 141 452 179 451 c 128,-1,2
 217 450 217 450 247 445 c 1,3,4
 268 445 268 445 293.5 362.5 c 128,-1,5
 319 280 319 280 354 218 c 0,6,7
 366 197 366 197 376 194 c 0,8,9
 385 191 385 191 390 183.5 c 128,-1,10
 395 176 395 176 380 170 c 1,11,12
 345 164 345 164 309.5 165 c 128,-1,13
 274 166 274 166 242 170 c 1,14,15
 212 182 212 182 192.5 247 c 128,-1,16
 173 312 173 312 138 398 c 0,17,18
 135 403 135 403 125.5 411.5 c 128,-1,19
 116 420 116 420 104 423 c 0,20,21
 88 426 88 426 85.5 438.5 c 128,-1,22
 83 451 83 451 107 452 c 0,0,1
416 452 m 0,23,24
 450 452 450 452 487.5 451 c 128,-1,25
 525 450 525 450 556 445 c 1,26,27
 577 445 577 445 602 362.5 c 128,-1,28
 627 280 627 280 663 218 c 0,29,30
 675 197 675 197 685 194 c 0,31,32
 694 191 694 191 698.5 183.5 c 128,-1,33
 703 176 703 176 688 170 c 1,34,35
 653 164 653 164 618 165 c 128,-1,36
 583 166 583 166 551 170 c 1,37,38
 521 182 521 182 501 247 c 128,-1,39
 481 312 481 312 446 398 c 0,40,41
 443 403 443 403 434 411.5 c 128,-1,42
 425 420 425 420 412 423 c 0,43,44
 396 426 396 426 394 438.5 c 128,-1,45
 392 451 392 451 416 452 c 0,23,24
EndSplineSet
EndChar

StartChar: asciitilde
Encoding: 126 126 7
Width: 279
VWidth: 345
GlyphClass: 1
Flags: W
LayerCount: 2
Fore
SplineSet
-21 447 m 0,0,1
 13 447 13 447 50.5 446 c 128,-1,2
 88 445 88 445 118 441 c 1,3,4
 139 441 139 441 164.5 358 c 128,-1,5
 190 275 190 275 225 213 c 0,6,7
 237 192 237 192 247 189 c 0,8,9
 256 186 256 186 261 179 c 128,-1,10
 266 172 266 172 251 166 c 1,11,12
 216 160 216 160 181 160.5 c 128,-1,13
 146 161 146 161 113 166 c 1,14,15
 83 178 83 178 63.5 242.5 c 128,-1,16
 44 307 44 307 9 394 c 0,17,18
 6 399 6 399 -3 407.5 c 128,-1,19
 -12 416 -12 416 -24 418 c 0,20,21
 -40 421 -40 421 -42 434 c 128,-1,22
 -44 447 -44 447 -21 447 c 0,0,1
EndSplineSet
EndChar

StartChar: macron
Encoding: 248 175 8
Width: 0
VWidth: 345
GlyphClass: 1
Flags: W
LayerCount: 2
Fore
SplineSet
-807 949 m 0,0,1
 -734 949 -734 949 -659 949.5 c 128,-1,2
 -584 950 -584 950 -510 951 c 1,3,4
 -505 944 -505 944 -506.5 933 c 128,-1,5
 -508 922 -508 922 -510 914 c 1,6,7
 -525 911 -525 911 -608.5 911 c 128,-1,8
 -692 911 -692 911 -753 911 c 1,9,10
 -753 859 -753 859 -751 805 c 128,-1,11
 -749 751 -749 751 -754 750 c 0,12,13
 -770 750 -770 750 -787.5 747.5 c 128,-1,14
 -805 745 -805 745 -817 750 c 0,15,16
 -818 750 -818 750 -819 760 c 0,17,18
 -819 760 -819 760 -818 761 c 128,-1,19
 -817 762 -817 762 -817 762 c 0,20,21
 -817 815 -817 815 -816.5 848 c 128,-1,22
 -816 881 -816 881 -816 933 c 0,23,24
 -816 948 -816 948 -807 949 c 0,0,1
EndSplineSet
EndChar

StartChar: endash
Encoding: 208 8211 9
Width: 0
VWidth: 345
GlyphClass: 1
Flags: W
LayerCount: 2
Fore
SplineSet
-174 785 m 0,0,1
 -101 785 -101 785 -26 786 c 128,-1,2
 49 787 49 787 122 788 c 1,3,4
 127 781 127 781 126 770 c 128,-1,5
 125 759 125 759 123 751 c 1,6,7
 108 748 108 748 24.5 748 c 128,-1,8
 -59 748 -59 748 -121 748 c 1,9,10
 -121 696 -121 696 -118.5 631.5 c 128,-1,11
 -116 567 -116 567 -122 566 c 0,12,13
 -138 566 -138 566 -155 564 c 128,-1,14
 -172 562 -172 562 -185 566 c 0,15,16
 -186 566 -186 566 -186 576 c 0,17,18
 -186 576 -186 576 -185.5 576.5 c 128,-1,19
 -185 577 -185 577 -185 578 c 0,20,21
 -185 631 -185 631 -184 674.5 c 128,-1,22
 -183 718 -183 718 -183 770 c 0,23,24
 -183 784 -183 784 -174 785 c 0,0,1
EndSplineSet
EndChar

StartChar: lozenge
Encoding: 215 9674 10
Width: 1465
VWidth: 345
GlyphClass: 1
Flags: W
LayerCount: 2
Fore
SplineSet
753 660 m 0,0,1
 787 660 787 660 824.5 659.5 c 128,-1,2
 862 659 862 659 893 655 c 1,3,4
 914 655 914 655 933 604 c 128,-1,5
 952 553 952 553 986 502 c 0,6,7
 998 484 998 484 1008 483 c 0,8,9
 1017 481 1017 481 1022 474.5 c 128,-1,10
 1027 468 1027 468 1012 463 c 1,11,12
 977 458 977 458 942 459 c 128,-1,13
 907 460 907 460 875 463 c 1,14,15
 844 473 844 473 831 509.5 c 128,-1,16
 818 546 818 546 783 617 c 1,17,18
 773 633 773 633 749 637 c 0,19,20
 733 639 733 639 731 649.5 c 128,-1,21
 729 660 729 660 753 660 c 0,0,1
504 662 m 0,22,23
 534 662 534 662 567 661 c 128,-1,24
 600 660 600 660 626 656 c 1,25,26
 645 656 645 656 666 603.5 c 128,-1,27
 687 551 687 551 715 501 c 0,28,29
 725 483 725 483 734 481 c 0,30,31
 742 479 742 479 746.5 473 c 128,-1,32
 751 467 751 467 738 462 c 1,33,34
 707 457 707 457 676.5 458 c 128,-1,35
 646 459 646 459 618 462 c 1,36,37
 592 472 592 472 577 509 c 128,-1,38
 562 546 562 546 531 618 c 0,39,40
 528 622 528 622 520 630.5 c 128,-1,41
 512 639 512 639 501 641 c 0,42,43
 487 643 487 643 485 652 c 128,-1,44
 483 661 483 661 504 662 c 0,22,23
85 384 m 128,-1,46
 90 392 90 392 96.5 392.5 c 128,-1,47
 103 393 103 393 110 389 c 128,-1,48
 117 385 117 385 128 379.5 c 128,-1,49
 139 374 139 374 156 370.5 c 128,-1,50
 173 367 173 367 204 367 c 2,51,-1
 1184 367 l 2,52,53
 1212 367 1212 367 1235 362.5 c 128,-1,54
 1258 358 1258 358 1277 348 c 128,-1,55
 1296 338 1296 338 1306.5 330 c 128,-1,56
 1317 322 1317 322 1335.5 302.5 c 128,-1,57
 1354 283 1354 283 1367 265 c 128,-1,58
 1380 247 1380 247 1372 230 c 1,59,60
 1364 218 1364 218 1353.5 225 c 128,-1,61
 1343 232 1343 232 1329 237 c 128,-1,62
 1315 242 1315 242 1298.5 244 c 128,-1,63
 1282 246 1282 246 1247 246 c 2,64,-1
 282 246 l 2,65,66
 259 246 259 246 240 249 c 128,-1,67
 221 252 221 252 210.5 255.5 c 128,-1,68
 200 259 200 259 188 265 c 128,-1,69
 176 271 176 271 162.5 279.5 c 128,-1,70
 149 288 149 288 134 303.5 c 128,-1,71
 119 319 119 319 103.5 339.5 c 128,-1,72
 88 360 88 360 84 368 c 128,-1,45
 80 376 80 376 85 384 c 128,-1,46
EndSplineSet
EndChar

StartChar: three
Encoding: 51 51 11
Width: 1515
VWidth: 345
GlyphClass: 1
Flags: W
LayerCount: 2
Fore
SplineSet
593 783 m 0,0,1
 627 783 627 783 665 782.5 c 128,-1,2
 703 782 703 782 733 777 c 1,3,4
 754 777 754 777 779.5 694.5 c 128,-1,5
 805 612 805 612 840 549 c 0,6,7
 852 528 852 528 862 526 c 0,8,9
 871 523 871 523 875.5 515.5 c 128,-1,10
 880 508 880 508 866 502 c 1,11,12
 831 496 831 496 795.5 497 c 128,-1,13
 760 498 760 498 728 502 c 1,14,15
 698 514 698 514 678.5 578.5 c 128,-1,16
 659 643 659 643 624 730 c 0,17,18
 621 735 621 735 611.5 743.5 c 128,-1,19
 602 752 602 752 590 755 c 0,20,21
 574 758 574 758 571.5 770.5 c 128,-1,22
 569 783 569 783 593 783 c 0,0,1
85 384 m 128,-1,24
 90 392 90 392 96.5 392.5 c 128,-1,25
 103 393 103 393 110 389 c 128,-1,26
 117 385 117 385 128 379.5 c 128,-1,27
 139 374 139 374 156 370.5 c 128,-1,28
 173 367 173 367 204 367 c 2,29,-1
 1228 367 l 2,30,31
 1256 367 1256 367 1279 362.5 c 128,-1,32
 1302 358 1302 358 1321 348 c 128,-1,33
 1340 338 1340 338 1350.5 330 c 128,-1,34
 1361 322 1361 322 1379 302.5 c 128,-1,35
 1397 283 1397 283 1410.5 265 c 128,-1,36
 1424 247 1424 247 1416 230 c 1,37,38
 1408 218 1408 218 1397.5 225 c 128,-1,39
 1387 232 1387 232 1373 237 c 128,-1,40
 1359 242 1359 242 1342.5 244 c 128,-1,41
 1326 246 1326 246 1291 246 c 2,42,-1
 282 246 l 2,43,44
 259 246 259 246 240 249 c 128,-1,45
 221 252 221 252 210.5 255.5 c 128,-1,46
 200 259 200 259 188 265 c 128,-1,47
 176 271 176 271 162.5 279.5 c 128,-1,48
 149 288 149 288 134 303.5 c 128,-1,49
 119 319 119 319 103.5 339.5 c 128,-1,50
 88 360 88 360 84 368 c 128,-1,23
 80 376 80 376 85 384 c 128,-1,24
EndSplineSet
EndChar

StartChar: two
Encoding: 50 50 12
Width: 1515
VWidth: 345
GlyphClass: 1
Flags: W
LayerCount: 2
Fore
SplineSet
863 180 m 0,0,1
 897 180 897 180 935 179.5 c 128,-1,2
 973 179 973 179 1003 175 c 1,3,4
 1024 175 1024 175 1043 124 c 128,-1,5
 1062 73 1062 73 1097 22 c 0,6,7
 1109 4 1109 4 1119 2 c 0,8,9
 1128 0 1128 0 1133 -6 c 128,-1,10
 1138 -12 1138 -12 1123 -17 c 1,11,12
 1088 -22 1088 -22 1052.5 -21 c 128,-1,13
 1017 -20 1017 -20 985 -17 c 1,14,15
 955 -7 955 -7 942 29.5 c 128,-1,16
 929 66 929 66 894 137 c 1,17,18
 883 154 883 154 860 157 c 0,19,20
 844 159 844 159 841.5 169.5 c 128,-1,21
 839 180 839 180 863 180 c 0,0,1
85 384 m 128,-1,23
 90 392 90 392 96.5 392.5 c 128,-1,24
 103 393 103 393 110 389 c 128,-1,25
 117 385 117 385 128 379.5 c 128,-1,26
 139 374 139 374 156 370.5 c 128,-1,27
 173 367 173 367 204 367 c 2,28,-1
 1228 367 l 2,29,30
 1256 367 1256 367 1279 362.5 c 128,-1,31
 1302 358 1302 358 1321 348 c 128,-1,32
 1340 338 1340 338 1350.5 330 c 128,-1,33
 1361 322 1361 322 1379 302.5 c 128,-1,34
 1397 283 1397 283 1410.5 265 c 128,-1,35
 1424 247 1424 247 1416 230 c 1,36,37
 1408 218 1408 218 1397.5 225 c 128,-1,38
 1387 232 1387 232 1373 237 c 128,-1,39
 1359 242 1359 242 1342.5 244 c 128,-1,40
 1326 246 1326 246 1291 246 c 2,41,-1
 282 246 l 2,42,43
 259 246 259 246 240 249 c 128,-1,44
 221 252 221 252 210.5 255.5 c 128,-1,45
 200 259 200 259 188 265 c 128,-1,46
 176 271 176 271 162.5 279.5 c 128,-1,47
 149 288 149 288 134 303.5 c 128,-1,48
 119 319 119 319 103.5 339.5 c 128,-1,49
 88 360 88 360 84 368 c 128,-1,22
 80 376 80 376 85 384 c 128,-1,23
EndSplineSet
EndChar

StartChar: OE
Encoding: 206 338 13
Width: 1465
VWidth: 345
GlyphClass: 1
Flags: W
LayerCount: 2
Fore
SplineSet
863 180 m 0,0,1
 897 180 897 180 935 179.5 c 128,-1,2
 973 179 973 179 1003 175 c 1,3,4
 1024 175 1024 175 1043 124 c 128,-1,5
 1062 73 1062 73 1097 22 c 0,6,7
 1109 4 1109 4 1119 2 c 0,8,9
 1128 0 1128 0 1133 -6 c 128,-1,10
 1138 -12 1138 -12 1123 -17 c 1,11,12
 1088 -22 1088 -22 1052.5 -21 c 128,-1,13
 1017 -20 1017 -20 985 -17 c 1,14,15
 955 -7 955 -7 942 29.5 c 128,-1,16
 929 66 929 66 894 137 c 1,17,18
 883 154 883 154 860 157 c 0,19,20
 844 159 844 159 841.5 169.5 c 128,-1,21
 839 180 839 180 863 180 c 0,0,1
615 181 m 0,22,23
 645 181 645 181 677.5 180.5 c 128,-1,24
 710 180 710 180 737 176 c 1,25,26
 756 176 756 176 776.5 123.5 c 128,-1,27
 797 71 797 71 826 20 c 0,28,29
 835 2 835 2 845 1 c 0,30,31
 853 -1 853 -1 857 -7 c 128,-1,32
 861 -13 861 -13 849 -18 c 1,33,34
 819 -23 819 -23 787.5 -22.5 c 128,-1,35
 756 -22 756 -22 728 -18 c 1,36,37
 702 -8 702 -8 687 29 c 128,-1,38
 672 66 672 66 641 137 c 0,39,40
 638 141 638 141 630 150 c 128,-1,41
 622 159 622 159 611 161 c 0,42,43
 597 163 597 163 595.5 172 c 128,-1,44
 594 181 594 181 615 181 c 0,22,23
70 384 m 128,-1,46
 75 392 75 392 81.5 392.5 c 128,-1,47
 88 393 88 393 95.5 389 c 128,-1,48
 103 385 103 385 113.5 379.5 c 128,-1,49
 124 374 124 374 141 370.5 c 128,-1,50
 158 367 158 367 189 367 c 2,51,-1
 1213 367 l 2,52,53
 1241 367 1241 367 1264 362.5 c 128,-1,54
 1287 358 1287 358 1306 348 c 128,-1,55
 1325 338 1325 338 1335.5 330 c 128,-1,56
 1346 322 1346 322 1364.5 302.5 c 128,-1,57
 1383 283 1383 283 1396 265 c 128,-1,58
 1409 247 1409 247 1401 230 c 1,59,60
 1393 218 1393 218 1383 225 c 128,-1,61
 1373 232 1373 232 1358.5 237 c 128,-1,62
 1344 242 1344 242 1327.5 244 c 128,-1,63
 1311 246 1311 246 1276 246 c 2,64,-1
 267 246 l 2,65,66
 244 246 244 246 225.5 249 c 128,-1,67
 207 252 207 252 196 255.5 c 128,-1,68
 185 259 185 259 173.5 265 c 128,-1,69
 162 271 162 271 148.5 279.5 c 128,-1,70
 135 288 135 288 119.5 303.5 c 128,-1,71
 104 319 104 319 88.5 339.5 c 128,-1,72
 73 360 73 360 69 368 c 128,-1,45
 65 376 65 376 70 384 c 128,-1,46
EndSplineSet
EndChar

StartChar: four
Encoding: 52 52 14
Width: 1515
VWidth: 345
GlyphClass: 1
Flags: W
LayerCount: 2
Fore
SplineSet
1427 1163 m 1,0,1
 1443 1160 1443 1160 1441 1146.5 c 128,-1,2
 1439 1133 1439 1133 1421 1132 c 1,3,4
 1400 1125 1400 1125 1387.5 1079 c 128,-1,5
 1375 1033 1375 1033 1360 982 c 0,6,7
 1326 863 1326 863 1298 789 c 128,-1,8
 1270 715 1270 715 1245 685.5 c 128,-1,9
 1220 656 1220 656 1185 640 c 0,10,11
 1131 617 1131 617 1078 606 c 128,-1,12
 1025 595 1025 595 987 595 c 1,13,14
 1006 550 1006 550 1051 532 c 128,-1,15
 1096 514 1096 514 1077 494 c 0,16,17
 1066 483 1066 483 1007.5 523 c 128,-1,18
 949 563 949 563 928 602 c 1,19,20
 928 627 928 627 948 623 c 128,-1,21
 968 619 968 619 992 617 c 256,22,23
 1015 616 1015 616 1039.5 620 c 128,-1,24
 1064 624 1064 624 1105 645 c 0,25,26
 1125 655 1125 655 1143 690.5 c 128,-1,27
 1161 726 1161 726 1175 769 c 128,-1,28
 1189 812 1189 812 1199 854.5 c 128,-1,29
 1209 897 1209 897 1225.5 977 c 128,-1,30
 1242 1057 1242 1057 1254 1084 c 128,-1,31
 1266 1111 1266 1111 1287.5 1128 c 128,-1,32
 1309 1145 1309 1145 1328.5 1150 c 128,-1,33
 1348 1155 1348 1155 1371.5 1157 c 128,-1,34
 1395 1159 1395 1159 1427 1163 c 1,0,1
85 384 m 128,-1,36
 90 392 90 392 96.5 392.5 c 128,-1,37
 103 393 103 393 110 389 c 128,-1,38
 117 385 117 385 128 379.5 c 128,-1,39
 139 374 139 374 156 370.5 c 128,-1,40
 173 367 173 367 204 367 c 2,41,-1
 1228 367 l 2,42,43
 1256 367 1256 367 1279 362.5 c 128,-1,44
 1302 358 1302 358 1321 348 c 128,-1,45
 1340 338 1340 338 1350.5 330 c 128,-1,46
 1361 322 1361 322 1379 302.5 c 128,-1,47
 1397 283 1397 283 1410.5 265 c 128,-1,48
 1424 247 1424 247 1416 230 c 1,49,50
 1408 218 1408 218 1397.5 225 c 128,-1,51
 1387 232 1387 232 1373 237 c 128,-1,52
 1359 242 1359 242 1342.5 244 c 128,-1,53
 1326 246 1326 246 1291 246 c 2,54,-1
 282 246 l 2,55,56
 259 246 259 246 240 249 c 128,-1,57
 221 252 221 252 210.5 255.5 c 128,-1,58
 200 259 200 259 188 265 c 128,-1,59
 176 271 176 271 162.5 279.5 c 128,-1,60
 149 288 149 288 134 303.5 c 128,-1,61
 119 319 119 319 103.5 339.5 c 128,-1,62
 88 360 88 360 84 368 c 128,-1,35
 80 376 80 376 85 384 c 128,-1,36
EndSplineSet
EndChar

StartChar: five
Encoding: 53 53 15
Width: 1515
VWidth: 345
GlyphClass: 1
Flags: W
LayerCount: 2
Fore
SplineSet
85 384 m 128,-1,1
 90 392 90 392 96.5 392.5 c 128,-1,2
 103 393 103 393 110 389 c 128,-1,3
 117 385 117 385 128 379.5 c 128,-1,4
 139 374 139 374 156 370.5 c 128,-1,5
 173 367 173 367 204 367 c 2,6,-1
 1228 367 l 2,7,8
 1256 367 1256 367 1279 362.5 c 128,-1,9
 1302 358 1302 358 1321 348 c 128,-1,10
 1340 338 1340 338 1350.5 330 c 128,-1,11
 1361 322 1361 322 1379 302.5 c 128,-1,12
 1397 283 1397 283 1410.5 265 c 128,-1,13
 1424 247 1424 247 1416 230 c 1,14,15
 1408 218 1408 218 1397.5 225 c 128,-1,16
 1387 232 1387 232 1373 237 c 128,-1,17
 1359 242 1359 242 1342.5 244 c 128,-1,18
 1326 246 1326 246 1291 246 c 2,19,-1
 282 246 l 2,20,21
 259 246 259 246 240 249 c 128,-1,22
 221 252 221 252 210.5 255.5 c 128,-1,23
 200 259 200 259 188 265 c 128,-1,24
 176 271 176 271 162.5 279.5 c 128,-1,25
 149 288 149 288 134 303.5 c 128,-1,26
 119 319 119 319 103.5 339.5 c 128,-1,27
 88 360 88 360 84 368 c 128,-1,0
 80 376 80 376 85 384 c 128,-1,1
661 1163 m 1,28,29
 677 1160 677 1160 675 1146.5 c 128,-1,30
 673 1133 673 1133 654 1132 c 1,31,32
 633 1125 633 1125 620.5 1079 c 128,-1,33
 608 1033 608 1033 593 982 c 0,34,35
 559 863 559 863 531 789 c 128,-1,36
 503 715 503 715 478 685.5 c 128,-1,37
 453 656 453 656 418 640 c 0,38,39
 364 617 364 617 311.5 606 c 128,-1,40
 259 595 259 595 220 595 c 1,41,42
 239 550 239 550 284 532 c 128,-1,43
 329 514 329 514 310 494 c 0,44,45
 299 483 299 483 241 523 c 128,-1,46
 183 563 183 563 161 602 c 1,47,48
 161 627 161 627 181.5 623 c 128,-1,49
 202 619 202 619 225 617 c 256,50,51
 248 616 248 616 272.5 620 c 128,-1,52
 297 624 297 624 338 645 c 0,53,54
 358 655 358 655 376 690.5 c 128,-1,55
 394 726 394 726 408.5 769 c 128,-1,56
 423 812 423 812 433 854.5 c 128,-1,57
 443 897 443 897 459.5 977 c 128,-1,58
 476 1057 476 1057 487.5 1084 c 128,-1,59
 499 1111 499 1111 520.5 1128 c 128,-1,60
 542 1145 542 1145 561.5 1150 c 128,-1,61
 581 1155 581 1155 605 1157 c 128,-1,62
 629 1159 629 1159 661 1163 c 1,28,29
EndSplineSet
EndChar

StartChar: eight
Encoding: 56 56 16
Width: 1515
VWidth: 345
GlyphClass: 1
Flags: W
LayerCount: 2
Fore
SplineSet
85 384 m 128,-1,1
 90 392 90 392 96.5 392.5 c 128,-1,2
 103 393 103 393 110 389 c 128,-1,3
 117 385 117 385 128 379.5 c 128,-1,4
 139 374 139 374 156 370.5 c 128,-1,5
 173 367 173 367 204 367 c 2,6,-1
 1228 367 l 2,7,8
 1256 367 1256 367 1279 362.5 c 128,-1,9
 1302 358 1302 358 1321 348 c 128,-1,10
 1340 338 1340 338 1350.5 330 c 128,-1,11
 1361 322 1361 322 1379 302.5 c 128,-1,12
 1397 283 1397 283 1410.5 265 c 128,-1,13
 1424 247 1424 247 1416 230 c 1,14,15
 1408 218 1408 218 1397.5 225 c 128,-1,16
 1387 232 1387 232 1373 237 c 128,-1,17
 1359 242 1359 242 1342.5 244 c 128,-1,18
 1326 246 1326 246 1291 246 c 2,19,-1
 282 246 l 2,20,21
 259 246 259 246 240 249 c 128,-1,22
 221 252 221 252 210.5 255.5 c 128,-1,23
 200 259 200 259 188 265 c 128,-1,24
 176 271 176 271 162.5 279.5 c 128,-1,25
 149 288 149 288 134 303.5 c 128,-1,26
 119 319 119 319 103.5 339.5 c 128,-1,27
 88 360 88 360 84 368 c 128,-1,0
 80 376 80 376 85 384 c 128,-1,1
1427 1163 m 1,28,29
 1443 1160 1443 1160 1441 1146.5 c 128,-1,30
 1439 1133 1439 1133 1421 1132 c 1,31,32
 1400 1125 1400 1125 1387.5 1079 c 128,-1,33
 1375 1033 1375 1033 1360 982 c 0,34,35
 1326 863 1326 863 1298 789 c 128,-1,36
 1270 715 1270 715 1245 685.5 c 128,-1,37
 1220 656 1220 656 1185 640 c 0,38,39
 1131 617 1131 617 1078 606 c 128,-1,40
 1025 595 1025 595 987 595 c 1,41,42
 1006 550 1006 550 1051 532 c 128,-1,43
 1096 514 1096 514 1077 494 c 0,44,45
 1066 483 1066 483 1007.5 523 c 128,-1,46
 949 563 949 563 928 602 c 1,47,48
 928 627 928 627 948 623 c 128,-1,49
 968 619 968 619 992 617 c 256,50,51
 1015 616 1015 616 1039.5 620 c 128,-1,52
 1064 624 1064 624 1105 645 c 0,53,54
 1125 655 1125 655 1143 690.5 c 128,-1,55
 1161 726 1161 726 1175 769 c 128,-1,56
 1189 812 1189 812 1199 854.5 c 128,-1,57
 1209 897 1209 897 1225.5 977 c 128,-1,58
 1242 1057 1242 1057 1254 1084 c 128,-1,59
 1266 1111 1266 1111 1287.5 1128 c 128,-1,60
 1309 1145 1309 1145 1328.5 1150 c 128,-1,61
 1348 1155 1348 1155 1371.5 1157 c 128,-1,62
 1395 1159 1395 1159 1427 1163 c 1,28,29
661 1163 m 1,63,64
 677 1160 677 1160 675 1146.5 c 128,-1,65
 673 1133 673 1133 654 1132 c 1,66,67
 633 1125 633 1125 620.5 1079 c 128,-1,68
 608 1033 608 1033 593 982 c 0,69,70
 559 863 559 863 531 789 c 128,-1,71
 503 715 503 715 478 685.5 c 128,-1,72
 453 656 453 656 418 640 c 0,73,74
 364 617 364 617 311.5 606 c 128,-1,75
 259 595 259 595 220 595 c 1,76,77
 239 550 239 550 284 532 c 128,-1,78
 329 514 329 514 310 494 c 0,79,80
 299 483 299 483 241 523 c 128,-1,81
 183 563 183 563 161 602 c 1,82,83
 161 627 161 627 181.5 623 c 128,-1,84
 202 619 202 619 225 617 c 256,85,86
 248 616 248 616 272.5 620 c 128,-1,87
 297 624 297 624 338 645 c 0,88,89
 358 655 358 655 376 690.5 c 128,-1,90
 394 726 394 726 408.5 769 c 128,-1,91
 423 812 423 812 433 854.5 c 128,-1,92
 443 897 443 897 459.5 977 c 128,-1,93
 476 1057 476 1057 487.5 1084 c 128,-1,94
 499 1111 499 1111 520.5 1128 c 128,-1,95
 542 1145 542 1145 561.5 1150 c 128,-1,96
 581 1155 581 1155 605 1157 c 128,-1,97
 629 1159 629 1159 661 1163 c 1,63,64
EndSplineSet
EndChar

StartChar: seven
Encoding: 55 55 17
Width: 1515
VWidth: 345
GlyphClass: 1
Flags: W
LayerCount: 2
Fore
SplineSet
640 667 m 0,0,1
 671 667 671 667 704 666.5 c 128,-1,2
 737 666 737 666 764 662 c 1,3,4
 783 662 783 662 802.5 597.5 c 128,-1,5
 822 533 822 533 851 483 c 0,6,7
 860 466 860 466 869 465 c 0,8,9
 877 463 877 463 881 456.5 c 128,-1,10
 885 450 885 450 872 446 c 1,11,12
 840 441 840 441 808.5 442 c 128,-1,13
 777 443 777 443 749 446 c 1,14,15
 722 456 722 456 707 506.5 c 128,-1,16
 692 557 692 557 664 625 c 1,17,18
 655 641 655 641 635 645 c 0,19,20
 620 647 620 647 619.5 657 c 128,-1,21
 619 667 619 667 640 667 c 0,0,1
85 384 m 128,-1,23
 90 392 90 392 96.5 392.5 c 128,-1,24
 103 393 103 393 110 389 c 128,-1,25
 117 385 117 385 128 379.5 c 128,-1,26
 139 374 139 374 156 370.5 c 128,-1,27
 173 367 173 367 204 367 c 2,28,-1
 1228 367 l 2,29,30
 1256 367 1256 367 1279 362.5 c 128,-1,31
 1302 358 1302 358 1321 348 c 128,-1,32
 1340 338 1340 338 1350.5 330 c 128,-1,33
 1361 322 1361 322 1379 302.5 c 128,-1,34
 1397 283 1397 283 1410.5 265 c 128,-1,35
 1424 247 1424 247 1416 230 c 1,36,37
 1408 218 1408 218 1397.5 225 c 128,-1,38
 1387 232 1387 232 1373 237 c 128,-1,39
 1359 242 1359 242 1342.5 244 c 128,-1,40
 1326 246 1326 246 1291 246 c 2,41,-1
 282 246 l 2,42,43
 259 246 259 246 240 249 c 128,-1,44
 221 252 221 252 210.5 255.5 c 128,-1,45
 200 259 200 259 188 265 c 128,-1,46
 176 271 176 271 162.5 279.5 c 128,-1,47
 149 288 149 288 134 303.5 c 128,-1,48
 119 319 119 319 103.5 339.5 c 128,-1,49
 88 360 88 360 84 368 c 128,-1,22
 80 376 80 376 85 384 c 128,-1,23
1078 1270 m 1,50,51
 1093 1268 1093 1268 1091 1256 c 128,-1,52
 1089 1244 1089 1244 1072 1243 c 1,53,54
 1053 1237 1053 1237 1041 1198.5 c 128,-1,55
 1029 1160 1029 1160 1016 1117 c 0,56,57
 985 1016 985 1016 959 953.5 c 128,-1,58
 933 891 933 891 909.5 866.5 c 128,-1,59
 886 842 886 842 854 829 c 0,60,61
 804 809 804 809 755.5 799.5 c 128,-1,62
 707 790 707 790 671 790 c 1,63,64
 689 751 689 751 730 736.5 c 128,-1,65
 771 722 771 722 754 705 c 0,66,67
 744 696 744 696 690 730 c 128,-1,68
 636 764 636 764 616 797 c 1,69,70
 616 818 616 818 635 814.5 c 128,-1,71
 654 811 654 811 675 809 c 0,72,73
 697 808 697 808 719.5 811.5 c 128,-1,74
 742 815 742 815 780 832 c 0,75,76
 799 841 799 841 815.5 871 c 128,-1,77
 832 901 832 901 845 937.5 c 128,-1,78
 858 974 858 974 867.5 1009.5 c 128,-1,79
 877 1045 877 1045 892 1112.5 c 128,-1,80
 907 1180 907 1180 918 1203 c 128,-1,81
 929 1226 929 1226 948.5 1240 c 128,-1,82
 968 1254 968 1254 986 1258 c 128,-1,83
 1004 1262 1004 1262 1026.5 1264.5 c 128,-1,84
 1049 1267 1049 1267 1078 1270 c 1,50,51
EndSplineSet
EndChar

StartChar: six
Encoding: 54 54 18
Width: 1515
VWidth: 345
GlyphClass: 1
Flags: W
LayerCount: 2
Fore
SplineSet
593 783 m 0,0,1
 627 783 627 783 665 782.5 c 128,-1,2
 703 782 703 782 733 777 c 1,3,4
 754 777 754 777 779.5 694.5 c 128,-1,5
 805 612 805 612 840 549 c 0,6,7
 852 528 852 528 862 526 c 0,8,9
 871 523 871 523 875.5 515.5 c 128,-1,10
 880 508 880 508 866 502 c 1,11,12
 831 496 831 496 795.5 497 c 128,-1,13
 760 498 760 498 728 502 c 1,14,15
 698 514 698 514 678.5 578.5 c 128,-1,16
 659 643 659 643 624 730 c 0,17,18
 621 735 621 735 611.5 743.5 c 128,-1,19
 602 752 602 752 590 755 c 0,20,21
 574 758 574 758 571.5 770.5 c 128,-1,22
 569 783 569 783 593 783 c 0,0,1
85 384 m 128,-1,24
 90 392 90 392 96.5 392.5 c 128,-1,25
 103 393 103 393 110 389 c 128,-1,26
 117 385 117 385 128 379.5 c 128,-1,27
 139 374 139 374 156 370.5 c 128,-1,28
 173 367 173 367 204 367 c 2,29,-1
 1228 367 l 2,30,31
 1256 367 1256 367 1279 362.5 c 128,-1,32
 1302 358 1302 358 1321 348 c 128,-1,33
 1340 338 1340 338 1350.5 330 c 128,-1,34
 1361 322 1361 322 1379 302.5 c 128,-1,35
 1397 283 1397 283 1410.5 265 c 128,-1,36
 1424 247 1424 247 1416 230 c 1,37,38
 1408 218 1408 218 1397.5 225 c 128,-1,39
 1387 232 1387 232 1373 237 c 128,-1,40
 1359 242 1359 242 1342.5 244 c 128,-1,41
 1326 246 1326 246 1291 246 c 2,42,-1
 282 246 l 2,43,44
 259 246 259 246 240 249 c 128,-1,45
 221 252 221 252 210.5 255.5 c 128,-1,46
 200 259 200 259 188 265 c 128,-1,47
 176 271 176 271 162.5 279.5 c 128,-1,48
 149 288 149 288 134 303.5 c 128,-1,49
 119 319 119 319 103.5 339.5 c 128,-1,50
 88 360 88 360 84 368 c 128,-1,23
 80 376 80 376 85 384 c 128,-1,24
1427 1163 m 1,51,52
 1443 1160 1443 1160 1441 1146.5 c 128,-1,53
 1439 1133 1439 1133 1421 1132 c 1,54,55
 1400 1125 1400 1125 1387.5 1079 c 128,-1,56
 1375 1033 1375 1033 1360 982 c 0,57,58
 1326 863 1326 863 1298 789 c 128,-1,59
 1270 715 1270 715 1245 685.5 c 128,-1,60
 1220 656 1220 656 1185 640 c 0,61,62
 1131 617 1131 617 1078 606 c 128,-1,63
 1025 595 1025 595 987 595 c 1,64,65
 1006 550 1006 550 1051 532 c 128,-1,66
 1096 514 1096 514 1077 494 c 0,67,68
 1066 483 1066 483 1007.5 523 c 128,-1,69
 949 563 949 563 928 602 c 1,70,71
 928 627 928 627 948 623 c 128,-1,72
 968 619 968 619 992 617 c 256,73,74
 1015 616 1015 616 1039.5 620 c 128,-1,75
 1064 624 1064 624 1105 645 c 0,76,77
 1125 655 1125 655 1143 690.5 c 128,-1,78
 1161 726 1161 726 1175 769 c 128,-1,79
 1189 812 1189 812 1199 854.5 c 128,-1,80
 1209 897 1209 897 1225.5 977 c 128,-1,81
 1242 1057 1242 1057 1254 1084 c 128,-1,82
 1266 1111 1266 1111 1287.5 1128 c 128,-1,83
 1309 1145 1309 1145 1328.5 1150 c 128,-1,84
 1348 1155 1348 1155 1371.5 1157 c 128,-1,85
 1395 1159 1395 1159 1427 1163 c 1,51,52
EndSplineSet
EndChar

StartChar: I
Encoding: 73 73 19
Width: 1515
VWidth: 345
GlyphClass: 1
Flags: W
LayerCount: 2
Fore
SplineSet
690 475 m 1,0,1
 678 484 678 484 688 491.5 c 128,-1,2
 698 499 698 499 713 499 c 0,3,4
 729 499 729 499 758.5 528.5 c 128,-1,5
 788 558 788 558 797 601 c 0,6,7
 812 674 812 674 721 721 c 0,8,9
 686 738 686 738 633 751 c 128,-1,10
 580 764 580 764 528 774 c 128,-1,11
 476 784 476 784 436 790.5 c 128,-1,12
 396 797 396 797 390 800 c 0,13,14
 376 805 376 805 379 814.5 c 128,-1,15
 382 824 382 824 394 824 c 0,16,17
 400 824 400 824 438.5 819 c 128,-1,18
 477 814 477 814 531.5 805 c 128,-1,19
 586 796 586 796 646.5 782 c 128,-1,20
 707 768 707 768 756 749 c 0,21,22
 815 726 815 726 850 702.5 c 128,-1,23
 885 679 885 679 915 640 c 0,24,25
 944 600 944 600 939.5 561.5 c 128,-1,26
 935 523 935 523 905 501 c 0,27,28
 878 481 878 481 843.5 474.5 c 128,-1,29
 809 468 809 468 778 468 c 0,30,31
 746 468 746 468 733.5 468 c 128,-1,32
 721 468 721 468 690 475 c 1,0,1
85 384 m 128,-1,34
 90 392 90 392 96.5 392.5 c 128,-1,35
 103 393 103 393 110 389 c 128,-1,36
 117 385 117 385 128 379.5 c 128,-1,37
 139 374 139 374 156 370.5 c 128,-1,38
 173 367 173 367 204 367 c 2,39,-1
 1228 367 l 2,40,41
 1256 367 1256 367 1279 362.5 c 128,-1,42
 1302 358 1302 358 1321 348 c 128,-1,43
 1340 338 1340 338 1350.5 330 c 128,-1,44
 1361 322 1361 322 1379 302.5 c 128,-1,45
 1397 283 1397 283 1410.5 265 c 128,-1,46
 1424 247 1424 247 1416 230 c 1,47,48
 1408 218 1408 218 1397.5 225 c 128,-1,49
 1387 232 1387 232 1373 237 c 128,-1,50
 1359 242 1359 242 1342.5 244 c 128,-1,51
 1326 246 1326 246 1291 246 c 2,52,-1
 282 246 l 2,53,54
 259 246 259 246 240 249 c 128,-1,55
 221 252 221 252 210.5 255.5 c 128,-1,56
 200 259 200 259 188 265 c 128,-1,57
 176 271 176 271 162.5 279.5 c 128,-1,58
 149 288 149 288 134 303.5 c 128,-1,59
 119 319 119 319 103.5 339.5 c 128,-1,60
 88 360 88 360 84 368 c 128,-1,33
 80 376 80 376 85 384 c 128,-1,34
EndSplineSet
EndChar

StartChar: at
Encoding: 64 64 20
Width: 1243
VWidth: 345
GlyphClass: 1
Flags: W
LayerCount: 2
Fore
SplineSet
375 140 m 1,0,1
 337 126 337 126 246 142 c 1,2,3
 193 155 193 155 152.5 177 c 128,-1,4
 112 199 112 199 90 254 c 1,5,6
 75 307 75 307 80 338.5 c 128,-1,7
 85 370 85 370 115 412 c 1,8,9
 144 447 144 447 182.5 465 c 128,-1,10
 221 483 221 483 277 494 c 0,11,12
 333 505 333 505 368 505 c 128,-1,13
 403 505 403 505 444 503 c 0,14,15
 484 501 484 501 518.5 496.5 c 128,-1,16
 553 492 553 492 602 477 c 0,17,18
 683 455 683 455 762 416 c 0,19,20
 806 394 806 394 855.5 368.5 c 128,-1,21
 905 343 905 343 966 308 c 0,22,23
 994 291 994 291 1027.5 272 c 128,-1,24
 1061 253 1061 253 1099 233 c 1,25,26
 1128 215 1128 215 1156.5 196.5 c 128,-1,27
 1185 178 1185 178 1180.5 159.5 c 128,-1,28
 1176 141 1176 141 1159 142 c 128,-1,29
 1142 143 1142 143 1051.5 141 c 128,-1,30
 961 139 961 139 894 140 c 1,31,32
 867 160 867 160 894.5 169 c 128,-1,33
 922 178 922 178 936 191 c 0,34,35
 961 217 961 217 958 232 c 128,-1,36
 955 247 955 247 949.5 255.5 c 128,-1,37
 944 264 944 264 933 273.5 c 128,-1,38
 922 283 922 283 878.5 313 c 128,-1,39
 835 343 835 343 771 376 c 1,40,41
 713 401 713 401 680 417 c 128,-1,42
 647 433 647 433 573 453 c 1,43,44
 518 464 518 464 461 466.5 c 128,-1,45
 404 469 404 469 345 450 c 1,46,47
 304 432 304 432 287.5 419.5 c 128,-1,48
 271 407 271 407 250 375 c 0,49,50
 232 345 232 345 229.5 324 c 128,-1,51
 227 303 227 303 229 276 c 0,52,53
 230 248 230 248 235.5 235.5 c 128,-1,54
 241 223 241 223 249.5 210.5 c 128,-1,55
 258 198 258 198 271.5 187.5 c 128,-1,56
 285 177 285 177 313 172.5 c 128,-1,57
 341 168 341 168 368 165 c 0,58,59
 380 163 380 163 383.5 155 c 128,-1,60
 387 147 387 147 375 140 c 1,0,1
EndSplineSet
EndChar

StartChar: numbersign
Encoding: 35 35 21
Width: 1243
VWidth: 345
GlyphClass: 1
Flags: W
LayerCount: 2
Fore
SplineSet
375 140 m 1,0,1
 337 126 337 126 246 142 c 1,2,3
 193 155 193 155 152.5 177 c 128,-1,4
 112 199 112 199 90 254 c 1,5,6
 75 307 75 307 80 338.5 c 128,-1,7
 85 370 85 370 115 412 c 1,8,9
 144 447 144 447 182.5 465 c 128,-1,10
 221 483 221 483 277 494 c 128,-1,11
 333 505 333 505 368 505 c 128,-1,12
 403 505 403 505 444 503 c 0,13,14
 484 501 484 501 518.5 496.5 c 128,-1,15
 553 492 553 492 602 477 c 0,16,17
 683 455 683 455 762 416 c 0,18,19
 806 394 806 394 855.5 368.5 c 128,-1,20
 905 343 905 343 966 308 c 0,21,22
 994 291 994 291 1027.5 272 c 128,-1,23
 1061 253 1061 253 1099 233 c 1,24,25
 1128 215 1128 215 1156.5 196.5 c 128,-1,26
 1185 178 1185 178 1180.5 159.5 c 128,-1,27
 1176 141 1176 141 1159 142 c 128,-1,28
 1142 143 1142 143 1051.5 141 c 128,-1,29
 961 139 961 139 894 140 c 1,30,31
 867 160 867 160 894.5 169 c 128,-1,32
 922 178 922 178 936 191 c 0,33,34
 961 217 961 217 958 232 c 128,-1,35
 955 247 955 247 949.5 255.5 c 128,-1,36
 944 264 944 264 933 273.5 c 128,-1,37
 922 283 922 283 878.5 313 c 128,-1,38
 835 343 835 343 771 376 c 1,39,40
 713 401 713 401 680 417 c 128,-1,41
 647 433 647 433 573 453 c 1,42,43
 518 464 518 464 461 466.5 c 128,-1,44
 404 469 404 469 345 450 c 1,45,46
 304 432 304 432 287.5 419.5 c 128,-1,47
 271 407 271 407 250 375 c 0,48,49
 232 345 232 345 229.5 324 c 128,-1,50
 227 303 227 303 229 276 c 0,51,52
 230 248 230 248 235.5 235.5 c 128,-1,53
 241 223 241 223 249.5 210.5 c 128,-1,54
 258 198 258 198 271.5 187.5 c 128,-1,55
 285 177 285 177 313 172.5 c 128,-1,56
 341 168 341 168 368 165 c 0,57,58
 380 163 380 163 383.5 155 c 128,-1,59
 387 147 387 147 375 140 c 1,0,1
581 35 m 1,60,61
 571 43 571 43 579.5 50 c 128,-1,62
 588 57 588 57 602 57 c 0,63,64
 617 57 617 57 643 83.5 c 128,-1,65
 669 110 669 110 678 149 c 0,66,67
 692 215 692 215 609 258 c 0,68,69
 577 273 577 273 529 285 c 128,-1,70
 481 297 481 297 434 306 c 128,-1,71
 387 315 387 315 351 320.5 c 128,-1,72
 315 326 315 326 309 329 c 0,73,74
 296 334 296 334 299 342 c 128,-1,75
 302 350 302 350 312 350 c 0,76,77
 317 350 317 350 352.5 346 c 128,-1,78
 388 342 388 342 437.5 333.5 c 128,-1,79
 487 325 487 325 541.5 312.5 c 0,80,81
 596 301 596 301 641 283 c 0,82,83
 694 262 694 262 726 241 c 128,-1,84
 758 220 758 220 784 184 c 128,-1,85
 810 148 810 148 806 113 c 128,-1,86
 802 78 802 78 776 58 c 0,87,88
 752 40 752 40 720 34 c 128,-1,89
 688 28 688 28 660 28 c 256,90,91
 632 28 632 28 620.5 28.5 c 128,-1,92
 609 29 609 29 581 35 c 1,60,61
EndSplineSet
EndChar

StartChar: underscore
Encoding: 95 95 22
Width: 1752
VWidth: 345
GlyphClass: 1
Flags: W
LayerCount: 2
Fore
SplineSet
330 138 m 1,0,1
 319 146 319 146 328.5 153.5 c 128,-1,2
 338 161 338 161 353 161 c 0,3,4
 369 161 369 161 396.5 189.5 c 128,-1,5
 424 218 424 218 433 259 c 0,6,7
 447 328 447 328 360 373 c 0,8,9
 327 389 327 389 278 401.5 c 128,-1,10
 229 414 229 414 182 422.5 c 128,-1,11
 135 431 135 431 99.5 437 c 128,-1,12
 64 443 64 443 58 445 c 0,13,14
 45 450 45 450 48 459 c 128,-1,15
 51 468 51 468 62 468 c 256,16,17
 73 468 73 468 186.5 451.5 c 128,-1,18
 300 435 300 435 394 399 c 0,19,20
 450 377 450 377 483.5 355 c 128,-1,21
 517 333 517 333 545 296 c 256,22,23
 573 259 573 259 568.5 221.5 c 128,-1,24
 564 184 564 184 536 163 c 0,25,26
 510 144 510 144 477 137.5 c 128,-1,27
 444 131 444 131 414 131 c 256,28,29
 384 131 384 131 372 131 c 128,-1,30
 360 131 360 131 330 138 c 1,0,1
887 140 m 1,31,32
 849 126 849 126 759 142 c 1,33,34
 706 155 706 155 665.5 177 c 128,-1,35
 625 199 625 199 603 254 c 1,36,37
 588 307 588 307 593 338.5 c 128,-1,38
 598 370 598 370 628 412 c 1,39,40
 657 447 657 447 695.5 465 c 128,-1,41
 734 483 734 483 790 494 c 0,42,43
 846 505 846 505 881 505 c 128,-1,44
 916 505 916 505 957 503 c 0,45,46
 997 501 997 501 1031 496.5 c 128,-1,47
 1065 492 1065 492 1114 477 c 0,48,49
 1195 455 1195 455 1274 416 c 0,50,51
 1318 394 1318 394 1368 368.5 c 128,-1,52
 1418 343 1418 343 1479 308 c 0,53,54
 1507 291 1507 291 1540 272 c 128,-1,55
 1573 253 1573 253 1612 233 c 1,56,57
 1641 215 1641 215 1669 196.5 c 128,-1,58
 1697 178 1697 178 1692.5 159.5 c 128,-1,59
 1688 141 1688 141 1671 142 c 128,-1,60
 1654 143 1654 143 1564 141 c 128,-1,61
 1474 139 1474 139 1407 140 c 1,62,63
 1380 160 1380 160 1407.5 169 c 128,-1,64
 1435 178 1435 178 1448 191 c 0,65,66
 1473 217 1473 217 1470.5 232 c 128,-1,67
 1468 247 1468 247 1462.5 255.5 c 128,-1,68
 1457 264 1457 264 1446 273.5 c 128,-1,69
 1435 283 1435 283 1391.5 313 c 128,-1,70
 1348 343 1348 343 1284 376 c 1,71,72
 1226 401 1226 401 1193 417 c 128,-1,73
 1160 433 1160 433 1085 453 c 1,74,75
 1030 464 1030 464 973.5 466.5 c 128,-1,76
 917 469 917 469 858 450 c 1,77,78
 817 432 817 432 800 419.5 c 128,-1,79
 783 407 783 407 763 375 c 0,80,81
 745 345 745 345 742 324 c 128,-1,82
 739 303 739 303 741 276 c 0,83,84
 742 248 742 248 747.5 235.5 c 128,-1,85
 753 223 753 223 762 210.5 c 128,-1,86
 771 198 771 198 784.5 187.5 c 128,-1,87
 798 177 798 177 826 172.5 c 128,-1,88
 854 168 854 168 881 165 c 0,89,90
 893 163 893 163 896 155 c 128,-1,91
 899 147 899 147 887 140 c 1,31,32
EndSplineSet
EndChar

StartChar: T
Encoding: 84 84 23
Width: 2077
VWidth: 345
GlyphClass: 1
Flags: W
LayerCount: 2
Fore
SplineSet
1321 671 m 0,0,1
 1351 671 1351 671 1384 670 c 128,-1,2
 1417 669 1417 669 1443 664 c 1,3,4
 1462 664 1462 664 1486 613 c 128,-1,5
 1510 562 1510 562 1538 501 c 0,6,7
 1547 480 1547 480 1557 477 c 0,8,9
 1565 474 1565 474 1569.5 466.5 c 128,-1,10
 1574 459 1574 459 1561 453 c 1,11,12
 1530 447 1530 447 1499 448 c 128,-1,13
 1468 449 1468 449 1440 453 c 1,14,15
 1413 465 1413 465 1395.5 498 c 128,-1,16
 1378 531 1378 531 1347 617 c 0,17,18
 1344 622 1344 622 1336 632.5 c 128,-1,19
 1328 643 1328 643 1317 645 c 0,20,21
 1303 647 1303 647 1301.5 659 c 128,-1,22
 1300 671 1300 671 1321 671 c 0,0,1
1591 671 m 0,23,24
 1621 671 1621 671 1654 670 c 128,-1,25
 1687 669 1687 669 1713 664 c 1,26,27
 1732 664 1732 664 1756 613 c 128,-1,28
 1780 562 1780 562 1809 501 c 0,29,30
 1818 480 1818 480 1828 477 c 0,31,32
 1835 474 1835 474 1839.5 466.5 c 128,-1,33
 1844 459 1844 459 1831 453 c 1,34,35
 1801 447 1801 447 1769.5 448 c 128,-1,36
 1738 449 1738 449 1710 453 c 1,37,38
 1684 465 1684 465 1666 498 c 128,-1,39
 1648 531 1648 531 1617 617 c 0,40,41
 1615 622 1615 622 1606.5 632.5 c 128,-1,42
 1598 643 1598 643 1588 645 c 0,43,44
 1574 647 1574 647 1572 659 c 128,-1,45
 1570 671 1570 671 1591 671 c 0,23,24
168 384 m 128,-1,47
 173 392 173 392 179.5 392.5 c 128,-1,48
 186 393 186 393 193 389 c 128,-1,49
 200 385 200 385 211 379.5 c 128,-1,50
 222 374 222 374 239 370.5 c 128,-1,51
 256 367 256 367 287 367 c 2,52,-1
 1779 367 l 2,53,54
 1807 367 1807 367 1830.5 362.5 c 128,-1,55
 1854 358 1854 358 1873 348 c 128,-1,56
 1892 338 1892 338 1902.5 330 c 128,-1,57
 1913 322 1913 322 1931 302.5 c 128,-1,58
 1949 283 1949 283 1962.5 265 c 128,-1,59
 1976 247 1976 247 1968 230 c 1,60,61
 1960 218 1960 218 1949.5 225 c 128,-1,62
 1939 232 1939 232 1925 237 c 128,-1,63
 1911 242 1911 242 1894 244 c 128,-1,64
 1877 246 1877 246 1843 246 c 2,65,-1
 365 246 l 2,66,67
 342 246 342 246 323 249 c 128,-1,68
 304 252 304 252 293.5 255.5 c 128,-1,69
 283 259 283 259 271 265 c 128,-1,70
 259 271 259 271 245.5 279.5 c 128,-1,71
 232 288 232 288 217 303.5 c 128,-1,72
 202 319 202 319 186.5 339.5 c 128,-1,73
 171 360 171 360 167 368 c 128,-1,46
 163 376 163 376 168 384 c 128,-1,47
375 487 m 1,74,75
 337 473 337 473 246 489 c 1,76,77
 193 502 193 502 152.5 524 c 128,-1,78
 112 546 112 546 90 601 c 1,79,80
 75 654 75 654 80 685.5 c 128,-1,81
 85 717 85 717 115 759 c 1,82,83
 144 794 144 794 182.5 811.5 c 128,-1,84
 221 829 221 829 277 841 c 0,85,86
 333 852 333 852 368 851.5 c 128,-1,87
 403 851 403 851 444 850 c 0,88,89
 484 848 484 848 518.5 843.5 c 128,-1,90
 553 839 553 839 602 824 c 0,91,92
 683 802 683 802 762 762 c 0,93,94
 806 740 806 740 855.5 715 c 128,-1,95
 905 690 905 690 966 655 c 0,96,97
 994 638 994 638 1027.5 618.5 c 128,-1,98
 1061 599 1061 599 1099 579 c 1,99,100
 1128 561 1128 561 1156.5 543 c 128,-1,101
 1185 525 1185 525 1180.5 506.5 c 128,-1,102
 1176 488 1176 488 1159 489 c 128,-1,103
 1142 490 1142 490 1051.5 488 c 128,-1,104
 961 486 961 486 894 487 c 1,105,106
 867 507 867 507 894.5 515.5 c 128,-1,107
 922 524 922 524 936 537 c 0,108,109
 961 563 961 563 958 578.5 c 128,-1,110
 955 594 955 594 949.5 602.5 c 128,-1,111
 944 611 944 611 933 620.5 c 128,-1,112
 922 630 922 630 878.5 660 c 128,-1,113
 835 690 835 690 771 723 c 1,114,115
 713 748 713 748 680 764 c 128,-1,116
 647 780 647 780 573 800 c 1,117,118
 518 811 518 811 461 813.5 c 128,-1,119
 404 816 404 816 345 797 c 1,120,121
 304 779 304 779 287.5 766 c 128,-1,122
 271 753 271 753 250 722 c 0,123,124
 232 692 232 692 229.5 671 c 128,-1,125
 227 650 227 650 229 623 c 0,126,127
 230 595 230 595 235.5 582.5 c 128,-1,128
 241 570 241 570 249.5 557 c 128,-1,129
 258 544 258 544 271.5 533.5 c 128,-1,130
 285 523 285 523 313 518.5 c 128,-1,131
 341 514 341 514 368 512 c 0,132,133
 380 510 380 510 383.5 502 c 128,-1,134
 387 494 387 494 375 487 c 1,74,75
581 426 m 1,135,136
 571 434 571 434 579.5 441 c 128,-1,137
 588 448 588 448 602 448 c 0,138,139
 617 448 617 448 643 474 c 128,-1,140
 669 500 669 500 678 540 c 0,141,142
 692 606 692 606 609 648 c 0,143,144
 577 663 577 663 529 675 c 128,-1,145
 481 687 481 687 434 696.5 c 128,-1,146
 387 706 387 706 351 711.5 c 128,-1,147
 315 717 315 717 309 720 c 0,148,149
 296 725 296 725 299 733 c 128,-1,150
 302 741 302 741 312 741 c 0,151,152
 317 741 317 741 352.5 737 c 128,-1,153
 388 733 388 733 437.5 724.5 c 128,-1,154
 487 716 487 716 541.5 703.5 c 128,-1,155
 596 691 596 691 641 673 c 0,156,157
 694 652 694 652 726 631 c 128,-1,158
 758 610 758 610 784 575 c 0,159,160
 810 539 810 539 806 504 c 128,-1,161
 802 469 802 469 776 449 c 0,162,163
 752 431 752 431 720 425 c 128,-1,164
 688 419 688 419 660 419 c 256,165,166
 632 419 632 419 620.5 419.5 c 128,-1,167
 609 420 609 420 581 426 c 1,135,136
EndSplineSet
EndChar

StartChar: a
Encoding: 97 97 24
Width: 4
VWidth: 345
GlyphClass: 1
Flags: W
LayerCount: 2
Fore
SplineSet
-920 708 m 0,0,1
 -911 704 -911 704 -900 696 c 128,-1,2
 -889 688 -889 688 -882 683 c 0,3,4
 -840 654 -840 654 -806.5 633.5 c 128,-1,5
 -773 613 -773 613 -726 604 c 0,6,7
 -704 600 -704 600 -677 601.5 c 128,-1,8
 -650 603 -650 603 -640 607 c 0,9,10
 -611 617 -611 617 -608 643 c 128,-1,11
 -605 669 -605 669 -614 685 c 0,12,13
 -620 696 -620 696 -618.5 709 c 128,-1,14
 -617 722 -617 722 -604 725 c 1,15,16
 -551 721 -551 721 -516.5 696.5 c 128,-1,17
 -482 672 -482 672 -478 648 c 1,18,-1
 -477 642 l 1,19,20
 -477 615 -477 615 -496 589 c 128,-1,21
 -515 563 -515 563 -556 553 c 0,22,23
 -653 531 -653 531 -747 568 c 0,24,25
 -800 589 -800 589 -849.5 616 c 128,-1,26
 -899 643 -899 643 -940 675 c 0,27,28
 -953 685 -953 685 -946 701 c 128,-1,29
 -939 717 -939 717 -920 708 c 0,0,1
EndSplineSet
EndChar

StartChar: z
Encoding: 122 122 25
Width: 4
VWidth: 345
GlyphClass: 1
Flags: W
LayerCount: 2
Fore
SplineSet
-912 95 m 0,0,1
 -904 91 -904 91 -894 84 c 128,-1,2
 -884 77 -884 77 -877 73 c 0,3,4
 -839 46 -839 46 -809 27.5 c 128,-1,5
 -779 9 -779 9 -736 1 c 0,6,7
 -715 -3 -715 -3 -691 -1.5 c 128,-1,8
 -667 0 -667 0 -658 4 c 0,9,10
 -632 13 -632 13 -629 36.5 c 128,-1,11
 -626 60 -626 60 -635 74 c 0,12,13
 -640 84 -640 84 -638.5 96 c 128,-1,14
 -637 108 -637 108 -626 111 c 1,15,16
 -578 107 -578 107 -546 82 c 128,-1,17
 -514 57 -514 57 -511 35 c 2,18,-1
 -510 26 l 2,19,20
 -510 11 -510 11 -527.5 -12.5 c 128,-1,21
 -545 -36 -545 -36 -582 -45 c 0,22,23
 -669 -66 -669 -66 -755 -31 c 0,24,25
 -802 -12 -802 -12 -848 12 c 128,-1,26
 -894 36 -894 36 -930 65 c 0,27,28
 -942 74 -942 74 -935.5 88.5 c 128,-1,29
 -929 103 -929 103 -912 95 c 0,0,1
EndSplineSet
EndChar

StartChar: Z
Encoding: 90 90 26
Width: 4
VWidth: 345
GlyphClass: 1
Flags: W
LayerCount: 2
Fore
SplineSet
-1220 709 m 0,0,1
 -1211 705 -1211 705 -1200 697 c 128,-1,2
 -1189 689 -1189 689 -1182 684 c 0,3,4
 -1140 655 -1140 655 -1106.5 634.5 c 128,-1,5
 -1073 614 -1073 614 -1026 605 c 0,6,7
 -1004 601 -1004 601 -977 602.5 c 128,-1,8
 -950 604 -950 604 -939 608 c 0,9,10
 -910 618 -910 618 -907.5 644 c 128,-1,11
 -905 670 -905 670 -914 686 c 0,12,13
 -920 697 -920 697 -918.5 710 c 128,-1,14
 -917 723 -917 723 -905 725 c 1,15,16
 -852 721 -852 721 -815.5 692.5 c 128,-1,17
 -779 664 -779 664 -777 643 c 1,18,-1
 -777 634 l 2,19,20
 -777 616 -777 616 -796 590 c 128,-1,21
 -815 564 -815 564 -856 554 c 0,22,23
 -954 532 -954 532 -1047 569 c 0,24,25
 -1099 590 -1099 590 -1149 617 c 128,-1,26
 -1199 644 -1199 644 -1240 676 c 0,27,28
 -1253 686 -1253 686 -1246 702 c 128,-1,29
 -1239 718 -1239 718 -1220 709 c 0,0,1
EndSplineSet
EndChar

StartChar: bar
Encoding: 124 124 27
Width: 610
VWidth: 345
GlyphClass: 1
Flags: W
LayerCount: 2
Fore
SplineSet
74 697 m 1,0,1
 80 709 80 709 138 694.5 c 128,-1,2
 196 680 196 680 234 663 c 0,3,4
 253 654 253 654 256 634.5 c 128,-1,5
 259 615 259 615 260 573 c 0,6,7
 261 453 261 453 268.5 383 c 128,-1,8
 276 313 276 313 284 264 c 0,9,10
 296 186 296 186 314 133.5 c 128,-1,11
 332 81 332 81 370 42 c 0,12,13
 408 3 408 3 440.5 -17.5 c 128,-1,14
 473 -38 473 -38 566 -57 c 1,15,16
 582 -57 582 -57 579.5 -64.5 c 128,-1,17
 577 -72 577 -72 560 -72 c 1,18,19
 503 -60 503 -60 505 -62 c 128,-1,20
 507 -64 507 -64 459 -49 c 1,21,22
 373 -14 373 -14 324 49 c 128,-1,23
 275 112 275 112 240 172 c 1,24,25
 189 267 189 267 157 370 c 128,-1,26
 125 473 125 473 111 638 c 0,27,28
 106 683 106 683 89 681 c 128,-1,29
 72 679 72 679 74 697 c 1,0,1
446 474 m 2,30,-1
 505 474 l 2,31,32
 510 474 510 474 521 473.5 c 128,-1,33
 532 473 532 473 535 470 c 0,34,35
 539 466 539 466 533.5 466 c 128,-1,36
 528 466 528 466 525 444 c 2,37,-1
 519 396 l 2,38,39
 515 366 515 366 490 366 c 2,40,-1
 431 366 l 2,41,42
 426 366 426 366 413 366.5 c 128,-1,43
 400 367 400 367 400 373 c 0,44,45
 399 379 399 379 404 381 c 128,-1,46
 409 383 409 383 411 396 c 2,47,-1
 417 444 l 2,48,49
 421 474 421 474 446 474 c 2,30,-1
EndSplineSet
EndChar

StartChar: backslash
Encoding: 92 92 28
Width: 534
VWidth: 345
GlyphClass: 1
Flags: W
LayerCount: 2
Fore
SplineSet
74 697 m 1,0,1
 80 709 80 709 138 694.5 c 128,-1,2
 196 680 196 680 234 663 c 0,3,4
 253 654 253 654 256 634.5 c 128,-1,5
 259 615 259 615 260 573 c 0,6,7
 261 453 261 453 268.5 383 c 128,-1,8
 276 313 276 313 284 264 c 0,9,10
 296 186 296 186 314 133.5 c 128,-1,11
 332 81 332 81 370 42 c 0,12,13
 408 3 408 3 440.5 -17.5 c 128,-1,14
 473 -38 473 -38 566 -57 c 1,15,16
 582 -57 582 -57 579.5 -64.5 c 128,-1,17
 577 -72 577 -72 560 -72 c 1,18,19
 503 -60 503 -60 505 -62 c 128,-1,20
 507 -64 507 -64 459 -49 c 1,21,22
 373 -14 373 -14 324 49 c 128,-1,23
 275 112 275 112 240 172 c 1,24,25
 189 267 189 267 157 370 c 128,-1,26
 125 473 125 473 111 638 c 0,27,28
 106 683 106 683 89 681 c 128,-1,29
 72 679 72 679 74 697 c 1,0,1
EndSplineSet
EndChar

StartChar: j
Encoding: 106 106 29
Width: 0
VWidth: 345
GlyphClass: 1
Flags: W
LayerCount: 2
Fore
SplineSet
-720 992 m 2,0,1
 -719 1005 -719 1005 -704 1004 c 128,-1,2
 -689 1003 -689 1003 -688 992 c 2,3,-1
 -688 617 l 2,4,5
 -688 602 -688 602 -688 602 c 1,6,7
 -694 589 -694 589 -707 591 c 128,-1,8
 -720 593 -720 593 -720 602 c 2,9,-1
 -720 978 l 2,10,11
 -720 992 -720 992 -720 992 c 2,0,1
90 248 m 257,12,13
 90 248 90 248 90 248 c 129,-1,14
 90 248 90 248 90 248 c 257,15,16
 90 248 90 248 90 248 c 129,-1,17
 90 248 90 248 90 248 c 257,18,19
 90 248 90 248 90 248 c 129,-1,20
 90 248 90 248 90 248 c 257,21,22
 90 248 90 248 90 248 c 129,-1,23
 90 248 90 248 90 248 c 257,12,13
EndSplineSet
EndChar

StartChar: equal
Encoding: 61 61 30
Width: 1577
VWidth: 345
GlyphClass: 1
Flags: W
LayerCount: 2
Fore
SplineSet
176 -84 m 0,0,1
 326 -77 326 -77 529 -66 c 128,-1,2
 732 -55 732 -55 881 -60 c 0,3,4
 1010 -64 1010 -64 1130.5 -76 c 128,-1,5
 1251 -88 1251 -88 1314 -102 c 0,6,7
 1378 -117 1378 -117 1431 -151.5 c 128,-1,8
 1484 -186 1484 -186 1493 -221 c 0,9,10
 1501 -256 1501 -256 1494 -280 c 128,-1,11
 1487 -304 1487 -304 1416 -336 c 1,12,13
 1365 -347 1365 -347 1309.5 -350.5 c 128,-1,14
 1254 -354 1254 -354 1213 -353 c 1,15,16
 1196 -347 1196 -347 1210.5 -339 c 128,-1,17
 1225 -331 1225 -331 1250.5 -318.5 c 128,-1,18
 1276 -306 1276 -306 1303 -286.5 c 128,-1,19
 1330 -267 1330 -267 1338 -237 c 0,20,21
 1354 -182 1354 -182 1289.5 -153 c 128,-1,22
 1225 -124 1225 -124 1135.5 -111 c 128,-1,23
 1046 -98 1046 -98 959 -96.5 c 128,-1,24
 872 -95 872 -95 842 -93 c 0,25,26
 779 -90 779 -90 667 -94 c 128,-1,27
 555 -98 555 -98 445.5 -104.5 c 128,-1,28
 336 -111 336 -111 256 -116 c 128,-1,29
 176 -121 176 -121 176 -121 c 1,30,31
 160 -118 160 -118 160.5 -101.5 c 128,-1,32
 161 -85 161 -85 176 -84 c 0,0,1
863 180 m 0,33,34
 897 180 897 180 935 179.5 c 128,-1,35
 973 179 973 179 1003 175 c 1,36,37
 1024 175 1024 175 1043 124 c 128,-1,38
 1062 73 1062 73 1097 22 c 0,39,40
 1109 4 1109 4 1119 2 c 0,41,42
 1128 0 1128 0 1133 -6 c 128,-1,43
 1138 -12 1138 -12 1123 -17 c 1,44,45
 1088 -22 1088 -22 1052.5 -21 c 128,-1,46
 1017 -20 1017 -20 985 -17 c 1,47,48
 955 -7 955 -7 942 29.5 c 128,-1,49
 929 66 929 66 894 137 c 1,50,51
 883 154 883 154 860 157 c 0,52,53
 844 159 844 159 841.5 169.5 c 128,-1,54
 839 180 839 180 863 180 c 0,33,34
85 384 m 128,-1,56
 90 392 90 392 96.5 392.5 c 128,-1,57
 103 393 103 393 110 389 c 128,-1,58
 117 385 117 385 128 379.5 c 128,-1,59
 139 374 139 374 156 370.5 c 128,-1,60
 173 367 173 367 204 367 c 2,61,-1
 1228 367 l 2,62,63
 1256 367 1256 367 1279 362.5 c 128,-1,64
 1302 358 1302 358 1321 348 c 128,-1,65
 1340 338 1340 338 1350.5 330 c 128,-1,66
 1361 322 1361 322 1379 302.5 c 128,-1,67
 1397 283 1397 283 1410.5 265 c 128,-1,68
 1424 247 1424 247 1416 230 c 1,69,70
 1408 218 1408 218 1397.5 225 c 128,-1,71
 1387 232 1387 232 1373 237 c 128,-1,72
 1359 242 1359 242 1342.5 244 c 128,-1,73
 1326 246 1326 246 1291 246 c 2,74,-1
 282 246 l 2,75,76
 259 246 259 246 240 249 c 128,-1,77
 221 252 221 252 210.5 255.5 c 128,-1,78
 200 259 200 259 188 265 c 128,-1,79
 176 271 176 271 162.5 279.5 c 128,-1,80
 149 288 149 288 134 303.5 c 128,-1,81
 119 319 119 319 103.5 339.5 c 128,-1,82
 88 360 88 360 84 368 c 128,-1,55
 80 376 80 376 85 384 c 128,-1,56
EndSplineSet
EndChar

StartChar: quotedbl
Encoding: 34 34 31
Width: 7
VWidth: 345
GlyphClass: 1
Flags: W
LayerCount: 2
Fore
SplineSet
-1317 64 m 0,0,1
 -1167 71 -1167 71 -964 82 c 128,-1,2
 -761 93 -761 93 -612 88 c 0,3,4
 -482 85 -482 85 -362 72.5 c 128,-1,5
 -242 60 -242 60 -179 46 c 0,6,7
 -115 31 -115 31 -61.5 -3.5 c 128,-1,8
 -8 -38 -8 -38 0 -73 c 256,9,10
 8 -108 8 -108 1 -132 c 128,-1,11
 -6 -156 -6 -156 -77 -188 c 1,12,13
 -127 -199 -127 -199 -182.5 -202.5 c 128,-1,14
 -238 -206 -238 -206 -280 -205 c 1,15,16
 -297 -198 -297 -198 -282.5 -190.5 c 128,-1,17
 -268 -183 -268 -183 -242.5 -170.5 c 128,-1,18
 -217 -158 -217 -158 -190 -138.5 c 128,-1,19
 -163 -119 -163 -119 -154 -89 c 0,20,21
 -138 -34 -138 -34 -202.5 -5 c 128,-1,22
 -267 24 -267 24 -356.5 37 c 128,-1,23
 -446 50 -446 50 -533.5 51.5 c 128,-1,24
 -621 53 -621 53 -651 55 c 0,25,26
 -714 58 -714 58 -826 54 c 128,-1,27
 -938 50 -938 50 -1047 43.5 c 128,-1,28
 -1156 37 -1156 37 -1236.5 32 c 128,-1,29
 -1317 27 -1317 27 -1317 27 c 1,30,31
 -1333 30 -1333 30 -1332.5 46 c 128,-1,32
 -1332 62 -1332 62 -1317 64 c 0,0,1
EndSplineSet
EndChar

StartChar: bracketright
Encoding: 93 93 32
Width: 18
VWidth: 345
GlyphClass: 1
Flags: W
LayerCount: 2
Fore
SplineSet
-2252 -51 m 2,0,1
 -2242 -42 -2242 -42 -2224 -53.5 c 128,-1,2
 -2206 -65 -2206 -65 -2220 -87 c 1,3,-1
 -2332 -207 l 1,4,5
 -2323 -200 -2323 -200 -2257.5 -174.5 c 128,-1,6
 -2192 -149 -2192 -149 -2157 -140 c 0,7,8
 -2076 -121 -2076 -121 -1976.5 -137 c 128,-1,9
 -1877 -153 -1877 -153 -1804 -183 c 0,10,11
 -1772 -197 -1772 -197 -1718.5 -226 c 128,-1,12
 -1665 -255 -1665 -255 -1600 -282 c 128,-1,13
 -1535 -309 -1535 -309 -1463.5 -325 c 128,-1,14
 -1392 -341 -1392 -341 -1325 -329 c 0,15,16
 -1287 -323 -1287 -323 -1255 -297.5 c 128,-1,17
 -1223 -272 -1223 -272 -1233 -253 c 0,18,19
 -1243 -235 -1243 -235 -1276 -256.5 c 128,-1,20
 -1309 -278 -1309 -278 -1335 -215 c 0,21,22
 -1354 -167 -1354 -167 -1325 -135.5 c 128,-1,23
 -1296 -104 -1296 -104 -1248 -117 c 0,24,25
 -1177 -137 -1177 -137 -1181 -217 c 0,26,27
 -1183 -259 -1183 -259 -1218 -300.5 c 128,-1,28
 -1253 -342 -1253 -342 -1296 -354 c 0,29,30
 -1383 -379 -1383 -379 -1459.5 -369 c 128,-1,31
 -1536 -359 -1536 -359 -1602.5 -334 c 128,-1,32
 -1669 -309 -1669 -309 -1726 -277.5 c 128,-1,33
 -1783 -246 -1783 -246 -1830 -227 c 0,34,35
 -1917 -191 -1917 -191 -1994 -173.5 c 128,-1,36
 -2071 -156 -2071 -156 -2155 -172 c 0,37,38
 -2204 -181 -2204 -181 -2268 -206.5 c 128,-1,39
 -2332 -232 -2332 -232 -2354 -250 c 0,40,41
 -2365 -260 -2365 -260 -2382 -246.5 c 128,-1,42
 -2399 -233 -2399 -233 -2390 -211 c 1,43,-1
 -2252 -51 l 2,0,1
EndSplineSet
EndChar

StartChar: quotesingle
Encoding: 39 39 33
Width: 0
VWidth: 345
GlyphClass: 1
Flags: W
LayerCount: 2
Fore
SplineSet
-191 85 m 1,0,1
 -131 89 -131 89 -82.5 92 c 128,-1,2
 -34 95 -34 95 28 93 c 1,3,4
 41 89 41 89 39.5 75 c 128,-1,5
 38 61 38 61 26 62 c 0,6,7
 20 61 20 61 19 61.5 c 128,-1,8
 18 62 18 62 10 62 c 0,9,10
 -13 60 -13 60 -64.5 18.5 c 128,-1,11
 -116 -23 -116 -23 -177 -73.5 c 128,-1,12
 -238 -124 -238 -124 -270.5 -147 c 128,-1,13
 -303 -170 -303 -170 -325.5 -184.5 c 128,-1,14
 -348 -199 -348 -199 -399 -223 c 0,15,16
 -457 -251 -457 -251 -552 -259 c 128,-1,17
 -647 -267 -647 -267 -714.5 -262.5 c 128,-1,18
 -782 -258 -782 -258 -831 -245.5 c 128,-1,19
 -880 -233 -880 -233 -948 -209.5 c 128,-1,20
 -1016 -186 -1016 -186 -1139 -115 c 0,21,22
 -1290 -27 -1290 -27 -1329.5 1 c 128,-1,23
 -1369 29 -1369 29 -1414 60 c 1,24,25
 -1422 75 -1422 75 -1412 89.5 c 128,-1,26
 -1402 104 -1402 104 -1377 90 c 0,27,28
 -1352 75 -1352 75 -1274.5 21 c 128,-1,29
 -1197 -33 -1197 -33 -1076 -101 c 0,30,31
 -989 -151 -989 -151 -886.5 -181.5 c 128,-1,32
 -784 -212 -784 -212 -712 -214 c 0,33,34
 -648 -215 -648 -215 -585 -200 c 128,-1,35
 -522 -185 -522 -185 -444 -130 c 1,36,37
 -354 -49 -354 -49 -295 13.5 c 128,-1,38
 -236 76 -236 76 -191 85 c 1,0,1
EndSplineSet
EndChar

StartChar: A
Encoding: 65 65 34
Width: 4
VWidth: 345
GlyphClass: 1
Flags: W
LayerCount: 2
Fore
SplineSet
-584 768 m 0,0,1
 -575 764 -575 764 -564 755.5 c 128,-1,2
 -553 747 -553 747 -546 742 c 0,3,4
 -504 713 -504 713 -471 692.5 c 128,-1,5
 -438 672 -438 672 -391 663 c 0,6,7
 -368 659 -368 659 -341 660.5 c 128,-1,8
 -314 662 -314 662 -304 667 c 0,9,10
 -275 677 -275 677 -272.5 702.5 c 128,-1,11
 -270 728 -270 728 -278 744 c 0,12,13
 -284 755 -284 755 -282.5 768.5 c 128,-1,14
 -281 782 -281 782 -269 784 c 1,15,16
 -216 780 -216 780 -180 751.5 c 128,-1,17
 -144 723 -144 723 -142 701 c 1,18,-1
 -142 693 l 2,19,20
 -142 675 -142 675 -161 649 c 128,-1,21
 -180 623 -180 623 -221 613 c 0,22,23
 -318 591 -318 591 -411 627 c 0,24,25
 -464 648 -464 648 -514 675 c 128,-1,26
 -564 702 -564 702 -605 735 c 0,27,28
 -618 745 -618 745 -610.5 761 c 128,-1,29
 -603 777 -603 777 -584 768 c 0,0,1
EndSplineSet
EndChar

StartChar: perthousand
Encoding: 228 8240 35
Width: 0
VWidth: 345
GlyphClass: 1
Flags: W
LayerCount: 2
Fore
SplineSet
-574 896 m 1,0,1
 -574 931 -574 931 -573 963 c 128,-1,2
 -572 995 -572 995 -572 1034 c 0,3,4
 -572 1046 -572 1046 -563 1048 c 0,5,6
 -489 1048 -489 1048 -414.5 1048.5 c 128,-1,7
 -340 1049 -340 1049 -267 1050 c 1,8,9
 -259 1040 -259 1040 -267 1016 c 1,10,11
 -282 1013 -282 1013 -365 1013 c 128,-1,12
 -448 1013 -448 1013 -509 1013 c 1,13,14
 -509 965 -509 965 -507.5 915.5 c 128,-1,15
 -506 866 -506 866 -512 866 c 0,16,17
 -520 864 -520 864 -527.5 863 c 128,-1,18
 -535 862 -535 862 -573 863 c 1,19,20
 -614 862 -614 862 -666 861 c 128,-1,21
 -718 860 -718 860 -757 860 c 1,22,23
 -757 812 -757 812 -755.5 762 c 128,-1,24
 -754 712 -754 712 -760 712 c 0,25,26
 -776 712 -776 712 -793 710 c 128,-1,27
 -810 708 -810 708 -823 712 c 0,28,29
 -824 712 -824 712 -824 721 c 1,30,31
 -824 721 -824 721 -823.5 722 c 128,-1,32
 -823 723 -823 723 -823 723 c 0,33,34
 -823 772 -823 772 -821.5 801.5 c 128,-1,35
 -820 831 -820 831 -820 881 c 0,36,37
 -820 893 -820 893 -811 894 c 0,38,39
 -752 894 -752 894 -692.5 895 c 128,-1,40
 -633 896 -633 896 -574 896 c 1,0,1
EndSplineSet
EndChar

StartChar: k
Encoding: 107 107 36
Width: 4
VWidth: 345
GlyphClass: 1
Flags: W
LayerCount: 2
Fore
SplineSet
-784 -1 m 2,0,-1
 -725 -1 l 2,1,2
 -720 -1 -720 -1 -709 -1 c 128,-1,3
 -698 -1 -698 -1 -695 -4 c 0,4,5
 -691 -8 -691 -8 -696.5 -8.5 c 128,-1,6
 -702 -9 -702 -9 -705 -31 c 2,7,-1
 -711 -78 l 2,8,9
 -714 -108 -714 -108 -740 -109 c 2,10,-1
 -799 -109 l 2,11,12
 -803 -109 -803 -109 -816.5 -108 c 128,-1,13
 -830 -107 -830 -107 -830 -102 c 0,14,15
 -830 -96 -830 -96 -825 -94 c 128,-1,16
 -820 -92 -820 -92 -819 -78 c 2,17,18
 -818 -78 -818 -78 -812 -31 c 2,19,20
 -808 -1 -808 -1 -784 -1 c 2,0,-1
-544 -1 m 2,21,-1
 -485 -1 l 2,22,23
 -480 -1 -480 -1 -469 -1 c 128,-1,24
 -458 -1 -458 -1 -455 -4 c 0,25,26
 -451 -8 -451 -8 -456.5 -8.5 c 128,-1,27
 -462 -9 -462 -9 -465 -31 c 2,28,-1
 -471 -78 l 2,29,30
 -474 -108 -474 -108 -500 -109 c 2,31,-1
 -559 -109 l 2,32,33
 -563 -109 -563 -109 -576 -108 c 128,-1,34
 -589 -107 -589 -107 -590 -102 c 0,35,36
 -590 -96 -590 -96 -585 -94 c 128,-1,37
 -580 -92 -580 -92 -579 -78 c 2,38,-1
 -572 -31 l 2,39,40
 -568 -1 -568 -1 -544 -1 c 2,21,-1
EndSplineSet
EndChar

StartChar: K
Encoding: 75 75 37
Width: 8
VWidth: 345
GlyphClass: 1
Flags: W
LayerCount: 2
Fore
SplineSet
-310 -1 m 2,0,-1
 -250 -1 l 2,1,2
 -245 -1 -245 -1 -234 -1 c 128,-1,3
 -223 -1 -223 -1 -220 -4 c 0,4,5
 -216 -8 -216 -8 -221.5 -8.5 c 128,-1,6
 -227 -9 -227 -9 -230 -31 c 2,7,-1
 -236 -78 l 2,8,9
 -240 -108 -240 -108 -265 -109 c 2,10,-1
 -324 -109 l 2,11,12
 -329 -109 -329 -109 -341.5 -108 c 128,-1,13
 -354 -107 -354 -107 -355 -102 c 0,14,15
 -355 -96 -355 -96 -350.5 -94 c 128,-1,16
 -346 -92 -346 -92 -344 -78 c 2,17,-1
 -338 -31 l 2,18,19
 -333 -1 -333 -1 -310 -1 c 2,0,-1
-84 -1 m 2,20,-1
 -25 -1 l 2,21,22
 -20 -1 -20 -1 -9.5 -1 c 128,-1,23
 1 -1 1 -1 5 -4 c 0,24,25
 8 -8 8 -8 3 -8.5 c 128,-1,26
 -2 -9 -2 -9 -5 -31 c 2,27,-1
 -11 -78 l 2,28,29
 -14 -108 -14 -108 -40 -109 c 2,30,-1
 -99 -109 l 2,31,32
 -104 -109 -104 -109 -116.5 -108 c 128,-1,33
 -129 -107 -129 -107 -130 -102 c 0,34,35
 -130 -96 -130 -96 -125 -94 c 128,-1,36
 -120 -92 -120 -92 -119 -78 c 2,37,-1
 -113 -31 l 2,38,39
 -108 -1 -108 -1 -84 -1 c 2,20,-1
EndSplineSet
EndChar

StartChar: edieresis
Encoding: 145 235 38
Width: 0
VWidth: 345
GlyphClass: 1
Flags: W
LayerCount: 2
Fore
SplineSet
-585 1 m 0,0,1
 -577 -3 -577 -3 -567.5 -10 c 128,-1,2
 -558 -17 -558 -17 -551 -22 c 0,3,4
 -513 -49 -513 -49 -483 -67.5 c 128,-1,5
 -453 -86 -453 -86 -410 -94 c 0,6,7
 -389 -98 -389 -98 -365 -96 c 128,-1,8
 -341 -94 -341 -94 -332 -91 c 0,9,10
 -306 -82 -306 -82 -303 -58.5 c 128,-1,11
 -300 -35 -300 -35 -309 -20 c 0,12,13
 -314 -10 -314 -10 -312.5 1.5 c 128,-1,14
 -311 13 -311 13 -300 16 c 1,15,16
 -252 12 -252 12 -219 -15.5 c 128,-1,17
 -186 -43 -186 -43 -185 -59 c 2,18,-1
 -185 -67 l 2,19,20
 -185 -84 -185 -84 -202 -107.5 c 128,-1,21
 -219 -131 -219 -131 -256 -139 c 0,22,23
 -343 -160 -343 -160 -429 -126 c 0,24,25
 -476 -107 -476 -107 -521.5 -83 c 128,-1,26
 -567 -59 -567 -59 -604 -30 c 0,27,28
 -616 -21 -616 -21 -609 -6 c 128,-1,29
 -602 9 -602 9 -585 1 c 0,0,1
EndSplineSet
EndChar

StartChar: R
Encoding: 82 82 39
Width: 1995
VWidth: 345
GlyphClass: 1
Flags: W
LayerCount: 2
Fore
SplineSet
899 530 m 1,0,-1
 908 492 l 2,1,2
 908 488 908 488 918.5 472.5 c 128,-1,3
 929 457 929 457 929 453 c 256,4,5
 929 449 929 449 912.5 446 c 128,-1,6
 896 443 896 443 890 443 c 2,7,-1
 829 443 l 2,8,9
 817 443 817 443 806.5 460 c 128,-1,10
 796 477 796 477 793 492 c 2,11,-1
 785 531 l 1,12,13
 668 531 668 531 570 540 c 128,-1,14
 472 549 472 549 431 556 c 0,15,16
 355 568 355 568 305.5 598 c 128,-1,17
 256 628 256 628 240 666 c 0,18,19
 232 685 232 685 211 722.5 c 128,-1,20
 190 760 190 760 167 798 c 128,-1,21
 144 836 144 836 123.5 866 c 128,-1,22
 103 896 103 896 95 900 c 0,23,24
 54 914 54 914 77 930 c 1,25,26
 127 934 127 934 173 935.5 c 128,-1,27
 219 937 219 937 267 933 c 0,28,29
 315 930 315 930 335.5 878 c 128,-1,30
 356 826 356 826 377 742 c 0,31,32
 398 658 398 658 428.5 627.5 c 128,-1,33
 459 597 459 597 534 577 c 0,34,35
 576 565 576 565 636 562 c 128,-1,36
 696 559 696 559 781 560 c 1,37,-1
 769 629 l 2,38,39
 768 634 768 634 759 642.5 c 128,-1,40
 750 651 750 651 750 655 c 0,41,42
 750 661 750 661 766 663 c 128,-1,43
 782 665 782 665 789 665 c 2,44,-1
 850 665 l 2,45,46
 861 665 861 665 871.5 649.5 c 128,-1,47
 882 634 882 634 886 616 c 2,48,-1
 896 561 l 1,49,50
 963 562 963 562 987 565.5 c 128,-1,51
 1011 569 1011 569 1040 573 c 1,52,53
 1051 572 1051 572 1053 563 c 128,-1,54
 1055 554 1055 554 1048 547 c 0,55,56
 1038 539 1038 539 1007 534.5 c 128,-1,57
 976 530 976 530 899 530 c 1,0,-1
1506 671 m 0,58,59
 1536 671 1536 671 1569 670 c 128,-1,60
 1602 669 1602 669 1628 664 c 1,61,62
 1647 664 1647 664 1671 613 c 128,-1,63
 1695 562 1695 562 1724 501 c 0,64,65
 1733 480 1733 480 1743 477 c 0,66,67
 1751 474 1751 474 1755 466.5 c 128,-1,68
 1759 459 1759 459 1747 453 c 1,69,70
 1716 447 1716 447 1685 448 c 128,-1,71
 1654 449 1654 449 1625 453 c 1,72,73
 1599 465 1599 465 1581 498 c 128,-1,74
 1563 531 1563 531 1533 617 c 0,75,76
 1530 622 1530 622 1521.5 632.5 c 128,-1,77
 1513 643 1513 643 1503 645 c 0,78,79
 1489 647 1489 647 1487 659 c 128,-1,80
 1485 671 1485 671 1506 671 c 0,58,59
1236 671 m 0,81,82
 1266 671 1266 671 1299 670 c 128,-1,83
 1332 669 1332 669 1358 664 c 1,84,85
 1377 664 1377 664 1401 613 c 128,-1,86
 1425 562 1425 562 1454 501 c 0,87,88
 1462 480 1462 480 1473 477 c 0,89,90
 1480 474 1480 474 1484.5 466.5 c 128,-1,91
 1489 459 1489 459 1476 453 c 1,92,93
 1446 447 1446 447 1414.5 448 c 128,-1,94
 1383 449 1383 449 1355 453 c 1,95,96
 1329 465 1329 465 1311 498 c 128,-1,97
 1293 531 1293 531 1262 617 c 0,98,99
 1259 622 1259 622 1251 632.5 c 128,-1,100
 1243 643 1243 643 1232 645 c 0,101,102
 1218 647 1218 647 1216.5 659 c 128,-1,103
 1215 671 1215 671 1236 671 c 0,81,82
172.5 384 m 128,-1,105
 178 392 178 392 184 392.5 c 128,-1,106
 190 393 190 393 197.5 389 c 128,-1,107
 205 385 205 385 216 379.5 c 128,-1,108
 227 374 227 374 244 370.5 c 128,-1,109
 261 367 261 367 292 367 c 2,110,-1
 1701 367 l 2,111,112
 1729 367 1729 367 1752 362.5 c 128,-1,113
 1775 358 1775 358 1794 348 c 128,-1,114
 1813 338 1813 338 1823.5 330 c 128,-1,115
 1834 322 1834 322 1852.5 302.5 c 128,-1,116
 1871 283 1871 283 1884 265 c 128,-1,117
 1897 247 1897 247 1890 230 c 1,118,119
 1882 218 1882 218 1871.5 225 c 128,-1,120
 1861 232 1861 232 1847 237 c 128,-1,121
 1833 242 1833 242 1816 244 c 128,-1,122
 1799 246 1799 246 1765 246 c 2,123,-1
 370 246 l 2,124,125
 347 246 347 246 328 249 c 128,-1,126
 309 252 309 252 298.5 255.5 c 128,-1,127
 288 259 288 259 276 265 c 128,-1,128
 264 271 264 271 250.5 279.5 c 128,-1,129
 237 288 237 288 222 303.5 c 128,-1,130
 207 319 207 319 191.5 339.5 c 128,-1,131
 176 360 176 360 171.5 368 c 128,-1,104
 167 376 167 376 172.5 384 c 128,-1,105
EndSplineSet
EndChar

StartChar: U
Encoding: 85 85 40
Width: 1627
VWidth: 345
GlyphClass: 1
Flags: W
LayerCount: 2
Fore
SplineSet
408 458 m 1,0,1
 397 467 397 467 407 474.5 c 128,-1,2
 417 482 417 482 432 482 c 0,3,4
 448 482 448 482 477 511.5 c 128,-1,5
 506 541 506 541 516 584 c 0,6,7
 531 657 531 657 439 703 c 0,8,9
 404 720 404 720 351 733.5 c 128,-1,10
 298 747 298 747 246 757 c 128,-1,11
 194 767 194 767 154.5 773.5 c 0,12,13
 115 781 115 781 108 783 c 0,14,15
 94 788 94 788 97.5 797 c 128,-1,16
 101 806 101 806 112 806 c 0,17,18
 118 806 118 806 157 801.5 c 128,-1,19
 196 797 196 797 250 788 c 128,-1,20
 304 779 304 779 364.5 764.5 c 128,-1,21
 425 750 425 750 475 731 c 0,22,23
 534 708 534 708 569 685 c 128,-1,24
 604 662 604 662 633 623 c 256,25,26
 662 584 662 584 657.5 545 c 128,-1,27
 653 506 653 506 624 484 c 0,28,29
 597 464 597 464 562.5 457 c 128,-1,30
 528 450 528 450 496 450 c 256,31,32
 464 450 464 450 452 450 c 128,-1,33
 440 450 440 450 408 458 c 1,0,1
1149 671 m 0,34,35
 1179 671 1179 671 1212 670 c 128,-1,36
 1245 669 1245 669 1271 664 c 1,37,38
 1290 664 1290 664 1314 613 c 128,-1,39
 1338 562 1338 562 1367 501 c 0,40,41
 1375 480 1375 480 1386 477 c 0,42,43
 1393 474 1393 474 1397.5 466.5 c 128,-1,44
 1402 459 1402 459 1389 453 c 1,45,46
 1359 447 1359 447 1327.5 448 c 128,-1,47
 1296 449 1296 449 1269 453 c 1,48,49
 1243 465 1243 465 1224.5 498 c 128,-1,50
 1206 531 1206 531 1175 617 c 0,51,52
 1172 622 1172 622 1164 632.5 c 128,-1,53
 1156 643 1156 643 1146 645 c 0,54,55
 1132 647 1132 647 1130 659 c 128,-1,56
 1128 671 1128 671 1149 671 c 0,34,35
879 671 m 0,57,58
 909 671 909 671 942 670 c 128,-1,59
 975 669 975 669 1001 664 c 1,60,61
 1020 664 1020 664 1044 613 c 128,-1,62
 1068 562 1068 562 1096 501 c 0,63,64
 1105 480 1105 480 1115 477 c 0,65,66
 1123 474 1123 474 1127.5 466.5 c 128,-1,67
 1132 459 1132 459 1119 453 c 1,68,69
 1088 447 1088 447 1057 448 c 128,-1,70
 1026 449 1026 449 998 453 c 1,71,72
 972 465 972 465 954 498 c 128,-1,73
 936 531 936 531 905 617 c 0,74,75
 902 622 902 622 894 632.5 c 128,-1,76
 886 643 886 643 875 645 c 0,77,78
 861 647 861 647 859.5 659 c 128,-1,79
 858 671 858 671 879 671 c 0,57,58
80 384 m 128,-1,81
 85 392 85 392 91.5 392.5 c 128,-1,82
 98 393 98 393 105 389 c 128,-1,83
 112 385 112 385 123 379.5 c 128,-1,84
 134 374 134 374 151 370.5 c 128,-1,85
 168 367 168 367 199 367 c 2,86,-1
 1354 367 l 2,87,88
 1382 367 1382 367 1405.5 362.5 c 128,-1,89
 1429 358 1429 358 1448 348 c 128,-1,90
 1467 338 1467 338 1477.5 330 c 128,-1,91
 1488 322 1488 322 1506 302.5 c 128,-1,92
 1524 283 1524 283 1537.5 265 c 128,-1,93
 1551 247 1551 247 1543 230 c 1,94,95
 1535 218 1535 218 1524.5 225 c 128,-1,96
 1514 232 1514 232 1500 237 c 128,-1,97
 1486 242 1486 242 1469.5 244 c 128,-1,98
 1453 246 1453 246 1418 246 c 2,99,-1
 277 246 l 2,100,101
 254 246 254 246 235 249 c 128,-1,102
 216 252 216 252 205.5 255.5 c 128,-1,103
 195 259 195 259 183 265 c 128,-1,104
 171 271 171 271 158 279.5 c 128,-1,105
 145 288 145 288 129.5 303.5 c 128,-1,106
 114 319 114 319 98.5 339.5 c 128,-1,107
 83 360 83 360 79 368 c 128,-1,80
 75 376 75 376 80 384 c 128,-1,81
EndSplineSet
EndChar

StartChar: integral
Encoding: 186 8747 41
Width: 0
VWidth: 345
GlyphClass: 1
Flags: W
LayerCount: 2
Fore
SplineSet
-137 1095 m 0,0,1
 -137 1120 -137 1120 -121 1136.5 c 128,-1,2
 -105 1153 -105 1153 -80 1153 c 0,3,4
 -43 1153 -43 1153 -21 1127 c 128,-1,5
 1 1101 1 1101 1 1057 c 0,6,7
 1 1018 1 1018 -30.5 975 c 128,-1,8
 -62 932 -62 932 -108 909 c 1,9,-1
 -108 909 l 1,10,-1
 -119 928 l 1,11,-1
 -119 928 l 1,12,13
 -71 957 -71 957 -51 993 c 0,14,15
 -42 1010 -42 1010 -37 1030 c 0,16,17
 -35 1040 -35 1040 -40 1045 c 128,-1,18
 -45 1050 -45 1050 -56 1047 c 0,19,20
 -67 1045 -67 1045 -79 1045 c 0,21,22
 -104 1045 -104 1045 -120.5 1059 c 128,-1,23
 -137 1073 -137 1073 -137 1095 c 0,0,1
EndSplineSet
EndChar

StartChar: asciicircum
Encoding: 94 94 42
Width: 1240
VWidth: 345
GlyphClass: 1
Flags: W
LayerCount: 2
Fore
SplineSet
936 591 m 1,0,-1
 944 553 l 2,1,2
 944 549 944 549 954.5 533.5 c 128,-1,3
 965 518 965 518 965 514 c 256,4,5
 965 510 965 510 948.5 507 c 128,-1,6
 932 504 932 504 926 504 c 2,7,-1
 865 504 l 2,8,9
 853 504 853 504 842.5 520.5 c 128,-1,10
 832 537 832 537 829 553 c 2,11,-1
 820 591 l 1,12,13
 703 591 703 591 605.5 600.5 c 128,-1,14
 508 610 508 610 467 616 c 0,15,16
 391 628 391 628 341.5 658 c 128,-1,17
 292 688 292 688 276 726 c 0,18,19
 267 745 267 745 246 802 c 128,-1,20
 225 859 225 859 201.5 920.5 c 128,-1,21
 178 982 178 982 157 1031.5 c 128,-1,22
 136 1081 136 1081 128 1085 c 0,23,24
 87 1099 87 1099 110 1115 c 1,25,26
 213 1124 213 1124 300 1118 c 0,27,28
 324 1117 324 1117 340.5 1083 c 128,-1,29
 357 1049 357 1049 370 1001 c 128,-1,30
 383 953 383 953 393 899 c 128,-1,31
 403 845 403 845 414 803 c 0,32,33
 435 718 435 718 465.5 687.5 c 128,-1,34
 496 657 496 657 570 637 c 0,35,36
 644 617 644 617 817 621 c 1,37,-1
 805 689 l 2,38,39
 804 694 804 694 795 702.5 c 128,-1,40
 786 711 786 711 786 716 c 0,41,42
 786 722 786 722 802 724 c 128,-1,43
 818 726 818 726 825 726 c 2,44,-1
 886 726 l 2,45,46
 897 726 897 726 907.5 710.5 c 128,-1,47
 918 695 918 695 922 677 c 2,48,-1
 932 621 l 1,49,50
 999 622 999 622 1023 626 c 128,-1,51
 1047 630 1047 630 1076 633 c 1,52,53
 1087 632 1087 632 1089 623.5 c 128,-1,54
 1091 615 1091 615 1084 607 c 0,55,56
 1074 598 1074 598 1043.5 594.5 c 128,-1,57
 1013 591 1013 591 936 591 c 1,0,-1
375 140 m 1,58,59
 337 126 337 126 246 142 c 1,60,61
 193 155 193 155 152.5 177 c 128,-1,62
 112 199 112 199 90 254 c 1,63,64
 75 307 75 307 80 338.5 c 128,-1,65
 85 370 85 370 115 412 c 1,66,67
 144 447 144 447 182.5 465 c 128,-1,68
 221 483 221 483 277 494 c 0,69,70
 333 505 333 505 368 505 c 128,-1,71
 403 505 403 505 444 503 c 0,72,73
 484 501 484 501 518.5 496.5 c 128,-1,74
 553 492 553 492 602 477 c 0,75,76
 683 455 683 455 762 416 c 0,77,78
 806 394 806 394 855.5 368.5 c 128,-1,79
 905 343 905 343 966 308 c 0,80,81
 994 291 994 291 1027.5 272 c 128,-1,82
 1061 253 1061 253 1099 233 c 1,83,84
 1128 215 1128 215 1156.5 196.5 c 128,-1,85
 1185 178 1185 178 1180.5 159.5 c 128,-1,86
 1176 141 1176 141 1159 142 c 128,-1,87
 1142 143 1142 143 1051.5 141 c 128,-1,88
 961 139 961 139 894 140 c 1,89,90
 867 160 867 160 894.5 169 c 128,-1,91
 922 178 922 178 936 191 c 0,92,93
 961 217 961 217 958 232 c 128,-1,94
 955 247 955 247 949.5 255.5 c 128,-1,95
 944 264 944 264 933 273.5 c 128,-1,96
 922 283 922 283 878.5 313 c 128,-1,97
 835 343 835 343 771 376 c 1,98,99
 713 401 713 401 680 417 c 128,-1,100
 647 433 647 433 573 453 c 1,101,102
 518 464 518 464 461 466.5 c 128,-1,103
 404 469 404 469 345 450 c 1,104,105
 304 432 304 432 287.5 419.5 c 128,-1,106
 271 407 271 407 250 375 c 0,107,108
 232 345 232 345 229.5 324 c 128,-1,109
 227 303 227 303 229 276 c 0,110,111
 230 248 230 248 235.5 235.5 c 128,-1,112
 241 223 241 223 249.5 210.5 c 128,-1,113
 258 198 258 198 271.5 187.5 c 128,-1,114
 285 177 285 177 313 172.5 c 128,-1,115
 341 168 341 168 368 165 c 0,116,117
 380 163 380 163 383.5 155 c 128,-1,118
 387 147 387 147 375 140 c 1,58,59
EndSplineSet
EndChar

StartChar: ampersand
Encoding: 38 38 43
Width: 1243
VWidth: 345
GlyphClass: 1
Flags: W
LayerCount: 2
Fore
SplineSet
936 591 m 1,0,-1
 944 553 l 2,1,2
 944 549 944 549 954.5 533.5 c 128,-1,3
 965 518 965 518 965 514 c 256,4,5
 965 510 965 510 948.5 507 c 128,-1,6
 932 504 932 504 926 504 c 2,7,-1
 865 504 l 2,8,9
 853 504 853 504 842.5 520.5 c 128,-1,10
 832 537 832 537 829 553 c 2,11,-1
 820 591 l 1,12,13
 703 591 703 591 605.5 600.5 c 128,-1,14
 508 610 508 610 467 616 c 0,15,16
 391 628 391 628 341.5 658 c 128,-1,17
 292 688 292 688 276 726 c 0,18,19
 267 745 267 745 246 802 c 128,-1,20
 225 859 225 859 201.5 920.5 c 128,-1,21
 178 982 178 982 157 1031.5 c 128,-1,22
 136 1081 136 1081 128 1085 c 0,23,24
 87 1099 87 1099 110 1115 c 1,25,26
 213 1124 213 1124 300 1118 c 0,27,28
 324 1117 324 1117 340.5 1083 c 128,-1,29
 357 1049 357 1049 370 1001 c 128,-1,30
 383 953 383 953 393 899 c 128,-1,31
 403 845 403 845 414 803 c 0,32,33
 435 718 435 718 465.5 687.5 c 128,-1,34
 496 657 496 657 570 637 c 128,-1,35
 644 617 644 617 817 621 c 1,36,-1
 805 689 l 2,37,38
 804 694 804 694 795 702.5 c 128,-1,39
 786 711 786 711 786 716 c 0,40,41
 786 722 786 722 802 724 c 128,-1,42
 818 726 818 726 825 726 c 2,43,-1
 886 726 l 2,44,45
 897 726 897 726 907.5 710.5 c 128,-1,46
 918 695 918 695 922 677 c 2,47,-1
 932 621 l 1,48,49
 999 622 999 622 1023 626 c 128,-1,50
 1047 630 1047 630 1076 633 c 1,51,52
 1087 632 1087 632 1089 623.5 c 128,-1,53
 1091 615 1091 615 1084 607 c 0,54,55
 1074 598 1074 598 1043.5 594.5 c 128,-1,56
 1013 591 1013 591 936 591 c 1,0,-1
375 140 m 1,57,58
 337 126 337 126 246 142 c 1,59,60
 193 155 193 155 152.5 177 c 128,-1,61
 112 199 112 199 90 254 c 1,62,63
 75 307 75 307 80 338.5 c 128,-1,64
 85 370 85 370 115 412 c 1,65,66
 144 447 144 447 182.5 465 c 128,-1,67
 221 483 221 483 277 494 c 128,-1,68
 333 505 333 505 368 505 c 128,-1,69
 403 505 403 505 444 503 c 0,70,71
 484 501 484 501 518.5 496.5 c 128,-1,72
 553 492 553 492 602 477 c 0,73,74
 683 455 683 455 762 416 c 0,75,76
 806 394 806 394 855.5 368.5 c 128,-1,77
 905 343 905 343 966 308 c 0,78,79
 994 291 994 291 1027.5 272 c 128,-1,80
 1061 253 1061 253 1099 233 c 1,81,82
 1128 215 1128 215 1156.5 196.5 c 128,-1,83
 1185 178 1185 178 1180.5 159.5 c 128,-1,84
 1176 141 1176 141 1159 142 c 128,-1,85
 1142 143 1142 143 1051.5 141 c 128,-1,86
 961 139 961 139 894 140 c 1,87,88
 867 160 867 160 894.5 169 c 128,-1,89
 922 178 922 178 936 191 c 0,90,91
 961 217 961 217 958 232 c 128,-1,92
 955 247 955 247 949.5 255.5 c 128,-1,93
 944 264 944 264 933 273.5 c 128,-1,94
 922 283 922 283 878.5 313 c 128,-1,95
 835 343 835 343 771 376 c 1,96,97
 713 401 713 401 680 417 c 128,-1,98
 647 433 647 433 573 453 c 1,99,100
 518 464 518 464 461 466.5 c 128,-1,101
 404 469 404 469 345 450 c 1,102,103
 304 432 304 432 287.5 419.5 c 128,-1,104
 271 407 271 407 250 375 c 0,105,106
 232 345 232 345 229.5 324 c 128,-1,107
 227 303 227 303 229 276 c 0,108,109
 230 248 230 248 235.5 235.5 c 128,-1,110
 241 223 241 223 249.5 210.5 c 128,-1,111
 258 198 258 198 271.5 187.5 c 128,-1,112
 285 177 285 177 313 172.5 c 128,-1,113
 341 168 341 168 368 165 c 0,114,115
 380 163 380 163 383.5 155 c 128,-1,116
 387 147 387 147 375 140 c 1,57,58
581 35 m 1,117,118
 571 43 571 43 579.5 50 c 128,-1,119
 588 57 588 57 602 57 c 0,120,121
 617 57 617 57 643 83.5 c 128,-1,122
 669 110 669 110 678 149 c 0,123,124
 692 215 692 215 609 258 c 0,125,126
 577 273 577 273 529 285 c 128,-1,127
 481 297 481 297 434 306 c 128,-1,128
 387 315 387 315 351 320.5 c 128,-1,129
 315 326 315 326 309 329 c 0,130,131
 296 334 296 334 299 342 c 128,-1,132
 302 350 302 350 312 350 c 0,133,134
 317 350 317 350 352.5 346 c 128,-1,135
 388 342 388 342 437.5 333.5 c 128,-1,136
 487 325 487 325 541.5 312.5 c 0,137,138
 596 301 596 301 641 283 c 0,139,140
 694 262 694 262 726 241 c 128,-1,141
 758 220 758 220 784 184 c 128,-1,142
 810 148 810 148 806 113 c 128,-1,143
 802 78 802 78 776 58 c 0,144,145
 752 40 752 40 720 34 c 128,-1,146
 688 28 688 28 660 28 c 256,147,148
 632 28 632 28 620.5 28.5 c 128,-1,149
 609 29 609 29 581 35 c 1,117,118
EndSplineSet
EndChar

StartChar: asterisk
Encoding: 42 42 44
Width: 1107
VWidth: 345
GlyphClass: 1
Flags: W
LayerCount: 2
Fore
SplineSet
899 290 m 1,0,-1
 908 252 l 2,1,2
 908 248 908 248 918.5 232.5 c 128,-1,3
 929 217 929 217 929 213 c 256,4,5
 929 209 929 209 912.5 206 c 128,-1,6
 896 203 896 203 890 203 c 2,7,-1
 829 203 l 2,8,9
 817 203 817 203 806.5 220 c 128,-1,10
 796 237 796 237 793 252 c 2,11,-1
 785 290 l 1,12,13
 668 290 668 290 570 299.5 c 128,-1,14
 472 309 472 309 431 316 c 0,15,16
 355 328 355 328 305.5 358 c 128,-1,17
 256 388 256 388 240 426 c 0,18,19
 232 445 232 445 211 482.5 c 128,-1,20
 190 520 190 520 167 558 c 128,-1,21
 144 596 144 596 123.5 626 c 128,-1,22
 103 656 103 656 95 659 c 0,23,24
 54 673 54 673 77 690 c 1,25,26
 127 694 127 694 173 695.5 c 128,-1,27
 219 697 219 697 267 693 c 0,28,29
 315 690 315 690 335.5 638 c 128,-1,30
 356 586 356 586 377 502 c 0,31,32
 398 418 398 418 428.5 387.5 c 128,-1,33
 459 357 459 357 534 337 c 0,34,35
 610 316 610 316 781 320 c 1,36,-1
 769 389 l 2,37,38
 768 394 768 394 759 402 c 128,-1,39
 750 410 750 410 750 415 c 0,40,41
 750 421 750 421 766 423 c 128,-1,42
 782 425 782 425 789 425 c 2,43,-1
 850 425 l 2,44,45
 861 425 861 425 871.5 409.5 c 128,-1,46
 882 394 882 394 886 376 c 2,47,-1
 896 321 l 1,48,49
 963 322 963 322 987 325.5 c 128,-1,50
 1011 329 1011 329 1040 333 c 1,51,52
 1051 332 1051 332 1053 323 c 128,-1,53
 1055 314 1055 314 1048 306 c 0,54,55
 1038 298 1038 298 1007 294 c 128,-1,56
 976 290 976 290 899 290 c 1,0,-1
899 711 m 1,57,-1
 908 673 l 2,58,59
 908 669 908 669 918.5 653.5 c 128,-1,60
 929 638 929 638 929 634 c 0,61,62
 929 630 929 630 912.5 626.5 c 128,-1,63
 896 623 896 623 890 623 c 2,64,-1
 829 623 l 2,65,66
 817 623 817 623 806.5 640 c 128,-1,67
 796 657 796 657 793 673 c 2,68,-1
 785 711 l 1,69,70
 668 711 668 711 570 720 c 128,-1,71
 472 729 472 729 431 736 c 0,72,73
 355 748 355 748 305.5 778 c 128,-1,74
 256 808 256 808 240 846 c 0,75,76
 232 865 232 865 211 902.5 c 128,-1,77
 190 940 190 940 167 978 c 128,-1,78
 144 1016 144 1016 123.5 1046 c 128,-1,79
 103 1076 103 1076 95 1080 c 0,80,81
 53 1094 53 1094 77 1111 c 1,82,83
 127 1115 127 1115 173 1116 c 128,-1,84
 219 1117 219 1117 267 1113 c 0,85,86
 315 1110 315 1110 335.5 1058.5 c 128,-1,87
 356 1007 356 1007 377 923 c 0,88,89
 398 838 398 838 428.5 807.5 c 128,-1,90
 459 777 459 777 534 758 c 0,91,92
 610 737 610 737 781 741 c 1,93,-1
 769 809 l 2,94,95
 768 814 768 814 759 822.5 c 128,-1,96
 750 831 750 831 750 836 c 0,97,98
 750 842 750 842 766 844 c 128,-1,99
 782 846 782 846 789 846 c 2,100,-1
 850 846 l 2,101,102
 861 846 861 846 871.5 830.5 c 128,-1,103
 882 815 882 815 886 797 c 2,104,-1
 896 741 l 1,105,106
 963 742 963 742 987 745.5 c 128,-1,107
 1011 749 1011 749 1040 753 c 1,108,109
 1051 752 1051 752 1053 743 c 128,-1,110
 1055 734 1055 734 1048 727 c 0,111,112
 1038 719 1038 719 1007 715 c 128,-1,113
 976 711 976 711 899 711 c 1,57,-1
EndSplineSet
EndChar

StartChar: parenleft
Encoding: 40 40 45
Width: 1107
VWidth: 345
GlyphClass: 1
Flags: W
LayerCount: 2
Fore
SplineSet
899 290 m 1,0,-1
 908 252 l 2,1,2
 908 248 908 248 918.5 232.5 c 128,-1,3
 929 217 929 217 929 213 c 256,4,5
 929 209 929 209 912.5 206 c 128,-1,6
 896 203 896 203 890 203 c 2,7,-1
 829 203 l 2,8,9
 817 203 817 203 806.5 220 c 128,-1,10
 796 237 796 237 793 252 c 2,11,-1
 785 290 l 1,12,13
 668 290 668 290 570 299.5 c 128,-1,14
 472 309 472 309 431 316 c 0,15,16
 355 328 355 328 305.5 358 c 128,-1,17
 256 388 256 388 240 426 c 0,18,19
 232 445 232 445 211 482.5 c 128,-1,20
 190 520 190 520 167 558 c 128,-1,21
 144 596 144 596 123.5 626 c 128,-1,22
 103 656 103 656 95 659 c 0,23,24
 54 673 54 673 77 690 c 1,25,26
 127 694 127 694 173 695.5 c 128,-1,27
 219 697 219 697 267 693 c 0,28,29
 315 690 315 690 335.5 638 c 128,-1,30
 356 586 356 586 377 502 c 0,31,32
 398 418 398 418 428.5 387.5 c 128,-1,33
 459 357 459 357 534 337 c 0,34,35
 610 316 610 316 781 320 c 1,36,-1
 769 389 l 2,37,38
 768 394 768 394 759 402 c 128,-1,39
 750 410 750 410 750 415 c 0,40,41
 750 421 750 421 766 423 c 128,-1,42
 782 425 782 425 789 425 c 2,43,-1
 850 425 l 2,44,45
 861 425 861 425 871.5 409.5 c 128,-1,46
 882 394 882 394 886 376 c 2,47,-1
 896 321 l 1,48,49
 963 322 963 322 987 325.5 c 128,-1,50
 1011 329 1011 329 1040 333 c 1,51,52
 1051 332 1051 332 1053 323 c 128,-1,53
 1055 314 1055 314 1048 306 c 0,54,55
 1038 298 1038 298 1007 294 c 128,-1,56
 976 290 976 290 899 290 c 1,0,-1
899 711 m 1,57,-1
 908 673 l 2,58,59
 908 669 908 669 918.5 653.5 c 128,-1,60
 929 638 929 638 929 634 c 0,61,62
 929 630 929 630 912.5 626.5 c 128,-1,63
 896 623 896 623 890 623 c 2,64,-1
 829 623 l 2,65,66
 817 623 817 623 806.5 640 c 128,-1,67
 796 657 796 657 793 673 c 2,68,-1
 785 711 l 1,69,70
 668 711 668 711 570 720 c 128,-1,71
 472 729 472 729 431 736 c 0,72,73
 355 748 355 748 305.5 778 c 128,-1,74
 256 808 256 808 240 846 c 0,75,76
 232 865 232 865 211 902.5 c 128,-1,77
 190 940 190 940 167 978 c 128,-1,78
 144 1016 144 1016 123.5 1046 c 128,-1,79
 103 1076 103 1076 95 1080 c 0,80,81
 53 1094 53 1094 77 1111 c 1,82,83
 127 1115 127 1115 173 1116 c 128,-1,84
 219 1117 219 1117 267 1113 c 0,85,86
 315 1110 315 1110 335.5 1058.5 c 128,-1,87
 356 1007 356 1007 377 923 c 0,88,89
 398 838 398 838 428.5 807.5 c 128,-1,90
 459 777 459 777 534 758 c 0,91,92
 610 737 610 737 781 741 c 1,93,-1
 769 809 l 2,94,95
 768 814 768 814 759 822.5 c 128,-1,96
 750 831 750 831 750 836 c 0,97,98
 750 842 750 842 766 844 c 128,-1,99
 782 846 782 846 789 846 c 2,100,-1
 850 846 l 2,101,102
 861 846 861 846 871.5 830.5 c 128,-1,103
 882 815 882 815 886 797 c 2,104,-1
 896 741 l 1,105,106
 963 742 963 742 987 745.5 c 128,-1,107
 1011 749 1011 749 1040 753 c 1,108,109
 1051 752 1051 752 1053 743 c 128,-1,110
 1055 734 1055 734 1048 727 c 0,111,112
 1038 719 1038 719 1007 715 c 128,-1,113
 976 711 976 711 899 711 c 1,57,-1
592 -85 m 1,114,115
 582 -78 582 -78 590.5 -71 c 128,-1,116
 599 -64 599 -64 612 -64 c 0,117,118
 627 -64 627 -64 653.5 -37.5 c 128,-1,119
 680 -11 680 -11 688 28 c 0,120,121
 702 94 702 94 620 136 c 0,122,123
 589 151 589 151 540.5 163 c 128,-1,124
 492 175 492 175 445.5 184 c 128,-1,125
 399 193 399 193 363.5 198.5 c 128,-1,126
 328 204 328 204 322 207 c 0,127,128
 309 211 309 211 312 219.5 c 128,-1,129
 315 228 315 228 325 228 c 0,130,131
 335 228 335 228 449 211.5 c 128,-1,132
 563 195 563 195 651 160 c 0,133,134
 704 139 704 139 736 118.5 c 128,-1,135
 768 98 768 98 794 63 c 0,136,137
 820 28 820 28 816 -7.5 c 128,-1,138
 812 -43 812 -43 786 -62 c 0,139,140
 762 -80 762 -80 730.5 -86.5 c 128,-1,141
 699 -93 699 -93 671 -93 c 256,142,143
 643 -93 643 -93 631.5 -92.5 c 128,-1,144
 620 -92 620 -92 592 -85 c 1,114,115
EndSplineSet
EndChar

StartChar: percent
Encoding: 37 37 46
Width: 1113
VWidth: 345
GlyphClass: 1
Flags: W
LayerCount: 2
Fore
SplineSet
905 290 m 1,0,-1
 914 252 l 2,1,2
 915 248 915 248 925 232.5 c 128,-1,3
 935 217 935 217 935 213 c 256,4,5
 935 209 935 209 918.5 206 c 128,-1,6
 902 203 902 203 896 203 c 2,7,-1
 835 203 l 2,8,9
 823 203 823 203 812.5 220 c 128,-1,10
 802 237 802 237 799 252 c 2,11,-1
 791 290 l 1,12,13
 674 290 674 290 576.5 299.5 c 0,14,15
 480 309 480 309 438 316 c 0,16,17
 284 340 284 340 246 426 c 0,18,19
 237 445 237 445 216 502 c 128,-1,20
 195 559 195 559 171.5 620 c 128,-1,21
 148 681 148 681 127 730.5 c 128,-1,22
 106 780 106 780 98 784 c 0,23,24
 57 798 57 798 80 815 c 1,25,26
 131 819 131 819 176.5 820 c 128,-1,27
 222 821 222 821 271 817 c 0,28,29
 295 816 295 816 311.5 782 c 128,-1,30
 328 748 328 748 340.5 700 c 128,-1,31
 353 652 353 652 363 598 c 128,-1,32
 373 544 373 544 383 502 c 0,33,34
 404 418 404 418 435 387.5 c 128,-1,35
 466 357 466 357 541 337 c 0,36,37
 617 317 617 317 788 320 c 1,38,-1
 775 389 l 2,39,40
 774 394 774 394 765 402 c 128,-1,41
 756 410 756 410 756 415 c 0,42,43
 756 421 756 421 772.5 423 c 128,-1,44
 789 425 789 425 795 425 c 2,45,-1
 856 425 l 2,46,47
 867 425 867 425 877.5 409.5 c 128,-1,48
 888 394 888 394 892 376 c 2,49,-1
 902 321 l 1,50,51
 969 322 969 322 993.5 325.5 c 128,-1,52
 1018 329 1018 329 1045 333 c 1,53,54
 1056 332 1056 332 1058.5 323 c 128,-1,55
 1061 314 1061 314 1054 306 c 0,56,57
 1044 298 1044 298 1013 294 c 128,-1,58
 982 290 982 290 905 290 c 1,0,-1
592 -85 m 1,59,60
 582 -78 582 -78 590.5 -71 c 128,-1,61
 599 -64 599 -64 612 -64 c 0,62,63
 627 -64 627 -64 653.5 -37.5 c 128,-1,64
 680 -11 680 -11 688 28 c 0,65,66
 702 94 702 94 620 136 c 0,67,68
 589 151 589 151 540.5 163 c 128,-1,69
 492 175 492 175 445.5 184 c 128,-1,70
 399 193 399 193 363.5 198.5 c 128,-1,71
 328 204 328 204 322 207 c 0,72,73
 309 211 309 211 312 219.5 c 128,-1,74
 315 228 315 228 325 228 c 128,-1,75
 335 228 335 228 449 211.5 c 128,-1,76
 563 195 563 195 651 160 c 0,77,78
 704 139 704 139 736 118.5 c 128,-1,79
 768 98 768 98 794 63 c 128,-1,80
 820 28 820 28 816 -7.5 c 128,-1,81
 812 -43 812 -43 786 -62 c 0,82,83
 762 -80 762 -80 730.5 -86.5 c 128,-1,84
 699 -93 699 -93 671 -93 c 256,85,86
 643 -93 643 -93 631.5 -92.5 c 128,-1,87
 620 -92 620 -92 592 -85 c 1,59,60
EndSplineSet
EndChar

StartChar: dollar
Encoding: 36 36 47
Width: 1113
VWidth: 345
GlyphClass: 1
Flags: W
LayerCount: 2
Fore
SplineSet
905 290 m 1,0,-1
 914 252 l 2,1,2
 915 248 915 248 925 232.5 c 128,-1,3
 935 217 935 217 935 213 c 256,4,5
 935 209 935 209 918.5 206 c 128,-1,6
 902 203 902 203 896 203 c 2,7,-1
 835 203 l 2,8,9
 823 203 823 203 812.5 220 c 128,-1,10
 802 237 802 237 799 252 c 2,11,-1
 791 290 l 1,12,13
 674 290 674 290 576.5 299.5 c 0,14,15
 480 309 480 309 438 316 c 0,16,17
 284 340 284 340 246 426 c 0,18,19
 237 445 237 445 216 502 c 128,-1,20
 195 559 195 559 171.5 620 c 128,-1,21
 148 681 148 681 127 730.5 c 128,-1,22
 106 780 106 780 98 784 c 0,23,24
 57 798 57 798 80 815 c 1,25,26
 131 819 131 819 176.5 820 c 128,-1,27
 222 821 222 821 271 817 c 0,28,29
 295 816 295 816 311.5 782 c 128,-1,30
 328 748 328 748 340.5 700 c 128,-1,31
 353 652 353 652 363 598 c 128,-1,32
 373 544 373 544 383 502 c 0,33,34
 404 418 404 418 435 387.5 c 128,-1,35
 466 357 466 357 541 337 c 0,36,37
 617 317 617 317 788 320 c 1,38,-1
 775 389 l 2,39,40
 774 394 774 394 765 402 c 128,-1,41
 756 410 756 410 756 415 c 0,42,43
 756 421 756 421 772.5 423 c 128,-1,44
 789 425 789 425 795 425 c 2,45,-1
 856 425 l 2,46,47
 867 425 867 425 877.5 409.5 c 128,-1,48
 888 394 888 394 892 376 c 2,49,-1
 902 321 l 1,50,51
 969 322 969 322 993.5 325.5 c 128,-1,52
 1018 329 1018 329 1045 333 c 1,53,54
 1056 332 1056 332 1058.5 323 c 128,-1,55
 1061 314 1061 314 1054 306 c 0,56,57
 1044 298 1044 298 1013 294 c 128,-1,58
 982 290 982 290 905 290 c 1,0,-1
EndSplineSet
EndChar

StartChar: W
Encoding: 87 87 48
Width: 1242
VWidth: 345
GlyphClass: 1
Flags: W
LayerCount: 2
Fore
SplineSet
375 595 m 1,0,1
 337 581 337 581 246 596 c 1,2,3
 193 609 193 609 152.5 631 c 128,-1,4
 112 653 112 653 90 708 c 1,5,6
 75 761 75 761 80 792.5 c 128,-1,7
 85 824 85 824 115 866 c 1,8,9
 144 901 144 901 182.5 919 c 128,-1,10
 221 937 221 937 277 949 c 0,11,12
 333 960 333 960 368 959.5 c 128,-1,13
 403 959 403 959 444 957 c 0,14,15
 484 955 484 955 518.5 950.5 c 128,-1,16
 553 946 553 946 602 931 c 0,17,18
 683 909 683 909 762 870 c 0,19,20
 806 848 806 848 855.5 822.5 c 128,-1,21
 905 797 905 797 966 762 c 0,22,23
 994 745 994 745 1027.5 726 c 128,-1,24
 1061 707 1061 707 1099 687 c 1,25,26
 1128 669 1128 669 1156.5 650.5 c 128,-1,27
 1185 632 1185 632 1180.5 613.5 c 128,-1,28
 1176 595 1176 595 1159 596 c 128,-1,29
 1142 597 1142 597 1051.5 595 c 128,-1,30
 961 593 961 593 894 595 c 1,31,32
 867 615 867 615 894.5 623.5 c 128,-1,33
 922 632 922 632 936 645 c 0,34,35
 961 671 961 671 958 686 c 128,-1,36
 955 701 955 701 949.5 709.5 c 128,-1,37
 944 718 944 718 933 728 c 128,-1,38
 922 738 922 738 878.5 767.5 c 128,-1,39
 835 797 835 797 771 830 c 1,40,41
 713 855 713 855 680 871 c 128,-1,42
 647 887 647 887 573 907 c 1,43,44
 518 918 518 918 461 920.5 c 128,-1,45
 404 923 404 923 345 904 c 1,46,47
 304 886 304 886 287.5 873.5 c 128,-1,48
 271 861 271 861 250 829 c 0,49,50
 232 799 232 799 229.5 778.5 c 128,-1,51
 227 758 227 758 229 730 c 0,52,53
 230 702 230 702 235.5 690 c 128,-1,54
 241 678 241 678 249.5 665 c 128,-1,55
 258 652 258 652 271.5 641.5 c 128,-1,56
 285 631 285 631 313 626.5 c 128,-1,57
 341 622 341 622 368 619 c 0,58,59
 380 617 380 617 383.5 609.5 c 128,-1,60
 387 602 387 602 375 595 c 1,0,1
885 498 m 1,61,62
 923 512 923 512 1014 496 c 1,63,64
 1067 483 1067 483 1107.5 461 c 128,-1,65
 1148 439 1148 439 1170 384 c 1,66,67
 1185 330 1185 330 1180 299 c 128,-1,68
 1175 268 1175 268 1145 226 c 1,69,70
 1116 191 1116 191 1077.5 173.5 c 128,-1,71
 1039 156 1039 156 982 144 c 0,72,73
 926 133 926 133 891 133.5 c 128,-1,74
 856 134 856 134 816 135 c 0,75,76
 776 137 776 137 741.5 141.5 c 128,-1,77
 707 146 707 146 658 161 c 0,78,79
 577 183 577 183 498 222 c 0,80,81
 454 244 454 244 404 269.5 c 128,-1,82
 354 295 354 295 293 330 c 0,83,84
 265 347 265 347 232 366.5 c 128,-1,85
 199 386 199 386 161 406 c 1,86,87
 132 424 132 424 103.5 442.5 c 128,-1,88
 75 461 75 461 79.5 479 c 128,-1,89
 84 497 84 497 101 496 c 128,-1,90
 118 495 118 495 208 497 c 128,-1,91
 298 499 298 499 366 498 c 1,92,93
 393 478 393 478 365 469.5 c 128,-1,94
 337 461 337 461 324 448 c 0,95,96
 299 422 299 422 302 406.5 c 128,-1,97
 305 391 305 391 310 382.5 c 128,-1,98
 315 374 315 374 326 364.5 c 128,-1,99
 337 355 337 355 380.5 325 c 128,-1,100
 424 295 424 295 489 262 c 1,101,102
 547 237 547 237 580 221 c 128,-1,103
 613 205 613 205 687 185 c 1,104,105
 742 174 742 174 799 171.5 c 128,-1,106
 856 169 856 169 915 188 c 1,107,108
 956 206 956 206 972.5 219 c 128,-1,109
 989 232 989 232 1010 263 c 0,110,111
 1028 293 1028 293 1030.5 314 c 128,-1,112
 1033 335 1033 335 1031 362 c 0,113,114
 1030 390 1030 390 1024.5 402.5 c 128,-1,115
 1019 415 1019 415 1010 428 c 128,-1,116
 1001 441 1001 441 988 451.5 c 128,-1,117
 975 462 975 462 947 466 c 128,-1,118
 919 470 919 470 892 473 c 0,119,120
 880 475 880 475 876.5 483 c 128,-1,121
 873 491 873 491 885 498 c 1,61,62
EndSplineSet
EndChar

StartChar: q
Encoding: 113 113 49
Width: 1243
VWidth: 345
GlyphClass: 1
Flags: W
LayerCount: 2
Fore
SplineSet
885 498 m 1,0,1
 923 512 923 512 1014 496 c 1,2,3
 1067 482 1067 482 1107.5 460.5 c 128,-1,4
 1148 439 1148 439 1170 384 c 1,5,6
 1185 331 1185 331 1180 299 c 128,-1,7
 1175 267 1175 267 1145 226 c 1,8,9
 1116 191 1116 191 1077.5 173.5 c 128,-1,10
 1039 156 1039 156 982 144 c 0,11,12
 926 133 926 133 891 133.5 c 128,-1,13
 856 134 856 134 816 135 c 0,14,15
 776 137 776 137 741.5 141.5 c 128,-1,16
 707 146 707 146 658 161 c 0,17,18
 577 183 577 183 498 222 c 0,19,20
 454 244 454 244 404 269.5 c 128,-1,21
 354 295 354 295 293 330 c 0,22,23
 265 347 265 347 232 366.5 c 128,-1,24
 199 386 199 386 161 406 c 1,25,26
 132 424 132 424 103.5 442.5 c 128,-1,27
 75 461 75 461 79.5 479.5 c 128,-1,28
 84 498 84 498 101 497 c 128,-1,29
 118 496 118 496 208 497.5 c 128,-1,30
 298 499 298 499 366 498 c 1,31,32
 393 478 393 478 365 469.5 c 128,-1,33
 337 461 337 461 324 448 c 0,34,35
 299 422 299 422 302 406.5 c 128,-1,36
 305 391 305 391 310 382.5 c 128,-1,37
 315 374 315 374 326 364.5 c 128,-1,38
 337 355 337 355 380.5 325 c 128,-1,39
 424 295 424 295 489 262 c 1,40,41
 547 237 547 237 580 221 c 128,-1,42
 613 205 613 205 687 185 c 1,43,44
 742 174 742 174 799 171.5 c 128,-1,45
 856 169 856 169 915 188 c 1,46,47
 956 206 956 206 972.5 219 c 128,-1,48
 989 232 989 232 1010 263 c 0,49,50
 1028 293 1028 293 1030.5 314 c 128,-1,51
 1033 335 1033 335 1031 362 c 0,52,53
 1030 390 1030 390 1024.5 402.5 c 128,-1,54
 1019 415 1019 415 1010 428 c 128,-1,55
 1001 441 1001 441 988 451.5 c 128,-1,56
 975 462 975 462 947 466 c 128,-1,57
 919 470 919 470 892 473 c 0,58,59
 880 475 880 475 876.5 483 c 128,-1,60
 873 491 873 491 885 498 c 1,0,1
EndSplineSet
EndChar

StartChar: plus
Encoding: 43 43 50
Width: 457
VWidth: 345
GlyphClass: 1
Flags: W
LayerCount: 2
Fore
SplineSet
286 276 m 1,0,-1
 286 140 l 2,1,2
 286 125 286 125 271 126 c 2,3,-1
 254 126 l 2,4,5
 240 126 240 126 240 140 c 2,6,-1
 240 276 l 1,7,-1
 105 276 l 2,8,9
 90 276 90 276 90 290 c 2,10,-1
 90 307 l 2,11,12
 90 321 90 321 105 321 c 2,13,-1
 241 321 l 1,14,-1
 240 456 l 2,15,16
 240 471 240 471 254 471 c 2,17,-1
 271 471 l 2,18,19
 285 471 285 471 286 456 c 2,20,-1
 286 321 l 1,21,-1
 421 321 l 2,22,23
 436 321 436 321 436 307 c 2,24,-1
 436 290 l 2,25,26
 436 276 436 276 421 276 c 2,27,-1
 286 276 l 1,0,-1
EndSplineSet
EndChar

StartChar: w
Encoding: 119 119 51
Width: 1367
VWidth: 345
GlyphClass: 1
Flags: W
LayerCount: 2
Fore
SplineSet
75 766.5 m 128,-1,1
 80 774 80 774 85.5 774.5 c 128,-1,2
 91 775 91 775 98 771 c 128,-1,3
 105 767 105 767 115 762 c 128,-1,4
 125 757 125 757 141.5 753.5 c 128,-1,5
 158 750 158 750 187 750 c 2,6,-1
 1125 750 l 2,7,8
 1152 750 1152 750 1173.5 745.5 c 128,-1,9
 1195 741 1195 741 1213 731.5 c 128,-1,10
 1231 722 1231 722 1241 714.5 c 128,-1,11
 1251 707 1251 707 1268.5 689.5 c 128,-1,12
 1286 672 1286 672 1298 654.5 c 128,-1,13
 1310 637 1310 637 1303 621 c 0,14,15
 1296 609 1296 609 1286 616 c 128,-1,16
 1276 623 1276 623 1262.5 628 c 128,-1,17
 1249 633 1249 633 1233.5 634.5 c 128,-1,18
 1218 636 1218 636 1186 636 c 2,19,-1
 260 636 l 2,20,21
 238 636 238 636 220.5 639 c 128,-1,22
 203 642 203 642 193 645.5 c 128,-1,23
 183 649 183 649 172 654 c 128,-1,24
 161 659 161 659 148.5 667.5 c 128,-1,25
 136 676 136 676 121.5 690.5 c 128,-1,26
 107 705 107 705 92.5 724 c 128,-1,27
 78 743 78 743 74 751 c 128,-1,0
 70 759 70 759 75 766.5 c 128,-1,1
958 498 m 1,28,29
 996 512 996 512 1087 496 c 1,30,31
 1140 482 1140 482 1180.5 460.5 c 128,-1,32
 1221 439 1221 439 1243 384 c 1,33,34
 1258 331 1258 331 1253 299 c 128,-1,35
 1248 267 1248 267 1218 226 c 1,36,37
 1189 191 1189 191 1150.5 173.5 c 128,-1,38
 1112 156 1112 156 1056 144 c 0,39,40
 1000 133 1000 133 965 133.5 c 128,-1,41
 930 134 930 134 889 135 c 0,42,43
 849 137 849 137 814.5 141.5 c 128,-1,44
 780 146 780 146 731 161 c 0,45,46
 650 183 650 183 571 222 c 0,47,48
 527 244 527 244 477.5 269.5 c 128,-1,49
 428 295 428 295 367 330 c 0,50,51
 339 347 339 347 305.5 366.5 c 128,-1,52
 272 386 272 386 234 406 c 1,53,54
 205 424 205 424 176.5 442.5 c 128,-1,55
 148 461 148 461 152.5 479.5 c 128,-1,56
 157 498 157 498 174 497 c 128,-1,57
 191 496 191 496 281.5 497.5 c 128,-1,58
 372 499 372 499 439 498 c 1,59,60
 466 478 466 478 438.5 469.5 c 128,-1,61
 411 461 411 461 397 448 c 0,62,63
 372 422 372 422 375 406.5 c 128,-1,64
 378 391 378 391 383.5 382.5 c 128,-1,65
 389 374 389 374 400 364.5 c 128,-1,66
 411 355 411 355 454.5 325 c 128,-1,67
 498 295 498 295 562 262 c 1,68,69
 620 237 620 237 653 221 c 128,-1,70
 686 205 686 205 760 185 c 1,71,72
 815 174 815 174 872 171.5 c 128,-1,73
 929 169 929 169 988 188 c 1,74,75
 1029 206 1029 206 1045.5 219 c 128,-1,76
 1062 232 1062 232 1083 263 c 0,77,78
 1101 293 1101 293 1103.5 314 c 128,-1,79
 1106 335 1106 335 1104 362 c 0,80,81
 1103 390 1103 390 1097.5 402.5 c 128,-1,82
 1092 415 1092 415 1083.5 428 c 128,-1,83
 1075 441 1075 441 1061.5 451.5 c 128,-1,84
 1048 462 1048 462 1020 466 c 128,-1,85
 992 470 992 470 965 473 c 0,86,87
 953 475 953 475 949.5 483 c 128,-1,88
 946 491 946 491 958 498 c 1,28,29
EndSplineSet
EndChar

StartChar: t
Encoding: 116 116 52
Width: 1236
VWidth: 345
GlyphClass: 1
Flags: W
LayerCount: 2
Fore
SplineSet
880 498 m 1,0,1
 918 512 918 512 1009 496 c 1,2,3
 1062 482 1062 482 1102.5 460.5 c 128,-1,4
 1143 439 1143 439 1165 384 c 1,5,6
 1180 331 1180 331 1175 299 c 128,-1,7
 1170 267 1170 267 1140 226 c 1,8,9
 1111 191 1111 191 1072.5 173.5 c 128,-1,10
 1034 156 1034 156 978 144 c 0,11,12
 922 133 922 133 887 133.5 c 128,-1,13
 852 134 852 134 811 135 c 0,14,15
 771 137 771 137 736.5 141.5 c 128,-1,16
 702 146 702 146 653 161 c 0,17,18
 572 183 572 183 493 222 c 0,19,20
 449 244 449 244 399.5 269.5 c 128,-1,21
 350 295 350 295 289 330 c 0,22,23
 261 347 261 347 227.5 366.5 c 128,-1,24
 194 386 194 386 156 406 c 1,25,26
 127 424 127 424 98.5 442.5 c 128,-1,27
 70 461 70 461 74.5 479.5 c 128,-1,28
 79 498 79 498 96 497 c 128,-1,29
 113 496 113 496 203 497.5 c 128,-1,30
 293 499 293 499 361 498 c 1,31,32
 388 478 388 478 360.5 469.5 c 128,-1,33
 333 461 333 461 319 448 c 0,34,35
 294 422 294 422 297 406.5 c 128,-1,36
 300 391 300 391 305.5 382.5 c 128,-1,37
 311 374 311 374 322 364.5 c 128,-1,38
 333 355 333 355 376 325 c 128,-1,39
 419 295 419 295 484 262 c 1,40,41
 542 237 542 237 575 221 c 128,-1,42
 608 205 608 205 682 185 c 1,43,44
 737 174 737 174 794 171.5 c 128,-1,45
 851 169 851 169 910 188 c 1,46,47
 951 206 951 206 967.5 219 c 128,-1,48
 984 232 984 232 1005 263 c 0,49,50
 1023 293 1023 293 1025.5 314 c 128,-1,51
 1028 335 1028 335 1026 362 c 0,52,53
 1025 390 1025 390 1019.5 402.5 c 128,-1,54
 1014 415 1014 415 1005.5 428 c 128,-1,55
 997 441 997 441 983.5 451.5 c 128,-1,56
 970 462 970 462 942 466 c 128,-1,57
 914 470 914 470 887 473 c 0,58,59
 875 475 875 475 871.5 483 c 128,-1,60
 868 491 868 491 880 498 c 1,0,1
666 1222 m 1,61,62
 682 1219 682 1219 680 1205.5 c 128,-1,63
 678 1192 678 1192 659 1190 c 1,64,65
 638 1183 638 1183 625.5 1137.5 c 128,-1,66
 613 1092 613 1092 598 1041 c 0,67,68
 564 922 564 922 536 848 c 128,-1,69
 508 774 508 774 483 744 c 128,-1,70
 458 714 458 714 423 699 c 0,71,72
 369 676 369 676 316.5 664.5 c 128,-1,73
 264 653 264 653 225 653 c 1,74,75
 244 608 244 608 289 590.5 c 128,-1,76
 334 573 334 573 315 553 c 0,77,78
 304 542 304 542 246 582 c 128,-1,79
 188 622 188 622 166 661 c 1,80,81
 166 686 166 686 186.5 682 c 128,-1,82
 207 678 207 678 230 676 c 256,83,84
 253 675 253 675 277.5 678.5 c 128,-1,85
 302 682 302 682 343 703 c 0,86,87
 363 713 363 713 381 748.5 c 128,-1,88
 399 784 399 784 413.5 827.5 c 128,-1,89
 428 871 428 871 438 913.5 c 128,-1,90
 448 956 448 956 464 1036 c 128,-1,91
 480 1116 480 1116 492 1143 c 128,-1,92
 504 1170 504 1170 525.5 1186.5 c 128,-1,93
 547 1203 547 1203 566.5 1208 c 128,-1,94
 586 1213 586 1213 610 1215.5 c 128,-1,95
 634 1218 634 1218 666 1222 c 1,61,62
EndSplineSet
EndChar

StartChar: Q
Encoding: 81 81 53
Width: 1236
VWidth: 345
GlyphClass: 1
Flags: W
LayerCount: 2
Fore
SplineSet
533 463 m 1,0,1
 522 472 522 472 532 479.5 c 128,-1,2
 542 487 542 487 557 487 c 0,3,4
 573 487 573 487 602.5 516 c 128,-1,5
 632 545 632 545 641 589 c 0,6,7
 656 663 656 663 564 708 c 0,8,9
 529 725 529 725 476 738.5 c 128,-1,10
 423 752 423 752 371 762 c 128,-1,11
 319 772 319 772 279.5 778 c 128,-1,12
 240 784 240 784 233 787 c 0,13,14
 219 792 219 792 222.5 801.5 c 128,-1,15
 226 811 226 811 238 811 c 0,16,17
 243 811 243 811 282 806.5 c 128,-1,18
 321 802 321 802 375 792.5 c 128,-1,19
 429 783 429 783 490 769 c 128,-1,20
 551 755 551 755 600 736 c 0,21,22
 659 713 659 713 694 689.5 c 128,-1,23
 729 666 729 666 758 628 c 0,24,25
 787 588 787 588 782.5 549 c 128,-1,26
 778 510 778 510 749 489 c 0,27,28
 723 469 723 469 688 462 c 128,-1,29
 653 455 653 455 622 455 c 0,30,31
 590 455 590 455 577.5 455.5 c 128,-1,32
 565 456 565 456 533 463 c 1,0,1
880 498 m 1,33,34
 918 512 918 512 1009 496 c 1,35,36
 1062 482 1062 482 1102.5 460.5 c 128,-1,37
 1143 439 1143 439 1165 384 c 1,38,39
 1180 331 1180 331 1175 299 c 128,-1,40
 1170 267 1170 267 1140 226 c 1,41,42
 1111 191 1111 191 1072.5 173.5 c 128,-1,43
 1034 156 1034 156 978 144 c 0,44,45
 922 133 922 133 887 133.5 c 128,-1,46
 852 134 852 134 811 135 c 0,47,48
 771 137 771 137 736.5 141.5 c 128,-1,49
 702 146 702 146 653 161 c 0,50,51
 572 183 572 183 493 222 c 0,52,53
 449 244 449 244 399.5 269.5 c 128,-1,54
 350 295 350 295 289 330 c 0,55,56
 261 347 261 347 227.5 366.5 c 128,-1,57
 194 386 194 386 156 406 c 1,58,59
 127 424 127 424 98.5 442.5 c 128,-1,60
 70 461 70 461 74.5 479.5 c 128,-1,61
 79 498 79 498 96 497 c 128,-1,62
 113 496 113 496 203 497.5 c 128,-1,63
 293 499 293 499 361 498 c 1,64,65
 388 478 388 478 360.5 469.5 c 128,-1,66
 333 461 333 461 319 448 c 0,67,68
 294 422 294 422 297 406.5 c 128,-1,69
 300 391 300 391 305.5 382.5 c 128,-1,70
 311 374 311 374 322 364.5 c 128,-1,71
 333 355 333 355 376 325 c 128,-1,72
 419 295 419 295 484 262 c 1,73,74
 542 237 542 237 575 221 c 128,-1,75
 608 205 608 205 682 185 c 1,76,77
 737 174 737 174 794 171.5 c 128,-1,78
 851 169 851 169 910 188 c 1,79,80
 951 206 951 206 967.5 219 c 128,-1,81
 984 232 984 232 1005 263 c 0,82,83
 1023 293 1023 293 1025.5 314 c 128,-1,84
 1028 335 1028 335 1026 362 c 0,85,86
 1025 390 1025 390 1019.5 402.5 c 128,-1,87
 1014 415 1014 415 1005.5 428 c 128,-1,88
 997 441 997 441 983.5 451.5 c 128,-1,89
 970 462 970 462 942 466 c 128,-1,90
 914 470 914 470 887 473 c 0,91,92
 875 475 875 475 871.5 483 c 128,-1,93
 868 491 868 491 880 498 c 1,33,34
EndSplineSet
EndChar

StartChar: y
Encoding: 121 121 54
Width: 1234
VWidth: 345
GlyphClass: 1
Flags: W
LayerCount: 2
Fore
SplineSet
453 829 m 0,0,1
 487 829 487 829 524.5 828 c 128,-1,2
 562 827 562 827 593 822 c 1,3,4
 614 822 614 822 639.5 739.5 c 128,-1,5
 665 657 665 657 700 595 c 0,6,7
 711 574 711 574 722 571 c 0,8,9
 731 568 731 568 736 560.5 c 128,-1,10
 741 553 741 553 726 547 c 1,11,12
 691 541 691 541 655.5 542 c 128,-1,13
 620 543 620 543 588 547 c 1,14,15
 558 559 558 559 538.5 624 c 128,-1,16
 519 689 519 689 483 775 c 0,17,18
 480 780 480 780 471 788.5 c 128,-1,19
 462 797 462 797 450 800 c 0,20,21
 434 803 434 803 431.5 815.5 c 128,-1,22
 429 828 429 828 453 829 c 0,0,1
880 498 m 1,23,24
 918 512 918 512 1009 496 c 1,25,26
 1062 482 1062 482 1102.5 460.5 c 128,-1,27
 1143 439 1143 439 1165 384 c 1,28,29
 1180 331 1180 331 1175 299 c 128,-1,30
 1170 267 1170 267 1140 226 c 1,31,32
 1111 191 1111 191 1072.5 173.5 c 128,-1,33
 1034 156 1034 156 978 144 c 0,34,35
 922 133 922 133 887 133.5 c 128,-1,36
 852 134 852 134 811 135 c 0,37,38
 771 137 771 137 736.5 141.5 c 128,-1,39
 702 146 702 146 653 161 c 0,40,41
 572 183 572 183 493 222 c 0,42,43
 449 244 449 244 399.5 269.5 c 128,-1,44
 350 295 350 295 289 330 c 0,45,46
 261 347 261 347 227.5 366.5 c 128,-1,47
 194 386 194 386 156 406 c 1,48,49
 127 424 127 424 98.5 442.5 c 128,-1,50
 70 461 70 461 74.5 479.5 c 128,-1,51
 79 498 79 498 96 497 c 128,-1,52
 113 496 113 496 203 497.5 c 128,-1,53
 293 499 293 499 361 498 c 1,54,55
 388 478 388 478 360.5 469.5 c 128,-1,56
 333 461 333 461 319 448 c 0,57,58
 294 422 294 422 297 406.5 c 128,-1,59
 300 391 300 391 305.5 382.5 c 128,-1,60
 311 374 311 374 322 364.5 c 128,-1,61
 333 355 333 355 376 325 c 128,-1,62
 419 295 419 295 484 262 c 1,63,64
 542 237 542 237 575 221 c 128,-1,65
 608 205 608 205 682 185 c 1,66,67
 737 174 737 174 794 171.5 c 128,-1,68
 851 169 851 169 910 188 c 1,69,70
 951 206 951 206 967.5 219 c 128,-1,71
 984 232 984 232 1005 263 c 0,72,73
 1023 293 1023 293 1025.5 314 c 128,-1,74
 1028 335 1028 335 1026 362 c 0,75,76
 1025 390 1025 390 1019.5 402.5 c 128,-1,77
 1014 415 1014 415 1005.5 428 c 128,-1,78
 997 441 997 441 983.5 451.5 c 128,-1,79
 970 462 970 462 942 466 c 128,-1,80
 914 470 914 470 887 473 c 0,81,82
 875 475 875 475 871.5 483 c 128,-1,83
 868 491 868 491 880 498 c 1,23,24
1248 1225 m 1,84,85
 1264 1222 1264 1222 1262 1209.5 c 128,-1,86
 1260 1197 1260 1197 1242 1195 c 1,87,88
 1222 1188 1222 1188 1210 1144.5 c 128,-1,89
 1198 1101 1198 1101 1184 1053 c 0,90,91
 1152 939 1152 939 1125 868 c 128,-1,92
 1098 797 1098 797 1074 769 c 128,-1,93
 1050 741 1050 741 1017 726 c 0,94,95
 965 704 965 704 915 693 c 128,-1,96
 865 682 865 682 828 682 c 1,97,98
 847 639 847 639 889.5 622.5 c 128,-1,99
 932 606 932 606 914 587 c 0,100,101
 903 576 903 576 847.5 614.5 c 128,-1,102
 792 653 792 653 771 690 c 1,103,104
 771 713 771 713 790.5 709.5 c 128,-1,105
 810 706 810 706 833 704 c 256,106,107
 855 703 855 703 878 707 c 128,-1,108
 901 711 901 711 940 731 c 0,109,110
 960 741 960 741 977 774.5 c 128,-1,111
 994 808 994 808 1007.5 849 c 128,-1,112
 1021 890 1021 890 1031 930.5 c 128,-1,113
 1041 971 1041 971 1056 1047.5 c 128,-1,114
 1071 1124 1071 1124 1082.5 1150 c 128,-1,115
 1094 1176 1094 1176 1114.5 1192 c 128,-1,116
 1135 1208 1135 1208 1153.5 1212.5 c 128,-1,117
 1172 1217 1172 1217 1195 1219 c 128,-1,118
 1218 1221 1218 1221 1248 1225 c 1,84,85
EndSplineSet
EndChar

StartChar: e
Encoding: 101 101 55
Width: 1236
VWidth: 345
GlyphClass: 1
Flags: W
LayerCount: 2
Fore
SplineSet
453 829 m 0,0,1
 487 829 487 829 524.5 828 c 128,-1,2
 562 827 562 827 593 822 c 1,3,4
 614 822 614 822 639.5 739.5 c 128,-1,5
 665 657 665 657 700 595 c 0,6,7
 711 574 711 574 722 571 c 0,8,9
 731 568 731 568 736 560.5 c 128,-1,10
 741 553 741 553 726 547 c 1,11,12
 691 541 691 541 655.5 542 c 128,-1,13
 620 543 620 543 588 547 c 1,14,15
 558 559 558 559 538.5 624 c 128,-1,16
 519 689 519 689 483 775 c 0,17,18
 480 780 480 780 471 788.5 c 128,-1,19
 462 797 462 797 450 800 c 0,20,21
 434 803 434 803 431.5 815.5 c 128,-1,22
 429 828 429 828 453 829 c 0,0,1
880 498 m 1,23,24
 918 512 918 512 1009 496 c 1,25,26
 1062 482 1062 482 1102.5 460.5 c 128,-1,27
 1143 439 1143 439 1165 384 c 1,28,29
 1180 331 1180 331 1175 299 c 128,-1,30
 1170 267 1170 267 1140 226 c 1,31,32
 1111 191 1111 191 1072.5 173.5 c 128,-1,33
 1034 156 1034 156 978 144 c 0,34,35
 922 133 922 133 887 133.5 c 128,-1,36
 852 134 852 134 811 135 c 0,37,38
 771 137 771 137 736.5 141.5 c 128,-1,39
 702 146 702 146 653 161 c 0,40,41
 572 183 572 183 493 222 c 0,42,43
 449 244 449 244 399.5 269.5 c 128,-1,44
 350 295 350 295 289 330 c 0,45,46
 261 347 261 347 227.5 366.5 c 128,-1,47
 194 386 194 386 156 406 c 1,48,49
 127 424 127 424 98.5 442.5 c 128,-1,50
 70 461 70 461 74.5 479.5 c 128,-1,51
 79 498 79 498 96 497 c 128,-1,52
 113 496 113 496 203 497.5 c 128,-1,53
 293 499 293 499 361 498 c 1,54,55
 388 478 388 478 360.5 469.5 c 128,-1,56
 333 461 333 461 319 448 c 0,57,58
 294 422 294 422 297 406.5 c 128,-1,59
 300 391 300 391 305.5 382.5 c 128,-1,60
 311 374 311 374 322 364.5 c 128,-1,61
 333 355 333 355 376 325 c 128,-1,62
 419 295 419 295 484 262 c 1,63,64
 542 237 542 237 575 221 c 128,-1,65
 608 205 608 205 682 185 c 1,66,67
 737 174 737 174 794 171.5 c 128,-1,68
 851 169 851 169 910 188 c 1,69,70
 951 206 951 206 967.5 219 c 128,-1,71
 984 232 984 232 1005 263 c 0,72,73
 1023 293 1023 293 1025.5 314 c 128,-1,74
 1028 335 1028 335 1026 362 c 0,75,76
 1025 390 1025 390 1019.5 402.5 c 128,-1,77
 1014 415 1014 415 1005.5 428 c 128,-1,78
 997 441 997 441 983.5 451.5 c 128,-1,79
 970 462 970 462 942 466 c 128,-1,80
 914 470 914 470 887 473 c 0,81,82
 875 475 875 475 871.5 483 c 128,-1,83
 868 491 868 491 880 498 c 1,23,24
EndSplineSet
EndChar

StartChar: r
Encoding: 114 114 56
Width: 1236
VWidth: 345
GlyphClass: 1
Flags: W
LayerCount: 2
Fore
SplineSet
880 498 m 1,0,1
 918 512 918 512 1009 496 c 1,2,3
 1062 482 1062 482 1102.5 460.5 c 128,-1,4
 1143 439 1143 439 1165 384 c 1,5,6
 1180 331 1180 331 1175 299 c 128,-1,7
 1170 267 1170 267 1140 226 c 1,8,9
 1111 191 1111 191 1072.5 173.5 c 128,-1,10
 1034 156 1034 156 978 144 c 0,11,12
 922 133 922 133 887 133.5 c 128,-1,13
 852 134 852 134 811 135 c 0,14,15
 771 137 771 137 736.5 141.5 c 128,-1,16
 702 146 702 146 653 161 c 0,17,18
 572 183 572 183 493 222 c 0,19,20
 449 244 449 244 399.5 269.5 c 128,-1,21
 350 295 350 295 289 330 c 0,22,23
 261 347 261 347 227.5 366.5 c 128,-1,24
 194 386 194 386 156 406 c 1,25,26
 127 424 127 424 98.5 442.5 c 128,-1,27
 70 461 70 461 74.5 479.5 c 128,-1,28
 79 498 79 498 96 497 c 128,-1,29
 113 496 113 496 203 497.5 c 128,-1,30
 293 499 293 499 361 498 c 1,31,32
 388 478 388 478 360.5 469.5 c 128,-1,33
 333 461 333 461 319 448 c 0,34,35
 294 422 294 422 297 406.5 c 128,-1,36
 300 391 300 391 305.5 382.5 c 128,-1,37
 311 374 311 374 322 364.5 c 128,-1,38
 333 355 333 355 376 325 c 128,-1,39
 419 295 419 295 484 262 c 1,40,41
 542 237 542 237 575 221 c 128,-1,42
 608 205 608 205 682 185 c 1,43,44
 737 174 737 174 794 171.5 c 128,-1,45
 851 169 851 169 910 188 c 1,46,47
 951 206 951 206 967.5 219 c 128,-1,48
 984 232 984 232 1005 263 c 0,49,50
 1023 293 1023 293 1025.5 314 c 128,-1,51
 1028 335 1028 335 1026 362 c 0,52,53
 1025 390 1025 390 1019.5 402.5 c 128,-1,54
 1014 415 1014 415 1005.5 428 c 128,-1,55
 997 441 997 441 983.5 451.5 c 128,-1,56
 970 462 970 462 942 466 c 128,-1,57
 914 470 914 470 887 473 c 0,58,59
 875 475 875 475 871.5 483 c 128,-1,60
 868 491 868 491 880 498 c 1,0,1
1248 1225 m 1,61,62
 1264 1222 1264 1222 1262 1209.5 c 128,-1,63
 1260 1197 1260 1197 1242 1195 c 1,64,65
 1222 1188 1222 1188 1210 1144.5 c 128,-1,66
 1198 1101 1198 1101 1184 1053 c 0,67,68
 1152 939 1152 939 1125 868 c 128,-1,69
 1098 797 1098 797 1074 769 c 128,-1,70
 1050 741 1050 741 1017 726 c 0,71,72
 965 704 965 704 915 693 c 128,-1,73
 865 682 865 682 828 682 c 1,74,75
 847 639 847 639 889.5 622.5 c 128,-1,76
 932 606 932 606 914 587 c 0,77,78
 903 576 903 576 847.5 614.5 c 128,-1,79
 792 653 792 653 771 690 c 1,80,81
 771 713 771 713 790.5 709.5 c 128,-1,82
 810 706 810 706 833 704 c 256,83,84
 855 703 855 703 878 707 c 128,-1,85
 901 711 901 711 940 731 c 0,86,87
 960 741 960 741 977 774.5 c 128,-1,88
 994 808 994 808 1007.5 849 c 128,-1,89
 1021 890 1021 890 1031 930.5 c 128,-1,90
 1041 971 1041 971 1056 1047.5 c 128,-1,91
 1071 1124 1071 1124 1082.5 1150 c 128,-1,92
 1094 1176 1094 1176 1114.5 1192 c 128,-1,93
 1135 1208 1135 1208 1153.5 1212.5 c 128,-1,94
 1172 1217 1172 1217 1195 1219 c 128,-1,95
 1218 1221 1218 1221 1248 1225 c 1,61,62
EndSplineSet
EndChar

StartChar: braceright
Encoding: 125 125 57
Width: 77
VWidth: 345
GlyphClass: 1
Flags: W
LayerCount: 2
Fore
SplineSet
-779 72 m 0,0,1
 -704 75 -704 75 -651.5 79 c 128,-1,2
 -599 83 -599 83 -551 85.5 c 128,-1,3
 -503 88 -503 88 -450.5 89 c 128,-1,4
 -398 90 -398 90 -324 88 c 0,5,6
 -194 85 -194 85 -76.5 71.5 c 128,-1,7
 41 58 41 58 104 44 c 0,8,9
 168 30 168 30 227.5 0.5 c 128,-1,10
 287 -29 287 -29 292 -55 c 0,11,12
 296 -81 296 -81 288 -113 c 128,-1,13
 280 -145 280 -145 208 -177 c 1,14,15
 158 -188 158 -188 94 -195 c 128,-1,16
 30 -202 30 -202 -11 -201 c 1,17,18
 -28 -194 -28 -194 -15.5 -185 c 128,-1,19
 -3 -176 -3 -176 19.5 -162 c 128,-1,20
 42 -148 42 -148 67 -127 c 128,-1,21
 92 -106 92 -106 101 -76 c 0,22,23
 117 -21 117 -21 58 6 c 128,-1,24
 -1 33 -1 33 -84.5 43 c 128,-1,25
 -168 53 -168 53 -250.5 53 c 128,-1,26
 -333 53 -333 53 -363 55 c 0,27,28
 -426 58 -426 58 -498.5 55 c 128,-1,29
 -571 52 -571 52 -632.5 46.5 c 128,-1,30
 -694 41 -694 41 -735 36.5 c 128,-1,31
 -776 32 -776 32 -776 32 c 1,32,33
 -792 35 -792 35 -793 52.5 c 128,-1,34
 -794 70 -794 70 -779 72 c 0,0,1
EndSplineSet
EndChar

StartChar: parenright
Encoding: 41 41 58
Width: 400
VWidth: 345
GlyphClass: 1
Flags: W
LayerCount: 2
Fore
SplineSet
358 447 m 0,0,1
 381 447 381 447 380.5 433 c 128,-1,2
 380 419 380 419 364 417 c 0,3,4
 337 411 337 411 328 394 c 0,5,6
 292 308 292 308 272.5 243 c 128,-1,7
 253 178 253 178 223 166 c 1,8,9
 191 162 191 162 155.5 161 c 128,-1,10
 120 160 120 160 85 166 c 1,11,12
 70 172 70 172 75 179 c 128,-1,13
 80 186 80 186 90 189 c 0,14,15
 100 191 100 191 111 213 c 0,16,17
 146 275 146 275 169.5 353.5 c 128,-1,18
 193 432 193 432 219 441 c 0,19,20
 253 451 253 451 288 449 c 128,-1,21
 323 447 323 447 358 447 c 0,0,1
EndSplineSet
EndChar

StartChar: s
Encoding: 115 115 59
Width: 18
VWidth: 345
GlyphClass: 1
Flags: W
LayerCount: 2
Fore
SplineSet
-794 797 m 0,0,1
 -720 797 -720 797 -645.5 797.5 c 128,-1,2
 -571 798 -571 798 -498 799 c 1,3,4
 -493 792 -493 792 -494 781 c 128,-1,5
 -495 770 -495 770 -498 762 c 1,6,7
 -513 759 -513 759 -596 759 c 128,-1,8
 -679 759 -679 759 -741 759 c 1,9,10
 -741 708 -741 708 -738.5 642.5 c 128,-1,11
 -736 577 -736 577 -742 577 c 0,12,13
 -757 577 -757 577 -774.5 575 c 128,-1,14
 -792 573 -792 573 -805 577 c 0,15,16
 -807 577 -807 577 -807 587 c 0,17,18
 -807 587 -807 587 -806 588 c 128,-1,19
 -805 589 -805 589 -805 589 c 0,20,21
 -805 642 -805 642 -804.5 685 c 128,-1,22
 -804 728 -804 728 -804 782 c 0,23,24
 -804 795 -804 795 -794 797 c 0,0,1
EndSplineSet
EndChar

StartChar: x
Encoding: 120 120 60
Width: 18
VWidth: 345
GlyphClass: 1
Flags: W
LayerCount: 2
Fore
SplineSet
-797 87 m 0,0,1
 -723 87 -723 87 -649 87.5 c 128,-1,2
 -575 88 -575 88 -501 89 c 1,3,4
 -496 82 -496 82 -497 71 c 128,-1,5
 -498 60 -498 60 -501 53 c 1,6,7
 -516 50 -516 50 -599.5 50 c 128,-1,8
 -683 50 -683 50 -744 50 c 1,9,10
 -744 -2 -744 -2 -742 -67 c 128,-1,11
 -740 -132 -740 -132 -746 -133 c 0,12,13
 -761 -133 -761 -133 -778 -135 c 128,-1,14
 -795 -137 -795 -137 -808 -133 c 0,15,16
 -810 -133 -810 -133 -810 -123 c 0,17,18
 -810 -123 -810 -123 -809 -122 c 128,-1,19
 -808 -121 -808 -121 -808 -120 c 0,20,21
 -808 -67 -808 -67 -807.5 -24.5 c 128,-1,22
 -807 18 -807 18 -807 72 c 0,23,24
 -806 86 -806 86 -797 87 c 0,0,1
EndSplineSet
EndChar

StartChar: X
Encoding: 88 88 61
Width: 18
VWidth: 345
GlyphClass: 1
Flags: W
LayerCount: 2
Fore
SplineSet
-410 -57 m 0,0,1
 -336 -57 -336 -57 -261.5 -56.5 c 128,-1,2
 -187 -56 -187 -56 -114 -54 c 1,3,4
 -109 -61 -109 -61 -110 -72 c 128,-1,5
 -111 -83 -111 -83 -114 -91 c 1,6,7
 -129 -95 -129 -95 -212 -94.5 c 128,-1,8
 -295 -94 -295 -94 -357 -94 c 1,9,10
 -357 -145 -357 -145 -354.5 -210.5 c 128,-1,11
 -352 -276 -352 -276 -358 -276 c 0,12,13
 -373 -276 -373 -276 -390.5 -278 c 128,-1,14
 -408 -280 -408 -280 -421 -276 c 0,15,16
 -422 -276 -422 -276 -422 -266 c 1,17,18
 -422 -266 -422 -266 -421.5 -265 c 128,-1,19
 -421 -264 -421 -264 -421 -264 c 0,20,21
 -421 -211 -421 -211 -420 -168 c 128,-1,22
 -419 -125 -419 -125 -419 -72 c 0,23,24
 -419 -58 -419 -58 -410 -57 c 0,0,1
EndSplineSet
EndChar

StartChar: D
Encoding: 68 68 62
Width: 57
VWidth: 345
GlyphClass: 1
Flags: W
LayerCount: 2
Fore
SplineSet
-257 953 m 1,0,1
 -257 988 -257 988 -256 1020 c 128,-1,2
 -255 1052 -255 1052 -255 1091 c 0,3,4
 -255 1103 -255 1103 -246 1105 c 0,5,6
 -172 1105 -172 1105 -97.5 1105.5 c 128,-1,7
 -23 1106 -23 1106 50 1107 c 1,8,9
 55 1101 55 1101 53.5 1090.5 c 128,-1,10
 52 1080 52 1080 50 1074 c 1,11,12
 35 1071 35 1071 -48 1071 c 128,-1,13
 -131 1071 -131 1071 -192 1071 c 1,14,15
 -192 1023 -192 1023 -190 973.5 c 128,-1,16
 -188 924 -188 924 -194 924 c 0,17,18
 -202 923 -202 923 -210 921 c 128,-1,19
 -218 919 -218 919 -256 920 c 1,20,21
 -296 919 -296 919 -348.5 918 c 128,-1,22
 -401 917 -401 917 -440 917 c 1,23,24
 -440 869 -440 869 -438.5 819.5 c 128,-1,25
 -437 770 -437 770 -443 769 c 0,26,27
 -458 769 -458 769 -475.5 767 c 128,-1,28
 -493 765 -493 765 -506 769 c 0,29,30
 -507 769 -507 769 -507 779 c 1,31,32
 -507 779 -507 779 -506.5 779.5 c 128,-1,33
 -506 780 -506 780 -506 781 c 0,34,35
 -506 830 -506 830 -504.5 859 c 128,-1,36
 -503 888 -503 888 -503 938 c 0,37,38
 -503 950 -503 950 -494 951 c 0,39,40
 -435 951 -435 951 -375.5 951.5 c 128,-1,41
 -316 952 -316 952 -257 953 c 1,0,1
EndSplineSet
EndChar

StartChar: d
Encoding: 100 100 63
Width: 4
VWidth: 345
GlyphClass: 1
Flags: W
LayerCount: 2
Fore
SplineSet
-561 772 m 1,0,1
 -561 809 -561 809 -560 844 c 128,-1,2
 -559 879 -559 879 -559 921 c 0,3,4
 -559 935 -559 935 -549 936 c 0,5,6
 -475 936 -475 936 -400.5 936.5 c 128,-1,7
 -326 937 -326 937 -253 938 c 1,8,9
 -244 926 -244 926 -252 902 c 1,10,11
 -267 898 -267 898 -350.5 898 c 128,-1,12
 -434 898 -434 898 -496 898 c 1,13,14
 -496 847 -496 847 -494 794 c 128,-1,15
 -492 741 -492 741 -498 740 c 0,16,17
 -506 739 -506 739 -513.5 737 c 128,-1,18
 -521 735 -521 735 -560 736 c 0,19,20
 -600 736 -600 736 -652 734.5 c 128,-1,21
 -704 733 -704 733 -743 733 c 1,22,23
 -743 682 -743 682 -741.5 628 c 128,-1,24
 -740 574 -740 574 -746 574 c 0,25,26
 -761 574 -761 574 -778.5 571.5 c 128,-1,27
 -796 569 -796 569 -809 574 c 0,28,29
 -811 574 -811 574 -811 584 c 0,30,31
 -811 584 -811 584 -810 584.5 c 128,-1,32
 -809 585 -809 585 -809 586 c 0,33,34
 -809 639 -809 639 -807.5 670.5 c 128,-1,35
 -806 702 -806 702 -806 755 c 0,36,37
 -806 769 -806 769 -797 770 c 0,38,39
 -738 770 -738 770 -679 770.5 c 128,-1,40
 -620 771 -620 771 -561 772 c 1,0,1
EndSplineSet
EndChar

StartChar: f
Encoding: 102 102 64
Width: 4
VWidth: 345
GlyphClass: 1
Flags: W
LayerCount: 2
Fore
SplineSet
-560 827 m 0,0,1
 -560 840 -560 840 -550 842 c 0,2,3
 -491 842 -491 842 -432 842.5 c 128,-1,4
 -373 843 -373 843 -314 844 c 1,5,6
 -313 881 -313 881 -313 892.5 c 128,-1,7
 -313 904 -313 904 -313 946 c 0,8,9
 -313 959 -313 959 -304 961 c 0,10,11
 -230 961 -230 961 -155.5 961.5 c 128,-1,12
 -81 962 -81 962 -8 963 c 1,13,14
 -3 956 -3 956 -4 945 c 128,-1,15
 -5 934 -5 934 -7 927 c 1,16,17
 -22 923 -22 923 -105.5 923.5 c 128,-1,18
 -189 924 -189 924 -250 924 c 1,19,20
 -250 873 -250 873 -248 842.5 c 128,-1,21
 -246 812 -246 812 -251 811 c 0,22,23
 -259 810 -259 810 -267 808 c 128,-1,24
 -275 806 -275 806 -313 808 c 1,25,26
 -353 807 -353 807 -405.5 805.5 c 128,-1,27
 -458 804 -458 804 -497 804 c 1,28,29
 -497 800 -497 800 -497 797 c 128,-1,30
 -497 794 -497 794 -497 791 c 1,31,-1
 -497 791 l 1,32,33
 -496 692 -496 692 -498 692 c 0,34,35
 -506 691 -506 691 -513.5 689 c 128,-1,36
 -521 687 -521 687 -560 688 c 1,37,38
 -600 687 -600 687 -652 686 c 128,-1,39
 -704 685 -704 685 -744 685 c 1,40,41
 -744 574 -744 574 -746 574 c 0,42,43
 -761 574 -761 574 -778.5 571.5 c 128,-1,44
 -796 569 -796 569 -809 574 c 0,45,46
 -811 574 -811 574 -811 584 c 0,47,48
 -811 584 -811 584 -810 584.5 c 128,-1,49
 -809 585 -809 585 -809 586 c 0,50,51
 -809 639 -809 639 -808 646.5 c 128,-1,52
 -807 654 -807 654 -807 707 c 0,53,54
 -807 720 -807 720 -797 722 c 1,55,56
 -738 722 -738 722 -679 722.5 c 128,-1,57
 -620 723 -620 723 -561 724 c 1,58,59
 -561 750 -561 750 -560.5 775.5 c 128,-1,60
 -560 801 -560 801 -560 827 c 0,0,1
EndSplineSet
EndChar

StartChar: F
Encoding: 70 70 65
Width: 0
VWidth: 345
GlyphClass: 1
Flags: W
LayerCount: 2
Fore
SplineSet
-271 1009 m 0,0,1
 -271 1022 -271 1022 -262 1024 c 1,2,3
 -203 1024 -203 1024 -143.5 1024.5 c 128,-1,4
 -84 1025 -84 1025 -25 1025 c 1,5,6
 -25 1061 -25 1061 -24.5 1072.5 c 128,-1,7
 -24 1084 -24 1084 -24 1124 c 0,8,9
 -24 1137 -24 1137 -15 1138 c 0,10,11
 58 1138 58 1138 132.5 1138.5 c 128,-1,12
 207 1139 207 1139 281 1141 c 1,13,14
 289 1129 289 1129 281 1106 c 1,15,16
 266 1103 266 1103 182.5 1103 c 128,-1,17
 99 1103 99 1103 38 1103 c 1,18,19
 38 1053 38 1053 40 1024 c 128,-1,20
 42 995 42 995 37 994 c 0,21,22
 29 993 29 993 21.5 991.5 c 128,-1,23
 14 990 14 990 -24 991 c 1,24,25
 -64 990 -64 990 -116.5 989 c 128,-1,26
 -169 988 -169 988 -208 988 c 1,27,28
 -208 981 -208 981 -208 975 c 1,29,-1
 -208 975 l 1,30,31
 -207 880 -207 880 -209 880 c 0,32,33
 -217 878 -217 878 -224.5 876.5 c 128,-1,34
 -232 875 -232 875 -271 876 c 1,35,36
 -311 875 -311 875 -363 874 c 128,-1,37
 -415 873 -415 873 -455 873 c 1,38,39
 -455 766 -455 766 -457 765 c 0,40,41
 -472 765 -472 765 -489.5 763 c 128,-1,42
 -507 761 -507 761 -520 765 c 0,43,44
 -521 765 -521 765 -521 775 c 0,45,46
 -521 775 -521 775 -520.5 776 c 128,-1,47
 -520 777 -520 777 -520 778 c 0,48,49
 -520 828 -520 828 -519 835.5 c 128,-1,50
 -518 843 -518 843 -518 894 c 0,51,52
 -518 907 -518 907 -508 908 c 0,53,54
 -449 908 -449 908 -390 909 c 128,-1,55
 -331 910 -331 910 -272 910 c 1,56,57
 -272 935 -272 935 -271.5 959.5 c 128,-1,58
 -271 984 -271 984 -271 1009 c 0,0,1
EndSplineSet
EndChar

StartChar: E
Encoding: 69 69 66
Width: 1243
VWidth: 345
GlyphClass: 1
Flags: W
LayerCount: 2
Fore
SplineSet
375 590 m 1,0,1
 337 576 337 576 246 591 c 1,2,3
 193 604 193 604 152.5 626 c 128,-1,4
 112 648 112 648 90 703 c 1,5,6
 75 756 75 756 80 788 c 128,-1,7
 85 820 85 820 115 861 c 1,8,9
 144 896 144 896 182.5 914 c 128,-1,10
 221 932 221 932 277 944 c 0,11,12
 333 955 333 955 368 954.5 c 128,-1,13
 403 954 403 954 444 952 c 0,14,15
 484 950 484 950 518.5 945.5 c 128,-1,16
 553 941 553 941 602 926 c 0,17,18
 683 904 683 904 762 865 c 0,19,20
 806 843 806 843 855.5 817.5 c 128,-1,21
 905 792 905 792 966 758 c 0,22,23
 994 741 994 741 1027.5 721.5 c 128,-1,24
 1061 702 1061 702 1099 682 c 1,25,26
 1128 664 1128 664 1156.5 645.5 c 128,-1,27
 1185 627 1185 627 1180.5 608.5 c 128,-1,28
 1176 590 1176 590 1159 591 c 128,-1,29
 1142 592 1142 592 1051.5 590 c 128,-1,30
 961 588 961 588 894 590 c 1,31,32
 867 610 867 610 894.5 618.5 c 128,-1,33
 922 627 922 627 936 640 c 0,34,35
 961 666 961 666 958 681 c 128,-1,36
 955 696 955 696 949.5 704.5 c 128,-1,37
 944 713 944 713 933 723 c 128,-1,38
 922 733 922 733 878.5 762.5 c 128,-1,39
 835 792 835 792 771 825 c 1,40,41
 713 850 713 850 680 866.5 c 128,-1,42
 647 883 647 883 573 903 c 1,43,44
 518 914 518 914 461 916 c 128,-1,45
 404 918 404 918 345 899 c 1,46,47
 304 881 304 881 287.5 868.5 c 128,-1,48
 271 856 271 856 250 824 c 0,49,50
 232 794 232 794 229.5 773.5 c 128,-1,51
 227 753 227 753 229 725 c 0,52,53
 230 697 230 697 235.5 685 c 128,-1,54
 241 673 241 673 249.5 660 c 128,-1,55
 258 647 258 647 271.5 636.5 c 128,-1,56
 285 626 285 626 313 621.5 c 128,-1,57
 341 617 341 617 368 614 c 0,58,59
 380 612 380 612 383.5 604.5 c 128,-1,60
 387 597 387 597 375 590 c 1,0,1
885 498 m 1,61,62
 923 512 923 512 1014 496 c 1,63,64
 1067 482 1067 482 1107.5 460.5 c 128,-1,65
 1148 439 1148 439 1170 384 c 1,66,67
 1185 331 1185 331 1180 299 c 128,-1,68
 1175 267 1175 267 1145 226 c 1,69,70
 1116 191 1116 191 1077.5 173.5 c 128,-1,71
 1039 156 1039 156 982 144 c 0,72,73
 926 133 926 133 891 133.5 c 128,-1,74
 856 134 856 134 816 135 c 0,75,76
 776 137 776 137 741.5 141.5 c 128,-1,77
 707 146 707 146 658 161 c 0,78,79
 577 183 577 183 498 222 c 0,80,81
 454 244 454 244 404 269.5 c 128,-1,82
 354 295 354 295 293 330 c 0,83,84
 265 347 265 347 232 366.5 c 128,-1,85
 199 386 199 386 161 406 c 1,86,87
 132 424 132 424 103.5 442.5 c 128,-1,88
 75 461 75 461 79.5 479.5 c 128,-1,89
 84 498 84 498 101 497 c 128,-1,90
 118 496 118 496 208 497.5 c 128,-1,91
 298 499 298 499 366 498 c 1,92,93
 393 478 393 478 365 469.5 c 128,-1,94
 337 461 337 461 324 448 c 0,95,96
 299 422 299 422 302 406.5 c 128,-1,97
 305 391 305 391 310 382.5 c 128,-1,98
 315 374 315 374 326 364.5 c 128,-1,99
 337 355 337 355 380.5 325 c 128,-1,100
 424 295 424 295 489 262 c 1,101,102
 547 237 547 237 580 221 c 128,-1,103
 613 205 613 205 687 185 c 1,104,105
 742 174 742 174 799 171.5 c 128,-1,106
 856 169 856 169 915 188 c 1,107,108
 956 206 956 206 972.5 219 c 128,-1,109
 989 232 989 232 1010 263 c 0,110,111
 1028 293 1028 293 1030.5 314 c 128,-1,112
 1033 335 1033 335 1031 362 c 0,113,114
 1030 390 1030 390 1024.5 402.5 c 128,-1,115
 1019 415 1019 415 1010 428 c 128,-1,116
 1001 441 1001 441 988 451.5 c 128,-1,117
 975 462 975 462 947 466 c 128,-1,118
 919 470 919 470 892 473 c 0,119,120
 880 475 880 475 876.5 483 c 128,-1,121
 873 491 873 491 885 498 c 1,61,62
581 489 m 1,122,123
 571 497 571 497 579.5 504 c 128,-1,124
 588 511 588 511 602 511 c 0,125,126
 617 511 617 511 643 537.5 c 128,-1,127
 669 564 669 564 678 603 c 0,128,129
 692 669 692 669 609 712 c 0,130,131
 577 727 577 727 529 739 c 128,-1,132
 481 751 481 751 434 760 c 128,-1,133
 387 769 387 769 351 774.5 c 128,-1,134
 315 780 315 780 309 783 c 0,135,136
 296 788 296 788 299 796 c 128,-1,137
 302 804 302 804 312 804 c 0,138,139
 317 804 317 804 352.5 800 c 128,-1,140
 388 796 388 796 437.5 788 c 128,-1,141
 487 780 487 780 541.5 767 c 128,-1,142
 596 754 596 754 641 737 c 0,143,144
 694 716 694 716 726 695 c 128,-1,145
 758 674 758 674 784 638 c 0,146,147
 810 602 810 602 806 567 c 128,-1,148
 802 532 802 532 776 512 c 0,149,150
 752 494 752 494 720 488 c 128,-1,151
 688 482 688 482 660 482 c 256,152,153
 632 482 632 482 620.5 482.5 c 128,-1,154
 609 483 609 483 581 489 c 1,122,123
EndSplineSet
EndChar

StartChar: hyphen
Encoding: 45 45 67
Width: 523
VWidth: 345
GlyphClass: 1
Flags: W
LayerCount: 2
Fore
SplineSet
197 785 m 0,0,1
 270 785 270 785 345 786 c 128,-1,2
 420 787 420 787 493 788 c 1,3,4
 498 781 498 781 497 770 c 128,-1,5
 496 759 496 759 494 751 c 1,6,7
 479 748 479 748 395.5 748 c 128,-1,8
 312 748 312 748 250 748 c 1,9,10
 250 696 250 696 252.5 631.5 c 128,-1,11
 255 567 255 567 250 566 c 0,12,13
 234 566 234 566 216.5 564 c 128,-1,14
 199 562 199 562 187 566 c 0,15,16
 186 566 186 566 185 576 c 0,17,18
 185 576 185 576 186 576.5 c 128,-1,19
 187 577 187 577 187 578 c 0,20,21
 187 631 187 631 187.5 674.5 c 128,-1,22
 188 718 188 718 188 770 c 0,23,24
 188 784 188 784 197 785 c 0,0,1
358 447 m 0,25,26
 381 447 381 447 380.5 433 c 128,-1,27
 380 419 380 419 364 417 c 0,28,29
 337 411 337 411 328 394 c 0,30,31
 292 308 292 308 272.5 243 c 128,-1,32
 253 178 253 178 223 166 c 1,33,34
 191 162 191 162 155.5 161 c 128,-1,35
 120 160 120 160 85 166 c 1,36,37
 70 172 70 172 75 179 c 128,-1,38
 80 186 80 186 90 189 c 0,39,40
 100 191 100 191 111 213 c 0,41,42
 146 275 146 275 169.5 353.5 c 128,-1,43
 193 432 193 432 219 441 c 0,44,45
 253 451 253 451 288 449 c 128,-1,46
 323 447 323 447 358 447 c 0,25,26
EndSplineSet
EndChar

StartChar: colon
Encoding: 58 58 68
Width: 0
VWidth: 345
GlyphClass: 1
Flags: W
LayerCount: 2
Fore
SplineSet
-250 -1 m 2,0,-1
 -191 -1 l 2,1,2
 -186 -1 -186 -1 -175 -1 c 128,-1,3
 -164 -1 -164 -1 -161 -4 c 0,4,5
 -157 -8 -157 -8 -162 -8.5 c 128,-1,6
 -167 -9 -167 -9 -171 -31 c 2,7,-1
 -177 -78 l 2,8,9
 -181 -108 -181 -108 -205 -109 c 2,10,-1
 -264 -109 l 2,11,12
 -269 -109 -269 -109 -282 -108 c 128,-1,13
 -295 -107 -295 -107 -296 -102 c 0,14,15
 -296 -96 -296 -96 -291 -94 c 128,-1,16
 -286 -92 -286 -92 -285 -78 c 2,17,-1
 -278 -31 l 2,18,19
 -273 -1 -273 -1 -250 -1 c 2,0,-1
EndSplineSet
EndChar

StartChar: semicolon
Encoding: 59 59 69
Width: 0
VWidth: 345
GlyphClass: 1
Flags: W
LayerCount: 2
Fore
SplineSet
-784 -1 m 2,0,-1
 -725 -1 l 2,1,2
 -720 -1 -720 -1 -709 -1 c 128,-1,3
 -698 -1 -698 -1 -695 -4 c 0,4,5
 -691 -8 -691 -8 -696.5 -8.5 c 128,-1,6
 -702 -9 -702 -9 -705 -31 c 2,7,-1
 -711 -78 l 2,8,9
 -714 -108 -714 -108 -740 -109 c 2,10,-1
 -799 -109 l 2,11,12
 -803 -109 -803 -109 -816.5 -108 c 128,-1,13
 -830 -107 -830 -107 -830 -102 c 0,14,15
 -830 -96 -830 -96 -825 -94 c 128,-1,16
 -820 -92 -820 -92 -819 -78 c 2,17,18
 -818 -78 -818 -78 -812 -31 c 2,19,20
 -808 -1 -808 -1 -784 -1 c 2,0,-1
EndSplineSet
EndChar

StartChar: O
Encoding: 79 79 70
Width: 1465
VWidth: 345
GlyphClass: 1
Flags: W
LayerCount: 2
Fore
SplineSet
792 697 m 0,0,1
 822 697 822 697 854.5 696 c 128,-1,2
 887 695 887 695 914 690 c 1,3,4
 933 690 933 690 953.5 626 c 128,-1,5
 974 562 974 562 1002 501 c 0,6,7
 1012 480 1012 480 1021 477 c 0,8,9
 1029 474 1029 474 1033.5 466.5 c 128,-1,10
 1038 459 1038 459 1025 453 c 1,11,12
 994 447 994 447 963.5 448 c 128,-1,13
 933 449 933 449 905 453 c 1,14,15
 878 465 878 465 863.5 510.5 c 128,-1,16
 849 556 849 556 818 643 c 0,17,18
 815 648 815 648 807 658.5 c 128,-1,19
 799 669 799 669 788 671 c 0,20,21
 773 673 773 673 772 684.5 c 128,-1,22
 771 696 771 696 792 697 c 0,0,1
521 697 m 0,23,24
 551 697 551 697 584 696 c 128,-1,25
 617 695 617 695 643 690 c 1,26,27
 662 690 662 690 683 626 c 128,-1,28
 704 562 704 562 732 501 c 0,29,30
 741 480 741 480 751 477 c 0,31,32
 759 474 759 474 763.5 466.5 c 128,-1,33
 768 459 768 459 755 453 c 1,34,35
 725 447 725 447 693.5 448 c 128,-1,36
 662 449 662 449 634 453 c 1,37,38
 608 465 608 465 593 510.5 c 128,-1,39
 578 556 578 556 547 643 c 0,40,41
 544 648 544 648 536 658.5 c 128,-1,42
 528 669 528 669 518 671 c 0,43,44
 504 673 504 673 502 684.5 c 128,-1,45
 500 696 500 696 521 697 c 0,23,24
85 384 m 128,-1,47
 90 392 90 392 96.5 392.5 c 128,-1,48
 103 393 103 393 110 389 c 128,-1,49
 117 385 117 385 128 379.5 c 128,-1,50
 139 374 139 374 156 370.5 c 128,-1,51
 173 367 173 367 204 367 c 2,52,-1
 1208 367 l 2,53,54
 1236 367 1236 367 1259 362.5 c 128,-1,55
 1282 358 1282 358 1301 348 c 128,-1,56
 1320 338 1320 338 1330.5 330 c 128,-1,57
 1341 322 1341 322 1359.5 302.5 c 128,-1,58
 1378 283 1378 283 1391 265 c 128,-1,59
 1404 247 1404 247 1396 230 c 1,60,61
 1388 218 1388 218 1378 225 c 128,-1,62
 1368 232 1368 232 1353.5 237 c 128,-1,63
 1339 242 1339 242 1322.5 244 c 128,-1,64
 1306 246 1306 246 1271 246 c 2,65,-1
 282 246 l 2,66,67
 259 246 259 246 240 249 c 128,-1,68
 221 252 221 252 210.5 255.5 c 128,-1,69
 200 259 200 259 188 265 c 128,-1,70
 176 271 176 271 162.5 279.5 c 128,-1,71
 149 288 149 288 134 303.5 c 128,-1,72
 119 319 119 319 103.5 339.5 c 128,-1,73
 88 360 88 360 84 368 c 128,-1,46
 80 376 80 376 85 384 c 128,-1,47
EndSplineSet
EndChar

StartChar: o
Encoding: 111 111 71
Width: 1515
VWidth: 345
GlyphClass: 1
Flags: W
LayerCount: 2
Fore
SplineSet
825 187 m 0,0,1
 855 187 855 187 888 186 c 128,-1,2
 921 185 921 185 947 180 c 1,3,4
 966 180 966 180 987 116.5 c 128,-1,5
 1008 53 1008 53 1036 -9 c 0,6,7
 1045 -30 1045 -30 1055 -32 c 0,8,9
 1063 -35 1063 -35 1067.5 -42.5 c 128,-1,10
 1072 -50 1072 -50 1059 -55 c 1,11,12
 1028 -61 1028 -61 997 -60.5 c 128,-1,13
 966 -60 966 -60 938 -55 c 1,14,15
 911 -43 911 -43 896.5 2 c 128,-1,16
 882 47 882 47 852 134 c 0,17,18
 849 139 849 139 841 149 c 128,-1,19
 833 159 833 159 822 162 c 0,20,21
 807 165 807 165 805.5 176 c 128,-1,22
 804 187 804 187 825 187 c 0,0,1
1095 187 m 0,23,24
 1125 187 1125 187 1158 186 c 128,-1,25
 1191 185 1191 185 1217 180 c 1,26,27
 1236 180 1236 180 1257 116.5 c 128,-1,28
 1278 53 1278 53 1307 -9 c 0,29,30
 1316 -30 1316 -30 1326 -32 c 0,31,32
 1334 -35 1334 -35 1338 -42.5 c 128,-1,33
 1342 -50 1342 -50 1329 -55 c 1,34,35
 1299 -61 1299 -61 1267.5 -60.5 c 128,-1,36
 1236 -60 1236 -60 1208 -55 c 1,37,38
 1182 -43 1182 -43 1167 2 c 128,-1,39
 1152 47 1152 47 1122 134 c 0,40,41
 1119 139 1119 139 1111 149 c 128,-1,42
 1103 159 1103 159 1092 162 c 0,43,44
 1078 165 1078 165 1076 176 c 128,-1,45
 1074 187 1074 187 1095 187 c 0,23,24
85 384 m 128,-1,47
 90 392 90 392 96.5 392.5 c 128,-1,48
 103 393 103 393 110 389 c 128,-1,49
 117 385 117 385 128 379.5 c 128,-1,50
 139 374 139 374 156 370.5 c 128,-1,51
 173 367 173 367 204 367 c 2,52,-1
 1228 367 l 2,53,54
 1256 367 1256 367 1279 362.5 c 128,-1,55
 1302 358 1302 358 1321 348 c 128,-1,56
 1340 338 1340 338 1350.5 330 c 128,-1,57
 1361 322 1361 322 1379 302.5 c 128,-1,58
 1397 283 1397 283 1410.5 265 c 128,-1,59
 1424 247 1424 247 1416 230 c 1,60,61
 1408 218 1408 218 1397.5 225 c 128,-1,62
 1387 232 1387 232 1373 237 c 128,-1,63
 1359 242 1359 242 1342.5 244 c 128,-1,64
 1326 246 1326 246 1291 246 c 2,65,-1
 282 246 l 2,66,67
 259 246 259 246 240 249 c 128,-1,68
 221 252 221 252 210.5 255.5 c 128,-1,69
 200 259 200 259 188 265 c 128,-1,70
 176 271 176 271 162.5 279.5 c 128,-1,71
 149 288 149 288 134 303.5 c 128,-1,72
 119 319 119 319 103.5 339.5 c 128,-1,73
 88 360 88 360 84 368 c 128,-1,46
 80 376 80 376 85 384 c 128,-1,47
EndSplineSet
EndChar

StartChar: P
Encoding: 80 80 72
Width: 1964
VWidth: 345
GlyphClass: 1
Flags: W
LayerCount: 2
Fore
SplineSet
1236 671 m 0,0,1
 1266 671 1266 671 1299 670 c 128,-1,2
 1332 669 1332 669 1358 664 c 1,3,4
 1377 664 1377 664 1401 613 c 128,-1,5
 1425 562 1425 562 1454 501 c 0,6,7
 1462 480 1462 480 1473 477 c 0,8,9
 1480 474 1480 474 1484.5 466.5 c 128,-1,10
 1489 459 1489 459 1476 453 c 1,11,12
 1446 447 1446 447 1414.5 448 c 128,-1,13
 1383 449 1383 449 1355 453 c 1,14,15
 1329 465 1329 465 1311 498 c 128,-1,16
 1293 531 1293 531 1262 617 c 0,17,18
 1259 622 1259 622 1251 632.5 c 128,-1,19
 1243 643 1243 643 1232 645 c 0,20,21
 1218 647 1218 647 1216.5 659 c 128,-1,22
 1215 671 1215 671 1236 671 c 0,0,1
1506 671 m 0,23,24
 1536 671 1536 671 1569 670 c 128,-1,25
 1602 669 1602 669 1628 664 c 1,26,27
 1647 664 1647 664 1671 613 c 128,-1,28
 1695 562 1695 562 1724 501 c 0,29,30
 1733 480 1733 480 1743 477 c 0,31,32
 1751 474 1751 474 1755 466.5 c 128,-1,33
 1759 459 1759 459 1747 453 c 1,34,35
 1716 447 1716 447 1685 448 c 128,-1,36
 1654 449 1654 449 1625 453 c 1,37,38
 1599 465 1599 465 1581 498 c 128,-1,39
 1563 531 1563 531 1533 617 c 0,40,41
 1530 622 1530 622 1521.5 632.5 c 128,-1,42
 1513 643 1513 643 1503 645 c 0,43,44
 1489 647 1489 647 1487 659 c 128,-1,45
 1485 671 1485 671 1506 671 c 0,23,24
172.5 384 m 128,-1,47
 178 392 178 392 184 392.5 c 128,-1,48
 190 393 190 393 197.5 389 c 128,-1,49
 205 385 205 385 216 379.5 c 128,-1,50
 227 374 227 374 244 370.5 c 128,-1,51
 261 367 261 367 292 367 c 2,52,-1
 1677 367 l 2,53,54
 1705 367 1705 367 1728 362.5 c 128,-1,55
 1751 358 1751 358 1770 348 c 128,-1,56
 1789 338 1789 338 1799.5 330 c 128,-1,57
 1810 322 1810 322 1828.5 302.5 c 128,-1,58
 1847 283 1847 283 1860 265 c 128,-1,59
 1873 247 1873 247 1865 230 c 1,60,61
 1857 218 1857 218 1846.5 225 c 128,-1,62
 1836 232 1836 232 1822 237 c 128,-1,63
 1808 242 1808 242 1791.5 244 c 128,-1,64
 1775 246 1775 246 1740 246 c 2,65,-1
 370 246 l 2,66,67
 347 246 347 246 328 249 c 128,-1,68
 309 252 309 252 298.5 255.5 c 128,-1,69
 288 259 288 259 276 265 c 128,-1,70
 264 271 264 271 250.5 279.5 c 128,-1,71
 237 288 237 288 222 303.5 c 128,-1,72
 207 319 207 319 191.5 339.5 c 128,-1,73
 176 360 176 360 171.5 368 c 128,-1,46
 167 376 167 376 172.5 384 c 128,-1,47
109 662 m 1,74,75
 71 731 71 731 88.5 780 c 128,-1,76
 106 829 106 829 151 833 c 0,77,78
 180 835 180 835 195.5 828.5 c 128,-1,79
 211 822 211 822 223 815.5 c 128,-1,80
 235 809 235 809 245.5 801.5 c 128,-1,81
 256 794 256 794 265 786 c 128,-1,82
 274 778 274 778 278 771.5 c 128,-1,83
 282 765 282 765 281.5 759.5 c 128,-1,84
 281 754 281 754 277 751.5 c 128,-1,85
 273 749 273 749 255.5 742.5 c 128,-1,86
 238 736 238 736 210.5 720 c 128,-1,87
 183 704 183 704 184 668 c 0,88,89
 184 630 184 630 263 596.5 c 128,-1,90
 342 563 342 563 498 569 c 2,91,-1
 944 593 l 2,92,93
 977 593 977 593 996.5 588.5 c 128,-1,94
 1016 584 1016 584 1032 577 c 128,-1,95
 1048 570 1048 570 1059 563 c 128,-1,96
 1070 556 1070 556 1085.5 543 c 128,-1,97
 1101 530 1101 530 1120.5 509 c 128,-1,98
 1140 488 1140 488 1146 478 c 128,-1,99
 1152 468 1152 468 1152 458.5 c 128,-1,100
 1152 449 1152 449 1146 446 c 128,-1,101
 1140 443 1140 443 1132.5 443 c 128,-1,102
 1125 443 1125 443 1117 446 c 128,-1,103
 1109 449 1109 449 1097.5 452.5 c 128,-1,104
 1086 456 1086 456 1072 460.5 c 128,-1,105
 1058 465 1058 465 1046 467 c 128,-1,106
 1034 469 1034 469 1014 470 c 2,107,-1
 955 475 l 1,108,109
 814 470 814 470 712.5 478 c 128,-1,110
 611 486 611 486 521.5 498 c 128,-1,111
 432 510 432 510 363.5 524 c 128,-1,112
 295 538 295 538 270 547 c 0,113,114
 227 565 227 565 193.5 582.5 c 128,-1,115
 160 600 160 600 109 662 c 1,74,75
EndSplineSet
EndChar

StartChar: p
Encoding: 112 112 73
Width: 1318
VWidth: 345
GlyphClass: 1
Flags: W
LayerCount: 2
Fore
SplineSet
958 498 m 1,0,1
 996 512 996 512 1087 496 c 1,2,3
 1140 482 1140 482 1180.5 460.5 c 128,-1,4
 1221 439 1221 439 1243 384 c 1,5,6
 1258 331 1258 331 1253 299 c 128,-1,7
 1248 267 1248 267 1218 226 c 1,8,9
 1189 191 1189 191 1150.5 173.5 c 128,-1,10
 1112 156 1112 156 1056 144 c 0,11,12
 1000 133 1000 133 965 133.5 c 128,-1,13
 930 134 930 134 889 135 c 0,14,15
 849 137 849 137 814.5 141.5 c 128,-1,16
 780 146 780 146 731 161 c 0,17,18
 650 183 650 183 571 222 c 0,19,20
 527 244 527 244 477.5 269.5 c 128,-1,21
 428 295 428 295 367 330 c 0,22,23
 339 347 339 347 305.5 366.5 c 128,-1,24
 272 386 272 386 234 406 c 1,25,26
 205 424 205 424 176.5 442.5 c 128,-1,27
 148 461 148 461 152.5 479.5 c 128,-1,28
 157 498 157 498 174 497 c 128,-1,29
 191 496 191 496 281.5 497.5 c 128,-1,30
 372 499 372 499 439 498 c 1,31,32
 466 478 466 478 438.5 469.5 c 128,-1,33
 411 461 411 461 397 448 c 0,34,35
 372 422 372 422 375 406.5 c 128,-1,36
 378 391 378 391 383.5 382.5 c 128,-1,37
 389 374 389 374 400 364.5 c 128,-1,38
 411 355 411 355 454.5 325 c 128,-1,39
 498 295 498 295 562 262 c 1,40,41
 620 237 620 237 653 221 c 128,-1,42
 686 205 686 205 760 185 c 1,43,44
 815 174 815 174 872 171.5 c 128,-1,45
 929 169 929 169 988 188 c 1,46,47
 1029 206 1029 206 1045.5 219 c 128,-1,48
 1062 232 1062 232 1083 263 c 0,49,50
 1101 293 1101 293 1103.5 314 c 128,-1,51
 1106 335 1106 335 1104 362 c 0,52,53
 1103 390 1103 390 1097.5 402.5 c 128,-1,54
 1092 415 1092 415 1083.5 428 c 128,-1,55
 1075 441 1075 441 1061.5 451.5 c 128,-1,56
 1048 462 1048 462 1020 466 c 128,-1,57
 992 470 992 470 965 473 c 0,58,59
 953 475 953 475 949.5 483 c 128,-1,60
 946 491 946 491 958 498 c 1,0,1
103 804 m 1,61,62
 65 873 65 873 82.5 922.5 c 128,-1,63
 100 972 100 972 145 975 c 0,64,65
 174 977 174 977 189.5 971 c 128,-1,66
 205 965 205 965 217 958 c 128,-1,67
 229 951 229 951 239.5 943.5 c 128,-1,68
 250 936 250 936 259 928 c 128,-1,69
 268 920 268 920 271.5 913.5 c 128,-1,70
 275 907 275 907 274.5 902 c 128,-1,71
 274 897 274 897 270.5 894.5 c 128,-1,72
 267 892 267 892 249.5 885 c 128,-1,73
 232 878 232 878 204 862.5 c 128,-1,74
 176 847 176 847 177 810 c 0,75,76
 177 772 177 772 256 738.5 c 128,-1,77
 335 705 335 705 491 712 c 2,78,-1
 1040 730 l 2,79,80
 1073 730 1073 730 1092.5 725.5 c 128,-1,81
 1112 721 1112 721 1128 714.5 c 128,-1,82
 1144 708 1144 708 1155.5 701 c 128,-1,83
 1167 694 1167 694 1181.5 680.5 c 128,-1,84
 1196 667 1196 667 1216 646 c 128,-1,85
 1236 625 1236 625 1242 615 c 128,-1,86
 1248 605 1248 605 1248 596 c 128,-1,87
 1248 587 1248 587 1242 583.5 c 128,-1,88
 1236 580 1236 580 1228.5 580 c 128,-1,89
 1221 580 1221 580 1213 583.5 c 128,-1,90
 1205 587 1205 587 1194 590.5 c 128,-1,91
 1183 594 1183 594 1168.5 598 c 128,-1,92
 1154 602 1154 602 1142.5 604 c 128,-1,93
 1131 606 1131 606 1110 607 c 2,94,-1
 900 613 l 1,95,96
 808 613 808 613 706.5 620.5 c 128,-1,97
 605 628 605 628 515 640 c 128,-1,98
 425 652 425 652 357 666 c 128,-1,99
 289 680 289 680 264 690 c 0,100,101
 221 708 221 708 187.5 725 c 128,-1,102
 154 742 154 742 103 804 c 1,61,62
EndSplineSet
EndChar

StartChar: g
Encoding: 103 103 74
Width: 18
VWidth: 345
GlyphClass: 1
Flags: W
LayerCount: 2
Fore
SplineSet
-661 800 m 0,0,1
 -651 799 -651 799 -651 784 c 0,2,3
 -651 731 -651 731 -650 686 c 128,-1,4
 -649 641 -649 641 -649 589 c 0,5,6
 -649 589 -649 589 -648 588 c 128,-1,7
 -647 587 -647 587 -647 587 c 1,8,9
 -647 577 -647 577 -649 576 c 0,10,11
 -661 572 -661 572 -678.5 574 c 128,-1,12
 -696 576 -696 576 -712 576 c 0,13,14
 -717 576 -717 576 -715 641.5 c 128,-1,15
 -713 707 -713 707 -713 759 c 1,16,17
 -774 760 -774 760 -857.5 757.5 c 128,-1,18
 -941 755 -941 755 -957 759 c 1,19,20
 -963 765 -963 765 -962 778 c 128,-1,21
 -961 791 -961 791 -956 799 c 1,22,23
 -882 798 -882 798 -808 799 c 128,-1,24
 -734 800 -734 800 -661 800 c 0,0,1
EndSplineSet
EndChar

StartChar: G
Encoding: 71 71 75
Width: 18
VWidth: 345
GlyphClass: 1
Flags: W
LayerCount: 2
Fore
SplineSet
-949 799 m 1,0,1
 -877 798 -877 798 -805 799 c 128,-1,2
 -733 800 -733 800 -661 800 c 0,3,4
 -661 800 -661 800 -660 799 c 1,5,6
 -660 799 -660 799 -660 799 c 129,-1,7
 -660 799 -660 799 -660 799 c 1,8,9
 -651 798 -651 798 -651 784 c 0,10,11
 -651 731 -651 731 -650 686 c 128,-1,12
 -649 641 -649 641 -649 589 c 0,13,14
 -649 589 -649 589 -648 588 c 128,-1,15
 -647 587 -647 587 -647 587 c 1,16,17
 -647 577 -647 577 -649 576 c 0,18,19
 -655 574 -655 574 -669 574 c 0,20,21
 -678 574 -678 574 -688.5 575 c 128,-1,22
 -699 576 -699 576 -708 576 c 0,23,24
 -708 576 -708 576 -709.5 576 c 128,-1,25
 -711 576 -711 576 -712 576 c 0,26,27
 -717 576 -717 576 -715 641.5 c 128,-1,28
 -713 707 -713 707 -713 759 c 1,29,30
 -785 760 -785 760 -860 758.5 c 128,-1,31
 -935 757 -935 757 -1001 759 c 0,32,33
 -1011 760 -1011 760 -1011 773 c 0,34,35
 -1011 829 -1011 829 -1011 873.5 c 128,-1,36
 -1011 918 -1011 918 -1011 974 c 1,37,38
 -999 978 -999 978 -981.5 976 c 128,-1,39
 -964 974 -964 974 -950 974 c 1,40,41
 -950 923 -950 923 -949.5 886.5 c 128,-1,42
 -949 850 -949 850 -949 799 c 1,0,1
EndSplineSet
EndChar

StartChar: zero
Encoding: 48 48 76
Width: 1524
VWidth: 345
GlyphClass: 1
Flags: W
LayerCount: 2
Fore
SplineSet
108 443 m 1,0,1
 70 512 70 512 87.5 561.5 c 128,-1,2
 105 611 105 611 150 614 c 0,3,4
 179 616 179 616 194.5 609.5 c 128,-1,5
 210 603 210 603 221.5 596.5 c 128,-1,6
 233 590 233 590 243.5 582.5 c 128,-1,7
 254 575 254 575 263.5 567 c 128,-1,8
 273 559 273 559 276.5 552.5 c 128,-1,9
 280 546 280 546 279.5 540.5 c 128,-1,10
 279 535 279 535 275.5 533 c 128,-1,11
 272 531 272 531 254.5 524 c 128,-1,12
 237 517 237 517 209 501.5 c 128,-1,13
 181 486 181 486 182 449 c 0,14,15
 182 411 182 411 261 377.5 c 128,-1,16
 340 344 340 344 496 350 c 1,17,-1
 1230 369 l 2,18,19
 1263 369 1263 369 1283 364.5 c 128,-1,20
 1303 360 1303 360 1318.5 353 c 128,-1,21
 1334 346 1334 346 1345.5 339.5 c 128,-1,22
 1357 333 1357 333 1372 319.5 c 128,-1,23
 1387 306 1387 306 1406.5 285 c 128,-1,24
 1426 264 1426 264 1432 254 c 128,-1,25
 1438 244 1438 244 1438 234.5 c 128,-1,26
 1438 225 1438 225 1432 222 c 128,-1,27
 1426 219 1426 219 1419 219 c 128,-1,28
 1412 219 1412 219 1404 222 c 128,-1,29
 1396 225 1396 225 1384.5 229 c 128,-1,30
 1373 233 1373 233 1359 237 c 128,-1,31
 1345 241 1345 241 1333 243 c 128,-1,32
 1321 245 1321 245 1300 246 c 2,33,-1
 905 252 l 2,34,35
 813 252 813 252 711.5 259.5 c 128,-1,36
 610 267 610 267 520 279 c 128,-1,37
 430 291 430 291 362 305 c 128,-1,38
 294 319 294 319 269 328 c 0,39,40
 226 346 226 346 192.5 363.5 c 128,-1,41
 159 381 159 381 108 443 c 1,0,1
EndSplineSet
EndChar

StartChar: v
Encoding: 118 118 77
Width: 737
VWidth: 345
GlyphClass: 1
Flags: W
LayerCount: 2
Fore
SplineSet
664 360 m 1,0,1
 669 331 669 331 669.5 313 c 128,-1,2
 670 295 670 295 663 277 c 1,3,4
 649 277 649 277 617 279 c 128,-1,5
 585 281 585 281 578 264 c 0,6,7
 569 241 569 241 568 225 c 128,-1,8
 567 209 567 209 574 174 c 1,9,10
 582 144 582 144 612.5 154 c 128,-1,11
 643 164 643 164 666 167 c 1,12,13
 668 148 668 148 660 120.5 c 128,-1,14
 652 93 652 93 646 85 c 0,15,16
 628 67 628 67 608 68 c 0,17,18
 597 68 597 68 585 79.5 c 128,-1,19
 573 91 573 91 570 101 c 0,20,21
 556 140 556 140 549 193.5 c 128,-1,22
 542 247 542 247 561 283 c 1,23,-1
 476 287 l 1,24,25
 472 212 472 212 467 182.5 c 128,-1,26
 462 153 462 153 451 107 c 0,27,28
 441 67 441 67 412 68 c 0,29,30
 399 68 399 68 391 77 c 0,31,32
 384 83 384 83 384 96 c 0,33,34
 384 100 384 100 385.5 107.5 c 128,-1,35
 387 115 387 115 394.5 125 c 128,-1,36
 402 135 402 135 406 139 c 0,37,38
 412 148 412 148 421.5 156 c 128,-1,39
 431 164 431 164 438 179 c 0,40,41
 444 194 444 194 453 240.5 c 128,-1,42
 462 287 462 287 438 287 c 0,43,44
 418 287 418 287 404 281 c 0,45,46
 386 273 386 273 372 250 c 1,47,-1
 361 250 l 1,48,49
 368 298 368 298 378.5 322.5 c 128,-1,50
 389 347 389 347 398 355 c 0,51,52
 415 370 415 370 444 370 c 0,53,54
 495 370 495 370 554 365 c 128,-1,55
 613 360 613 360 664 360 c 1,0,1
EndSplineSet
EndChar

StartChar: N
Encoding: 78 78 78
Width: 0
VWidth: 345
GlyphClass: 1
Flags: W
LayerCount: 2
Fore
SplineSet
-156 -544 m 1,0,1
 -160 -552 -160 -552 -188.5 -550 c 128,-1,2
 -217 -548 -217 -548 -248 -528.5 c 128,-1,3
 -279 -509 -279 -509 -302 -470.5 c 128,-1,4
 -325 -432 -325 -432 -317 -367 c 0,5,6
 -305 -262 -305 -262 -313.5 -194.5 c 128,-1,7
 -322 -127 -322 -127 -382 -140 c 0,8,9
 -420 -149 -420 -149 -402 -183 c 128,-1,10
 -384 -217 -384 -217 -425 -230 c 0,11,12
 -443 -236 -443 -236 -458.5 -222 c 128,-1,13
 -474 -208 -474 -208 -474 -189 c 0,14,15
 -474 -143 -474 -143 -434 -128 c 0,16,17
 -412 -120 -412 -120 -375 -120 c 128,-1,18
 -338 -120 -338 -120 -311 -137 c 0,19,20
 -256 -173 -256 -173 -240 -217 c 128,-1,21
 -224 -261 -224 -261 -224 -423 c 0,22,23
 -224 -502 -224 -502 -189 -515.5 c 128,-1,24
 -154 -529 -154 -529 -156 -544 c 1,0,1
126 -544 m 1,25,26
 122 -552 122 -552 93.5 -550 c 128,-1,27
 65 -548 65 -548 33.5 -528.5 c 128,-1,28
 2 -509 2 -509 -20.5 -470.5 c 128,-1,29
 -43 -432 -43 -432 -36 -367 c 0,30,31
 -24 -262 -24 -262 -32 -194.5 c 128,-1,32
 -40 -127 -40 -127 -100 -140 c 0,33,34
 -138 -149 -138 -149 -120 -183 c 128,-1,35
 -102 -217 -102 -217 -143 -230 c 0,36,37
 -161 -236 -161 -236 -176 -222 c 128,-1,38
 -191 -208 -191 -208 -191 -189 c 0,39,40
 -191 -143 -191 -143 -152 -128 c 0,41,42
 -130 -120 -130 -120 -93 -120 c 128,-1,43
 -56 -120 -56 -120 -28 -137 c 0,44,45
 26 -173 26 -173 42 -217 c 128,-1,46
 58 -261 58 -261 59 -423 c 0,47,48
 59 -502 59 -502 93.5 -515.5 c 128,-1,49
 128 -529 128 -529 126 -544 c 1,25,26
EndSplineSet
EndChar

StartChar: n
Encoding: 110 110 79
Width: 692
VWidth: 345
GlyphClass: 1
Flags: W
LayerCount: 2
Fore
SplineSet
360 330 m 1,0,1
 498 330 498 330 543.5 340.5 c 128,-1,2
 589 351 589 351 589 351 c 1,3,-1
 586 376 l 2,4,5
 579 426 579 426 630 425 c 0,6,7
 659 424 659 424 659 382.5 c 128,-1,8
 659 341 659 341 618 330 c 0,9,10
 570 317 570 317 549 315 c 128,-1,11
 528 313 528 313 430 305 c 1,12,-1
 430 68 l 1,13,-1
 360 68 l 1,14,-1
 360 330 l 1,0,1
EndSplineSet
EndChar

StartChar: M
Encoding: 77 77 80
Width: 26
VWidth: 345
GlyphClass: 1
Flags: W
LayerCount: 2
Fore
SplineSet
-308 -427 m 1,0,1
 -334 -393 -334 -393 -333 -351 c 0,2,3
 -333 -298 -333 -298 -295.5 -260.5 c 128,-1,4
 -258 -223 -258 -223 -206 -223 c 0,5,6
 -163 -223 -163 -223 -126 -251 c 1,7,-1
 -5 -130 l 2,8,9
 7 -118 7 -118 16 -129.5 c 128,-1,10
 25 -141 25 -141 15 -151 c 0,11,12
 6 -160 6 -160 -46.5 -213.5 c 128,-1,13
 -99 -267 -99 -267 -105 -272 c 1,14,15
 -78 -306 -78 -306 -78 -351 c 0,16,17
 -78 -404 -78 -404 -115.5 -441.5 c 128,-1,18
 -153 -479 -153 -479 -206 -479 c 0,19,20
 -252 -479 -252 -479 -287 -449 c 1,21,-1
 -402 -568 l 2,22,23
 -414 -581 -414 -581 -426 -568 c 128,-1,24
 -438 -555 -438 -555 -427 -544 c 0,25,26
 -417 -534 -417 -534 -365.5 -483.5 c 128,-1,27
 -314 -433 -314 -433 -308 -427 c 1,0,1
-206 -254 m 0,28,29
 -247 -254 -247 -254 -275 -282.5 c 128,-1,30
 -303 -311 -303 -311 -303 -351 c 0,31,32
 -303 -392 -303 -392 -274.5 -420 c 128,-1,33
 -246 -448 -246 -448 -206 -448 c 0,34,35
 -166 -448 -166 -448 -137 -419.5 c 128,-1,36
 -108 -391 -108 -391 -108 -351 c 0,37,38
 -108 -311 -108 -311 -137 -282.5 c 128,-1,39
 -166 -254 -166 -254 -206 -254 c 0,28,29
EndSplineSet
EndChar

StartChar: comma
Encoding: 44 44 81
Width: 746
VWidth: 345
GlyphClass: 1
Flags: W
LayerCount: 2
Fore
SplineSet
637 364 m 1,0,1
 612 327 612 327 586 290.5 c 128,-1,2
 560 254 560 254 536 217 c 1,3,4
 537 174 537 174 555 146 c 1,5,6
 576 116 576 116 591.5 114 c 128,-1,7
 607 112 607 112 631 152 c 1,8,9
 645 168 645 168 658.5 162.5 c 128,-1,10
 672 157 672 157 675 147 c 0,11,12
 681 126 681 126 674.5 111 c 128,-1,13
 668 96 668 96 664 90 c 0,14,15
 659 83 659 83 645 75.5 c 128,-1,16
 631 68 631 68 617 69 c 0,17,18
 598 70 598 70 587 75 c 0,19,20
 577 80 577 80 565 97 c 0,21,22
 554 111 554 111 548 121 c 128,-1,23
 542 131 542 131 539 137 c 0,24,25
 536 143 536 143 531 159 c 128,-1,26
 526 175 526 175 524 199 c 1,27,-1
 444 82 l 1,28,-1
 385 82 l 1,29,30
 404 110 404 110 422 133.5 c 128,-1,31
 440 157 440 157 463 195 c 0,32,33
 469 205 469 205 468.5 243.5 c 128,-1,34
 468 282 468 282 465 294 c 0,35,36
 457 319 457 319 440 319 c 0,37,38
 430 319 430 319 423.5 313 c 128,-1,39
 417 307 417 307 401 310 c 0,40,41
 391 311 391 311 386.5 325.5 c 128,-1,42
 382 340 382 340 391 355 c 0,43,44
 401 373 401 373 431 372 c 0,45,46
 449 372 449 372 463 358 c 0,47,48
 479 342 479 342 481 319 c 0,49,50
 484 295 484 295 486 273.5 c 128,-1,51
 488 252 488 252 483 225 c 1,52,-1
 578 364 l 1,53,-1
 637 364 l 1,0,1
EndSplineSet
EndChar

StartChar: period
Encoding: 46 46 82
Width: 783
VWidth: 345
GlyphClass: 1
Flags: W
LayerCount: 2
Fore
SplineSet
421 408 m 0,0,1
 457 429 457 429 498 417 c 0,2,3
 513 412 513 412 526 399.5 c 128,-1,4
 539 387 539 387 555 381 c 0,5,6
 565 377 565 377 579 379.5 c 128,-1,7
 593 382 593 382 605 385 c 0,8,9
 610 385 610 385 617.5 393.5 c 0,10,11
 625 401 625 401 632 407 c 0,12,13
 652 422 652 422 667 422 c 1,14,15
 678 423 678 423 677.5 406 c 128,-1,16
 677 389 677 389 667 383 c 1,17,-1
 455 155 l 1,18,19
 475 167 475 167 497.5 175.5 c 128,-1,20
 520 184 520 184 568 178 c 0,21,22
 581 177 581 177 600.5 160.5 c 128,-1,23
 620 144 620 144 641 131 c 128,-1,24
 662 118 662 118 681.5 117.5 c 128,-1,25
 701 117 701 117 714 148 c 0,26,27
 714 149 714 149 715.5 159 c 128,-1,28
 717 169 717 169 711 165 c 0,29,30
 683 149 683 149 674.5 186 c 128,-1,31
 666 223 666 223 701 226 c 0,32,33
 730 229 730 229 738.5 211 c 128,-1,34
 747 193 747 193 747 170 c 0,35,36
 747 143 747 143 719 105.5 c 128,-1,37
 691 68 691 68 614 68 c 0,38,39
 588 68 588 68 567 82.5 c 128,-1,40
 546 97 546 97 525 110 c 128,-1,41
 504 123 504 123 478.5 125.5 c 128,-1,42
 453 128 453 128 418 102 c 0,43,44
 413 98 413 98 411.5 94.5 c 128,-1,45
 410 91 410 91 405 86 c 0,46,47
 388 65 388 65 368.5 78 c 128,-1,48
 349 91 349 91 360 105 c 2,49,-1
 580 340 l 1,50,51
 580 345 580 345 549.5 335 c 128,-1,52
 519 325 519 325 499 335 c 0,53,54
 475 348 475 348 468.5 357 c 128,-1,55
 462 366 462 366 448 366 c 0,56,57
 425 366 425 366 413 357.5 c 128,-1,58
 401 349 401 349 397 348 c 0,59,60
 367 340 367 340 393 373 c 128,-1,61
 419 406 419 406 421 408 c 0,0,1
EndSplineSet
EndChar

StartChar: B
Encoding: 66 66 83
Width: 23
VWidth: 345
GlyphClass: 1
Flags: W
LayerCount: 2
Fore
SplineSet
-457 -210 m 0,0,1
 -460 -171 -460 -171 -432 -147 c 0,2,3
 -411 -131 -411 -131 -359 -137 c 128,-1,4
 -307 -143 -307 -143 -267 -203 c 1,5,-1
 -116 -441 l 2,6,7
 -115 -442 -115 -442 -98.5 -395.5 c 128,-1,8
 -82 -349 -82 -349 -62 -345 c 0,9,10
 -16 -338 -16 -338 -5 -358 c 0,11,12
 -1 -368 -1 -368 -8 -367 c 128,-1,13
 -15 -366 -15 -366 -31 -388 c 1,14,15
 -31 -388 -31 -388 -43.5 -410.5 c 128,-1,16
 -56 -433 -56 -433 -60.5 -461 c 128,-1,17
 -65 -489 -65 -489 -51.5 -514 c 128,-1,18
 -38 -539 -38 -539 14 -545 c 1,19,20
 23 -567 23 -567 -17 -559 c 0,21,22
 -45 -552 -45 -552 -77.5 -527 c 128,-1,23
 -110 -502 -110 -502 -119 -482 c 1,24,-1
 -207 -348 l 1,25,-1
 -281 -552 l 1,26,-1
 -352 -551 l 1,27,-1
 -242 -296 l 1,28,29
 -276 -210 -276 -210 -333.5 -171 c 128,-1,30
 -391 -132 -391 -132 -386 -225 c 0,31,32
 -385 -244 -385 -244 -418 -252.5 c 128,-1,33
 -451 -261 -451 -261 -457 -210 c 0,0,1
EndSplineSet
EndChar

StartChar: greater
Encoding: 62 62 84
Width: 365
VWidth: 345
GlyphClass: 1
Flags: W
LayerCount: 2
Fore
SplineSet
-433 -253 m 1,0,1
 -461 -272 -461 -272 -483 -288 c 128,-1,2
 -505 -304 -505 -304 -527 -315 c 0,3,4
 -570 -336 -570 -336 -620 -323 c 0,5,6
 -668 -310 -668 -310 -674.5 -270 c 128,-1,7
 -681 -230 -681 -230 -672 -207 c 0,8,9
 -668 -196 -668 -196 -652.5 -177 c 128,-1,10
 -637 -158 -637 -158 -592 -150 c 0,11,12
 -570 -146 -570 -146 -521 -150 c 128,-1,13
 -472 -154 -472 -154 -391 -221 c 0,14,15
 -358 -248 -358 -248 -290.5 -310 c 128,-1,16
 -223 -372 -223 -372 -179 -394 c 0,17,18
 -168 -399 -168 -399 -149 -400 c 128,-1,19
 -130 -401 -130 -401 -121 -400 c 0,20,21
 -96 -398 -96 -398 -48 -363.5 c 128,-1,22
 0 -329 0 -329 47.5 -288 c 128,-1,23
 95 -247 95 -247 130.5 -213.5 c 128,-1,24
 166 -180 166 -180 166 -180 c 2,25,26
 175 -174 175 -174 205 -170 c 128,-1,27
 235 -166 235 -166 267.5 -166 c 128,-1,28
 300 -166 300 -166 324.5 -169 c 128,-1,29
 349 -172 349 -172 347 -179 c 0,30,31
 344 -191 344 -191 327.5 -196 c 128,-1,32
 311 -201 311 -201 301 -201 c 1,33,34
 218 -260 218 -260 146.5 -331.5 c 128,-1,35
 75 -403 75 -403 -15 -423 c 0,36,37
 -62 -433 -62 -433 -99.5 -435.5 c 128,-1,38
 -137 -438 -137 -438 -185 -427 c 1,39,40
 -261 -398 -261 -398 -321.5 -354 c 128,-1,41
 -382 -310 -382 -310 -433 -253 c 1,0,1
-454 -226 m 1,42,43
 -470 -215 -470 -215 -483.5 -200 c 128,-1,44
 -497 -185 -497 -185 -528 -175 c 0,45,46
 -559 -165 -559 -165 -598 -182 c 128,-1,47
 -637 -199 -637 -199 -620 -229 c 0,48,49
 -594 -274 -594 -274 -552.5 -267 c 128,-1,50
 -511 -260 -511 -260 -454 -226 c 1,42,43
EndSplineSet
EndChar

StartChar: slash
Encoding: 47 47 85
Width: 148
VWidth: 345
GlyphClass: 1
Flags: W
LayerCount: 2
Fore
SplineSet
27 344 m 1,0,-1
 38 448 l 2,1,2
 43 492 43 492 48 508 c 0,3,4
 54 530 54 530 67 540 c 256,5,6
 80 550 80 550 96 550 c 0,7,8
 109 550 109 550 116 543 c 0,9,10
 124 536 124 536 125 525 c 0,11,12
 125 517 125 517 121 507 c 0,13,14
 117 494 117 494 94 448 c 2,15,-1
 43 344 l 1,16,-1
 27 344 l 1,0,-1
EndSplineSet
EndChar

StartChar: c
Encoding: 99 99 86
Width: 731
VWidth: 345
GlyphClass: 1
Flags: W
LayerCount: 2
Fore
SplineSet
493 61 m 1,0,1
 484 102 484 102 486 131 c 128,-1,2
 488 160 488 160 468 227 c 0,3,4
 463 239 463 239 459.5 251 c 128,-1,5
 456 263 456 263 449 271 c 0,6,7
 438 281 438 281 429 286 c 0,8,9
 409 298 409 298 406 301 c 0,10,11
 400 306 400 306 398 311.5 c 128,-1,12
 396 317 396 317 395 326 c 0,13,14
 394 343 394 343 400 349 c 0,15,16
 408 357 408 357 418 356 c 0,17,18
 428 355 428 355 440 344 c 0,19,20
 446 338 446 338 454 325 c 0,21,22
 459 318 459 318 462.5 303 c 128,-1,23
 466 288 466 288 471 275 c 0,24,25
 482 243 482 243 489.5 211.5 c 128,-1,26
 497 180 497 180 501 144 c 1,27,28
 525 183 525 183 547.5 217 c 128,-1,29
 570 251 570 251 585 313 c 1,30,31
 587 332 587 332 583.5 347 c 128,-1,32
 580 362 580 362 587 365 c 1,33,34
 624 341 624 341 623 285.5 c 128,-1,35
 622 230 622 230 599 196 c 0,36,37
 578 165 578 165 552.5 133.5 c 128,-1,38
 527 102 527 102 500 63 c 0,39,40
 498 61 498 61 493 61 c 1,0,1
EndSplineSet
EndChar

StartChar: C
Encoding: 67 67 87
Width: 36
VWidth: 345
GlyphClass: 1
Flags: W
LayerCount: 2
Fore
SplineSet
-375 -371 m 0,0,1
 -413 -398 -413 -398 -425 -443 c 0,2,3
 -433 -478 -433 -478 -426 -509 c 0,4,5
 -418 -541 -418 -541 -358 -509 c 0,6,7
 -324 -492 -324 -492 -314.5 -474 c 128,-1,8
 -305 -456 -305 -456 -302 -427.5 c 128,-1,9
 -299 -399 -299 -399 -313 -304 c 0,10,11
 -316 -285 -316 -285 -317 -238 c 0,12,13
 -317 -193 -317 -193 -290 -150 c 0,14,15
 -275 -126 -275 -126 -243 -120 c 0,16,17
 -212 -115 -212 -115 -189 -115 c 0,18,19
 -136 -115 -136 -115 -111 -165 c 1,20,21
 -107 -208 -107 -208 -107 -230 c 0,22,23
 -108 -256 -108 -256 -106 -278 c 1,24,25
 -106 -312 -106 -312 -96 -333 c 1,26,27
 -87 -345 -87 -345 -53 -349 c 1,28,29
 -19 -361 -19 -361 -17 -411 c 0,30,31
 -16 -444 -16 -444 -19 -476.5 c 128,-1,32
 -22 -509 -22 -509 -17 -542 c 0,33,34
 -16 -552 -16 -552 -9 -576 c 0,35,36
 -4 -591 -4 -591 26 -601 c 0,37,38
 33 -603 33 -603 35 -604 c 1,39,40
 35 -608 35 -608 -0.5 -603.5 c 128,-1,41
 -36 -599 -36 -599 -45 -595 c 0,42,43
 -86 -577 -86 -577 -96 -529 c 0,44,45
 -102 -499 -102 -499 -100 -468 c 128,-1,46
 -98 -437 -98 -437 -104 -406 c 1,47,48
 -104 -367 -104 -367 -128 -361 c 1,49,50
 -150 -359 -150 -359 -171 -334 c 0,51,52
 -191 -308 -191 -308 -186 -249 c 1,53,54
 -176 -201 -176 -201 -200 -191 c 0,55,56
 -208 -188 -208 -188 -235 -186 c 0,57,58
 -259 -186 -259 -186 -271 -199 c 1,59,60
 -285 -220 -285 -220 -284 -247 c 0,61,62
 -284 -266 -284 -266 -287 -303 c 1,63,64
 -283 -390 -283 -390 -281.5 -436.5 c 128,-1,65
 -280 -483 -280 -483 -288 -514.5 c 128,-1,66
 -296 -546 -296 -546 -334 -565 c 0,67,68
 -408 -606 -408 -606 -457 -550 c 0,69,70
 -468 -535 -468 -535 -480 -514 c 1,71,72
 -490 -478 -490 -478 -482 -437 c 0,73,74
 -465 -370 -465 -370 -414 -347 c 1,75,76
 -394 -334 -394 -334 -361 -330 c 1,77,78
 -344 -331 -344 -331 -330 -335 c 1,79,80
 -302 -347 -302 -347 -325 -349 c 0,81,82
 -347 -352 -347 -352 -375 -371 c 0,0,1
EndSplineSet
EndChar

StartChar: b
Encoding: 98 98 88
Width: 701
VWidth: 345
GlyphClass: 1
Flags: W
LayerCount: 2
Fore
SplineSet
492 225 m 0,0,1
 473 228 473 228 452 206 c 128,-1,2
 431 184 431 184 422 152 c 0,3,4
 406 89 406 89 441 86 c 0,5,6
 461 84 461 84 482.5 99 c 128,-1,7
 504 114 504 114 514 138 c 0,8,9
 532 182 532 182 523.5 201.5 c 128,-1,10
 515 221 515 221 492 225 c 0,0,1
461 380 m 1,11,12
 473 354 473 354 491 352.5 c 128,-1,13
 509 351 509 351 519 352 c 0,14,15
 533 352 533 352 537.5 374.5 c 128,-1,16
 542 397 542 397 528 402 c 0,17,18
 507 409 507 409 493 401.5 c 128,-1,19
 479 394 479 394 461 380 c 1,11,12
428 340 m 1,20,21
 409 306 409 306 404 273.5 c 128,-1,22
 399 241 399 241 399 222 c 1,23,24
 456 278 456 278 522.5 249 c 128,-1,25
 589 220 589 220 581 159 c 0,26,27
 575 114 575 114 552 83.5 c 128,-1,28
 529 53 529 53 452 55 c 0,29,30
 403 56 403 56 381.5 91.5 c 128,-1,31
 360 127 360 127 360 180 c 0,32,33
 360 266 360 266 401 352.5 c 128,-1,34
 442 439 442 439 515 438 c 0,35,36
 582 437 582 437 574 379.5 c 128,-1,37
 566 322 566 322 526 322 c 0,38,39
 492 322 492 322 469.5 329.5 c 128,-1,40
 447 337 447 337 428 340 c 1,20,21
EndSplineSet
EndChar

StartChar: less
Encoding: 60 60 89
Width: 0
VWidth: 345
GlyphClass: 1
Flags: W
LayerCount: 2
Fore
SplineSet
-301 14 m 0,0,1
 -270 14 -270 14 -270 -17 c 256,2,3
 -270 -48 -270 -48 -301 -48 c 0,4,5
 -332 -48 -332 -48 -332 -17 c 256,6,7
 -332 14 -332 14 -301 14 c 0,0,1
-163 14 m 256,8,9
 -132 14 -132 14 -131 -17 c 256,10,11
 -131 -48 -131 -48 -163 -48 c 256,12,13
 -194 -48 -194 -48 -194 -17 c 256,14,15
 -194 14 -194 14 -163 14 c 256,8,9
EndSplineSet
EndChar

StartChar: question
Encoding: 63 63 90
Width: 83
VWidth: 345
GlyphClass: 1
Flags: W
LayerCount: 2
Fore
SplineSet
-593 14 m 0,0,1
 -580 49 -580 49 -520 38 c 0,2,3
 -507 36 -507 36 -504 10 c 128,-1,4
 -501 -16 -501 -16 -522 -46 c 0,5,6
 -538 -67 -538 -67 -532.5 -90 c 128,-1,7
 -527 -113 -527 -113 -473 -120 c 1,8,9
 -357 -127 -357 -127 -291 -120 c 128,-1,10
 -225 -113 -225 -113 -113 -102 c 0,11,12
 -47 -97 -47 -97 32 -96 c 0,13,14
 83 -97 83 -97 102.5 -134 c 128,-1,15
 122 -171 122 -171 117 -212 c 0,16,17
 109 -281 109 -281 55 -276 c 0,18,19
 42 -275 42 -275 29.5 -257.5 c 128,-1,20
 17 -240 17 -240 28 -217 c 0,21,22
 38 -194 38 -194 52.5 -192.5 c 128,-1,23
 67 -191 67 -191 73 -167 c 0,24,25
 83 -128 83 -128 35 -131 c 0,26,27
 -112 -139 -112 -139 -188 -149 c 128,-1,28
 -264 -159 -264 -159 -331.5 -160.5 c 128,-1,29
 -399 -162 -399 -162 -457 -154 c 0,30,31
 -497 -148 -497 -148 -538.5 -126.5 c 128,-1,32
 -580 -105 -580 -105 -594 -59 c 0,33,34
 -606 -18 -606 -18 -593 14 c 0,0,1
EndSplineSet
EndChar

StartChar: bracketleft
Encoding: 91 91 91
Width: 0
VWidth: 345
GlyphClass: 1
Flags: W
LayerCount: 2
Fore
SplineSet
-1137 -44 m 1,0,1
 -1121 -2 -1121 -2 -1107.5 28 c 128,-1,2
 -1094 58 -1094 58 -1083 58 c 0,3,4
 -1053 63 -1053 63 -1015 64 c 128,-1,5
 -977 65 -977 65 -943 65 c 0,6,7
 -919 65 -919 65 -921 52 c 128,-1,8
 -923 39 -923 39 -939 36 c 0,9,10
 -952 34 -952 34 -961 25.5 c 128,-1,11
 -970 17 -970 17 -973 12 c 0,12,13
 -1008 -75 -1008 -75 -1027.5 -139.5 c 128,-1,14
 -1047 -204 -1047 -204 -1078 -216 c 1,15,16
 -1110 -220 -1110 -220 -1145.5 -221 c 128,-1,17
 -1181 -222 -1181 -222 -1215 -216 c 1,18,19
 -1230 -210 -1230 -210 -1225.5 -203 c 128,-1,20
 -1221 -196 -1221 -196 -1211 -193 c 0,21,22
 -1201 -191 -1201 -191 -1189 -169 c 0,23,24
 -1171 -137 -1171 -137 -1154 -89 c 1,25,-1
 -1992 -89 l 1,26,-1
 -2043 -93 l 2,27,28
 -2054 -93 -2054 -93 -2068 -92.5 c 128,-1,29
 -2082 -92 -2082 -92 -2093 -91 c 0,30,31
 -2114 -89 -2114 -89 -2113.5 -66.5 c 128,-1,32
 -2113 -44 -2113 -44 -2091 -44 c 2,33,-1
 -1137 -44 l 1,0,1
EndSplineSet
EndChar

StartChar: braceleft
Encoding: 123 123 92
Width: 0
VWidth: 345
GlyphClass: 1
Flags: W
LayerCount: 2
Fore
SplineSet
-93 -43 m 1,0,1
 -77 -1 -77 -1 -64 29.5 c 128,-1,2
 -51 60 -51 60 -39 60 c 0,3,4
 -9 64 -9 64 29 65.5 c 128,-1,5
 67 67 67 67 101 67 c 0,6,7
 124 67 124 67 122.5 54 c 128,-1,8
 121 41 121 41 104 38 c 0,9,10
 92 36 92 36 83 27 c 128,-1,11
 74 18 74 18 71 13 c 0,12,13
 36 -74 36 -74 16.5 -138.5 c 128,-1,14
 -3 -203 -3 -203 -34 -215 c 1,15,16
 -66 -219 -66 -219 -101.5 -220 c 128,-1,17
 -137 -221 -137 -221 -172 -215 c 1,18,19
 -187 -209 -187 -209 -182 -201.5 c 128,-1,20
 -177 -194 -177 -194 -167 -191 c 0,21,22
 -157 -189 -157 -189 -146 -168 c 0,23,24
 -136 -150 -136 -150 -127 -129.5 c 128,-1,25
 -118 -109 -118 -109 -110 -88 c 1,26,-1
 -948 -88 l 1,27,-1
 -1000 -91 l 2,28,29
 -1027 -92 -1027 -92 -1049 -89 c 0,30,31
 -1070 -87 -1070 -87 -1069.5 -65 c 128,-1,32
 -1069 -43 -1069 -43 -1047 -43 c 2,33,-1
 -93 -43 l 1,0,1
EndSplineSet
EndChar

StartChar: S
Encoding: 83 83 93
Width: 18
VWidth: 345
GlyphClass: 1
Flags: W
LayerCount: 2
Fore
SplineSet
-465 949 m 0,0,1
 -391 949 -391 949 -316.5 949.5 c 128,-1,2
 -242 950 -242 950 -169 951 c 1,3,4
 -164 944 -164 944 -165 933 c 128,-1,5
 -166 922 -166 922 -168 914 c 1,6,7
 -183 911 -183 911 -266.5 911 c 128,-1,8
 -350 911 -350 911 -412 911 c 1,9,10
 -412 859 -412 859 -409.5 805 c 128,-1,11
 -407 751 -407 751 -413 750 c 0,12,13
 -428 750 -428 750 -445.5 747.5 c 128,-1,14
 -463 745 -463 745 -476 750 c 0,15,16
 -477 750 -477 750 -478 760 c 0,17,18
 -478 760 -478 760 -477 761 c 128,-1,19
 -476 762 -476 762 -476 762 c 0,20,21
 -476 815 -476 815 -475.5 848 c 128,-1,22
 -475 881 -475 881 -475 933 c 0,23,24
 -475 948 -475 948 -465 949 c 0,0,1
EndSplineSet
EndChar

StartChar: l
Encoding: 108 108 94
Width: 1469
VWidth: 345
GlyphClass: 1
Flags: W
LayerCount: 2
Fore
SplineSet
753 660 m 0,0,1
 787 660 787 660 824.5 659.5 c 128,-1,2
 862 659 862 659 893 655 c 1,3,4
 914 655 914 655 933 604 c 128,-1,5
 952 553 952 553 986 502 c 0,6,7
 998 484 998 484 1008 483 c 0,8,9
 1017 481 1017 481 1022 474.5 c 128,-1,10
 1027 468 1027 468 1012 463 c 1,11,12
 977 458 977 458 942 459 c 128,-1,13
 907 460 907 460 875 463 c 1,14,15
 844 473 844 473 831 509.5 c 128,-1,16
 818 546 818 546 783 617 c 1,17,18
 773 633 773 633 749 637 c 0,19,20
 733 639 733 639 731 649.5 c 128,-1,21
 729 660 729 660 753 660 c 0,0,1
504 662 m 0,22,23
 534 662 534 662 567 661 c 128,-1,24
 600 660 600 660 626 656 c 1,25,26
 645 656 645 656 666 603.5 c 128,-1,27
 687 551 687 551 715 501 c 0,28,29
 725 483 725 483 734 481 c 0,30,31
 742 479 742 479 746.5 473 c 128,-1,32
 751 467 751 467 738 462 c 1,33,34
 707 457 707 457 676.5 458 c 128,-1,35
 646 459 646 459 618 462 c 1,36,37
 592 472 592 472 577 509 c 128,-1,38
 562 546 562 546 531 618 c 0,39,40
 528 622 528 622 520 630.5 c 128,-1,41
 512 639 512 639 501 641 c 0,42,43
 487 643 487 643 485 652 c 128,-1,44
 483 661 483 661 504 662 c 0,22,23
658 949 m 0,45,46
 731 949 731 949 806 949.5 c 128,-1,47
 881 950 881 950 955 951 c 1,48,49
 960 944 960 944 958.5 933 c 128,-1,50
 957 922 957 922 955 914 c 1,51,52
 940 911 940 911 856 911 c 128,-1,53
 772 911 772 911 711 911 c 1,54,55
 711 859 711 859 713.5 805 c 128,-1,56
 716 751 716 751 710 750 c 0,57,58
 694 750 694 750 677 747.5 c 128,-1,59
 660 745 660 745 647 750 c 0,60,61
 646 750 646 750 646 760 c 0,62,63
 646 760 646 760 646.5 761 c 128,-1,64
 647 762 647 762 647 762 c 0,65,66
 647 815 647 815 648 848 c 128,-1,67
 649 881 649 881 649 933 c 0,68,69
 649 948 649 948 658 949 c 0,45,46
85 384 m 128,-1,71
 90 392 90 392 96.5 392.5 c 128,-1,72
 103 393 103 393 110 389 c 128,-1,73
 117 385 117 385 128 379.5 c 128,-1,74
 139 374 139 374 156 370.5 c 128,-1,75
 173 367 173 367 204 367 c 2,76,-1
 1198 367 l 2,77,78
 1226 367 1226 367 1249 362.5 c 128,-1,79
 1272 358 1272 358 1291.5 348 c 128,-1,80
 1311 338 1311 338 1321.5 330 c 128,-1,81
 1332 322 1332 322 1350 302.5 c 128,-1,82
 1368 283 1368 283 1381.5 265 c 128,-1,83
 1395 247 1395 247 1387 230 c 1,84,85
 1379 218 1379 218 1368.5 225 c 128,-1,86
 1358 232 1358 232 1344 237 c 128,-1,87
 1330 242 1330 242 1313 244 c 128,-1,88
 1296 246 1296 246 1262 246 c 2,89,-1
 282 246 l 2,90,91
 259 246 259 246 240 249 c 128,-1,92
 221 252 221 252 210.5 255.5 c 128,-1,93
 200 259 200 259 188 265 c 128,-1,94
 176 271 176 271 162.5 279.5 c 128,-1,95
 149 288 149 288 134 303.5 c 128,-1,96
 119 319 119 319 103.5 339.5 c 128,-1,97
 88 360 88 360 84 368 c 128,-1,70
 80 376 80 376 85 384 c 128,-1,71
EndSplineSet
EndChar

StartChar: L
Encoding: 76 76 95
Width: 1469
VWidth: 345
GlyphClass: 1
Flags: W
LayerCount: 2
Fore
SplineSet
753 660 m 0,0,1
 787 660 787 660 824.5 659.5 c 128,-1,2
 862 659 862 659 893 655 c 1,3,4
 914 655 914 655 933 604 c 128,-1,5
 952 553 952 553 986 502 c 0,6,7
 998 484 998 484 1008 483 c 0,8,9
 1017 481 1017 481 1022 474.5 c 128,-1,10
 1027 468 1027 468 1012 463 c 1,11,12
 977 458 977 458 942 459 c 128,-1,13
 907 460 907 460 875 463 c 1,14,15
 844 473 844 473 831 509.5 c 128,-1,16
 818 546 818 546 783 617 c 1,17,18
 773 633 773 633 749 637 c 0,19,20
 733 639 733 639 731 649.5 c 128,-1,21
 729 660 729 660 753 660 c 0,0,1
504 662 m 0,22,23
 534 662 534 662 567 661 c 128,-1,24
 600 660 600 660 626 656 c 1,25,26
 645 656 645 656 666 603.5 c 128,-1,27
 687 551 687 551 715 501 c 0,28,29
 725 483 725 483 734 481 c 0,30,31
 742 479 742 479 746.5 473 c 128,-1,32
 751 467 751 467 738 462 c 1,33,34
 707 457 707 457 676.5 458 c 128,-1,35
 646 459 646 459 618 462 c 1,36,37
 592 472 592 472 577 509 c 128,-1,38
 562 546 562 546 531 618 c 0,39,40
 528 622 528 622 520 630.5 c 128,-1,41
 512 639 512 639 501 641 c 0,42,43
 487 643 487 643 485 652 c 128,-1,44
 483 661 483 661 504 662 c 0,22,23
886 896 m 1,45,46
 886 931 886 931 887 963 c 128,-1,47
 888 995 888 995 888 1034 c 0,48,49
 888 1046 888 1046 897 1048 c 0,50,51
 971 1048 971 1048 1045.5 1048.5 c 128,-1,52
 1120 1049 1120 1049 1193 1050 c 1,53,54
 1201 1040 1201 1040 1193 1016 c 1,55,56
 1178 1013 1178 1013 1095 1013 c 128,-1,57
 1012 1013 1012 1013 951 1013 c 1,58,59
 951 965 951 965 952.5 915.5 c 128,-1,60
 954 866 954 866 948 866 c 0,61,62
 940 864 940 864 932.5 863 c 128,-1,63
 925 862 925 862 887 863 c 1,64,65
 846 862 846 862 794 861 c 128,-1,66
 742 860 742 860 703 860 c 1,67,68
 703 812 703 812 704.5 762 c 128,-1,69
 706 712 706 712 700 712 c 0,70,71
 684 712 684 712 667 710 c 128,-1,72
 650 708 650 708 637 712 c 0,73,74
 636 712 636 712 636 721 c 1,75,76
 636 721 636 721 636.5 722 c 128,-1,77
 637 723 637 723 637 723 c 0,78,79
 637 772 637 772 638.5 801.5 c 128,-1,80
 640 831 640 831 640 881 c 0,81,82
 640 893 640 893 649 894 c 0,83,84
 708 894 708 894 767.5 895 c 128,-1,85
 827 896 827 896 886 896 c 1,45,46
85 384 m 128,-1,87
 90 392 90 392 96.5 392.5 c 128,-1,88
 103 393 103 393 110 389 c 128,-1,89
 117 385 117 385 128 379.5 c 128,-1,90
 139 374 139 374 156 370.5 c 128,-1,91
 173 367 173 367 204 367 c 2,92,-1
 1203 367 l 2,93,94
 1231 367 1231 367 1254 362.5 c 128,-1,95
 1277 358 1277 358 1296 348 c 128,-1,96
 1315 338 1315 338 1325.5 330 c 128,-1,97
 1336 322 1336 322 1354.5 302.5 c 128,-1,98
 1373 283 1373 283 1386 265 c 128,-1,99
 1399 247 1399 247 1392 230 c 1,100,101
 1384 218 1384 218 1373.5 225 c 128,-1,102
 1363 232 1363 232 1348.5 237 c 128,-1,103
 1334 242 1334 242 1317.5 244 c 128,-1,104
 1301 246 1301 246 1267 246 c 2,105,-1
 282 246 l 2,106,107
 259 246 259 246 240 249 c 128,-1,108
 221 252 221 252 210.5 255.5 c 128,-1,109
 200 259 200 259 188 265 c 128,-1,110
 176 271 176 271 162.5 279.5 c 128,-1,111
 149 288 149 288 134 303.5 c 128,-1,112
 119 319 119 319 103.5 339.5 c 128,-1,113
 88 360 88 360 84 368 c 128,-1,86
 80 376 80 376 85 384 c 128,-1,87
EndSplineSet
EndChar

StartChar: V
Encoding: 86 86 96
Width: 0
VWidth: 345
GlyphClass: 1
Flags: W
LayerCount: 2
Fore
SplineSet
-194 -125 m 0,0,1
 -221 -113 -221 -113 -248 -132.5 c 128,-1,2
 -275 -152 -275 -152 -293 -192 c 128,-1,3
 -311 -232 -311 -232 -304.5 -268 c 128,-1,4
 -298 -304 -298 -304 -271 -316 c 1,5,6
 -237 -328 -237 -328 -206.5 -314 c 128,-1,7
 -176 -300 -176 -300 -163 -249 c 0,8,9
 -137 -149 -137 -149 -194 -125 c 0,0,1
-132 -146 m 1,10,-1
 -127 -92 l 1,11,12
 -106 -86 -106 -86 -83 -95 c 1,13,14
 -82 -131 -82 -131 -87 -217 c 128,-1,15
 -92 -303 -92 -303 -96 -545 c 0,16,17
 -96 -558 -96 -558 -98.5 -571.5 c 128,-1,18
 -101 -585 -101 -585 -105 -588 c 0,19,20
 -125 -603 -125 -603 -149 -591 c 0,21,22
 -156 -588 -156 -588 -158.5 -572.5 c 128,-1,23
 -161 -557 -161 -557 -161 -545 c 0,24,25
 -161 -510 -161 -510 -157.5 -497.5 c 128,-1,26
 -154 -485 -154 -485 -153 -476 c 0,27,28
 -146 -422 -146 -422 -143 -384 c 128,-1,29
 -140 -346 -140 -346 -137 -291 c 1,30,31
 -176 -344 -176 -344 -253 -337 c 0,32,33
 -307 -332 -307 -332 -336 -292.5 c 128,-1,34
 -365 -253 -365 -253 -360 -203 c 256,35,36
 -355 -153 -355 -153 -318 -122.5 c 128,-1,37
 -281 -92 -281 -92 -227 -96 c 0,38,39
 -160 -103 -160 -103 -132 -146 c 1,10,-1
EndSplineSet
EndChar

StartChar: m
Encoding: 109 109 97
Width: 738
VWidth: 345
GlyphClass: 1
Flags: W
LayerCount: 2
Fore
SplineSet
703 68 m 1,0,-1
 360 68 l 1,1,-1
 541 450 l 1,2,-1
 703 68 l 1,0,-1
626 113 m 1,3,-1
 525 349 l 1,4,-1
 414 113 l 1,5,-1
 626 113 l 1,3,-1
EndSplineSet
EndChar

StartChar: u
Encoding: 117 117 98
Width: 1236
VWidth: 345
GlyphClass: 1
Flags: W
LayerCount: 2
Fore
SplineSet
499 667 m 0,0,1
 533 667 533 667 570 666 c 128,-1,2
 607 665 607 665 638 661 c 1,3,4
 659 661 659 661 684.5 586 c 128,-1,5
 710 511 710 511 745 454 c 0,6,7
 757 435 757 435 767 432 c 0,8,9
 776 429 776 429 781 422.5 c 128,-1,10
 786 416 786 416 771 411 c 1,11,12
 736 405 736 405 701 406 c 128,-1,13
 666 407 666 407 633 411 c 1,14,15
 602 422 602 422 583 481 c 128,-1,16
 564 540 564 540 528 619 c 0,17,18
 525 623 525 623 516 630.5 c 128,-1,19
 507 638 507 638 495 641 c 0,20,21
 479 643 479 643 477 655 c 128,-1,22
 475 667 475 667 499 667 c 0,0,1
880 498 m 1,23,24
 918 512 918 512 1009 496 c 1,25,26
 1062 482 1062 482 1102.5 460.5 c 128,-1,27
 1143 439 1143 439 1165 384 c 1,28,29
 1180 331 1180 331 1175 299 c 128,-1,30
 1170 267 1170 267 1140 226 c 1,31,32
 1111 191 1111 191 1072.5 173.5 c 128,-1,33
 1034 156 1034 156 978 144 c 0,34,35
 922 133 922 133 887 133.5 c 128,-1,36
 852 134 852 134 811 135 c 0,37,38
 771 137 771 137 736.5 141.5 c 128,-1,39
 702 146 702 146 653 161 c 0,40,41
 572 183 572 183 493 222 c 0,42,43
 449 244 449 244 399.5 269.5 c 128,-1,44
 350 295 350 295 289 330 c 0,45,46
 261 347 261 347 227.5 366.5 c 128,-1,47
 194 386 194 386 156 406 c 1,48,49
 127 424 127 424 98.5 442.5 c 128,-1,50
 70 461 70 461 74.5 479.5 c 128,-1,51
 79 498 79 498 96 497 c 128,-1,52
 113 496 113 496 203 497.5 c 128,-1,53
 293 499 293 499 361 498 c 1,54,55
 388 478 388 478 360.5 469.5 c 128,-1,56
 333 461 333 461 319 448 c 0,57,58
 294 422 294 422 297 406.5 c 128,-1,59
 300 391 300 391 305.5 382.5 c 128,-1,60
 311 374 311 374 322 364.5 c 128,-1,61
 333 355 333 355 376 325 c 128,-1,62
 419 295 419 295 484 262 c 1,63,64
 542 237 542 237 575 221 c 128,-1,65
 608 205 608 205 682 185 c 1,66,67
 737 174 737 174 794 171.5 c 128,-1,68
 851 169 851 169 910 188 c 1,69,70
 951 206 951 206 967.5 219 c 128,-1,71
 984 232 984 232 1005 263 c 0,72,73
 1023 293 1023 293 1025.5 314 c 128,-1,74
 1028 335 1028 335 1026 362 c 0,75,76
 1025 390 1025 390 1019.5 402.5 c 128,-1,77
 1014 415 1014 415 1005.5 428 c 128,-1,78
 997 441 997 441 983.5 451.5 c 128,-1,79
 970 462 970 462 942 466 c 128,-1,80
 914 470 914 470 887 473 c 0,81,82
 875 475 875 475 871.5 483 c 128,-1,83
 868 491 868 491 880 498 c 1,23,24
966 1270 m 1,84,85
 981 1268 981 1268 979 1256 c 128,-1,86
 977 1244 977 1244 960 1243 c 1,87,88
 941 1237 941 1237 929 1198.5 c 128,-1,89
 917 1160 917 1160 904 1117 c 0,90,91
 873 1016 873 1016 846.5 953.5 c 128,-1,92
 820 891 820 891 797 866.5 c 128,-1,93
 774 842 774 842 742 829 c 0,94,95
 692 809 692 809 643 799.5 c 128,-1,96
 594 790 594 790 559 790 c 1,97,98
 577 751 577 751 618 736.5 c 128,-1,99
 659 722 659 722 642 705 c 0,100,101
 632 696 632 696 578 730 c 128,-1,102
 524 764 524 764 504 797 c 1,103,104
 504 818 504 818 523 814.5 c 128,-1,105
 542 811 542 811 563 809 c 0,106,107
 585 808 585 808 607.5 811.5 c 128,-1,108
 630 815 630 815 668 832 c 0,109,110
 687 841 687 841 703 871 c 128,-1,111
 719 901 719 901 732.5 937.5 c 128,-1,112
 746 974 746 974 755.5 1009.5 c 128,-1,113
 765 1045 765 1045 779.5 1112.5 c 128,-1,114
 794 1180 794 1180 805 1203 c 128,-1,115
 816 1226 816 1226 836 1240 c 128,-1,116
 856 1254 856 1254 874 1258 c 128,-1,117
 892 1262 892 1262 914.5 1264.5 c 128,-1,118
 937 1267 937 1267 966 1270 c 1,84,85
EndSplineSet
EndChar

StartChar: i
Encoding: 105 105 99
Width: 1232
VWidth: 345
GlyphClass: 1
Flags: W
LayerCount: 2
Fore
SplineSet
880 498 m 1,0,1
 918 512 918 512 1009 496 c 1,2,3
 1062 482 1062 482 1102.5 460.5 c 128,-1,4
 1143 439 1143 439 1165 384 c 1,5,6
 1180 331 1180 331 1175 299 c 128,-1,7
 1170 267 1170 267 1140 226 c 1,8,9
 1111 191 1111 191 1072.5 173.5 c 128,-1,10
 1034 156 1034 156 978 144 c 0,11,12
 922 133 922 133 887 133.5 c 128,-1,13
 852 134 852 134 811 135 c 0,14,15
 771 137 771 137 736.5 141.5 c 128,-1,16
 702 146 702 146 653 161 c 0,17,18
 572 183 572 183 493 222 c 0,19,20
 449 244 449 244 399.5 269.5 c 128,-1,21
 350 295 350 295 289 330 c 0,22,23
 261 347 261 347 227.5 366.5 c 128,-1,24
 194 386 194 386 156 406 c 1,25,26
 127 424 127 424 98.5 442.5 c 128,-1,27
 70 461 70 461 74.5 479.5 c 128,-1,28
 79 498 79 498 96 497 c 128,-1,29
 113 496 113 496 203 497.5 c 128,-1,30
 293 499 293 499 361 498 c 1,31,32
 388 478 388 478 360.5 469.5 c 128,-1,33
 333 461 333 461 319 448 c 0,34,35
 294 422 294 422 297 406.5 c 128,-1,36
 300 391 300 391 305.5 382.5 c 128,-1,37
 311 374 311 374 322 364.5 c 128,-1,38
 333 355 333 355 376 325 c 128,-1,39
 419 295 419 295 484 262 c 1,40,41
 542 237 542 237 575 221 c 128,-1,42
 608 205 608 205 682 185 c 1,43,44
 737 174 737 174 794 171.5 c 128,-1,45
 851 169 851 169 910 188 c 1,46,47
 951 206 951 206 967.5 219 c 128,-1,48
 984 232 984 232 1005 263 c 0,49,50
 1023 293 1023 293 1025.5 314 c 128,-1,51
 1028 335 1028 335 1026 362 c 0,52,53
 1025 390 1025 390 1019.5 402.5 c 128,-1,54
 1014 415 1014 415 1005.5 428 c 128,-1,55
 997 441 997 441 983.5 451.5 c 128,-1,56
 970 462 970 462 942 466 c 128,-1,57
 914 470 914 470 887 473 c 0,58,59
 875 475 875 475 871.5 483 c 128,-1,60
 868 491 868 491 880 498 c 1,0,1
1248 1225 m 1,61,62
 1264 1222 1264 1222 1262 1209.5 c 128,-1,63
 1260 1197 1260 1197 1242 1195 c 1,64,65
 1222 1188 1222 1188 1210 1144.5 c 128,-1,66
 1198 1101 1198 1101 1184 1053 c 0,67,68
 1152 939 1152 939 1125 868 c 128,-1,69
 1098 797 1098 797 1074 769 c 128,-1,70
 1050 741 1050 741 1017 726 c 0,71,72
 965 704 965 704 915 693 c 128,-1,73
 865 682 865 682 828 682 c 1,74,75
 847 639 847 639 889.5 622.5 c 128,-1,76
 932 606 932 606 914 587 c 0,77,78
 903 576 903 576 847.5 614.5 c 128,-1,79
 792 653 792 653 771 690 c 1,80,81
 771 713 771 713 790.5 709.5 c 128,-1,82
 810 706 810 706 833 704 c 256,83,84
 855 703 855 703 878 707 c 128,-1,85
 901 711 901 711 940 731 c 0,86,87
 960 741 960 741 977 774.5 c 128,-1,88
 994 808 994 808 1007.5 849 c 128,-1,89
 1021 890 1021 890 1031 930.5 c 128,-1,90
 1041 971 1041 971 1056 1047.5 c 128,-1,91
 1071 1124 1071 1124 1082.5 1150 c 128,-1,92
 1094 1176 1094 1176 1114.5 1192 c 128,-1,93
 1135 1208 1135 1208 1153.5 1212.5 c 128,-1,94
 1172 1217 1172 1217 1195 1219 c 128,-1,95
 1218 1221 1218 1221 1248 1225 c 1,61,62
647 1225 m 1,96,97
 663 1222 663 1222 661 1209.5 c 128,-1,98
 659 1197 659 1197 642 1195 c 1,99,100
 622 1188 622 1188 609.5 1144.5 c 128,-1,101
 597 1101 597 1101 583 1053 c 0,102,103
 551 939 551 939 524.5 868 c 128,-1,104
 498 797 498 797 474 769 c 128,-1,105
 450 741 450 741 416 726 c 0,106,107
 364 704 364 704 314 693 c 128,-1,108
 264 682 264 682 227 682 c 1,109,110
 246 639 246 639 288.5 622.5 c 128,-1,111
 331 606 331 606 313 587 c 0,112,113
 302 576 302 576 246.5 614.5 c 128,-1,114
 191 653 191 653 171 690 c 1,115,116
 171 713 171 713 190 709.5 c 128,-1,117
 209 706 209 706 232 704 c 256,118,119
 254 703 254 703 277.5 707 c 128,-1,120
 301 711 301 711 340 731 c 0,121,122
 360 741 360 741 376.5 774.5 c 128,-1,123
 393 808 393 808 407 849 c 128,-1,124
 421 890 421 890 430.5 930.5 c 128,-1,125
 440 971 440 971 455.5 1047.5 c 128,-1,126
 471 1124 471 1124 482 1150 c 128,-1,127
 493 1176 493 1176 513.5 1192 c 128,-1,128
 534 1208 534 1208 553 1212.5 c 128,-1,129
 572 1217 572 1217 594.5 1219 c 128,-1,130
 617 1221 617 1221 647 1225 c 1,96,97
EndSplineSet
EndChar

StartChar: H
Encoding: 72 72 100
Width: 18
VWidth: 345
GlyphClass: 1
Flags: W
LayerCount: 2
Fore
SplineSet
-465 949 m 0,0,1
 -391 949 -391 949 -316.5 949.5 c 128,-1,2
 -242 950 -242 950 -169 951 c 1,3,4
 -164 944 -164 944 -165 933 c 128,-1,5
 -166 922 -166 922 -168 914 c 1,6,7
 -183 911 -183 911 -266.5 911 c 128,-1,8
 -350 911 -350 911 -412 911 c 1,9,10
 -412 859 -412 859 -409.5 805 c 128,-1,11
 -407 751 -407 751 -413 750 c 0,12,13
 -428 750 -428 750 -445.5 747.5 c 128,-1,14
 -463 745 -463 745 -476 750 c 0,15,16
 -477 750 -477 750 -478 760 c 0,17,18
 -478 760 -478 760 -477 761 c 128,-1,19
 -476 762 -476 762 -476 762 c 0,20,21
 -476 815 -476 815 -475.5 848 c 128,-1,22
 -475 881 -475 881 -475 933 c 0,23,24
 -475 948 -475 948 -465 949 c 0,0,1
-601 917 m 2,25,-1
 -558 917 l 2,26,27
 -554 917 -554 917 -546.5 916.5 c 128,-1,28
 -539 916 -539 916 -536 914 c 0,29,30
 -533 911 -533 911 -537 911 c 128,-1,31
 -541 911 -541 911 -544 895 c 2,32,-1
 -548 861 l 2,33,34
 -550 839 -550 839 -569 839 c 2,35,-1
 -611 839 l 2,36,37
 -614 839 -614 839 -623.5 839.5 c 128,-1,38
 -633 840 -633 840 -634 844 c 0,39,40
 -634 848 -634 848 -630.5 849 c 128,-1,41
 -627 850 -627 850 -626 861 c 2,42,-1
 -622 895 l 2,43,44
 -618 917 -618 917 -601 917 c 2,25,-1
EndSplineSet
EndChar

StartChar: h
Encoding: 104 104 101
Width: 18
VWidth: 345
GlyphClass: 1
Flags: W
LayerCount: 2
Fore
SplineSet
-794 797 m 0,0,1
 -720 797 -720 797 -645.5 797.5 c 128,-1,2
 -571 798 -571 798 -498 799 c 1,3,4
 -493 792 -493 792 -494 781 c 128,-1,5
 -495 770 -495 770 -498 762 c 1,6,7
 -513 759 -513 759 -596 759 c 128,-1,8
 -679 759 -679 759 -741 759 c 1,9,10
 -741 708 -741 708 -738.5 642.5 c 128,-1,11
 -736 577 -736 577 -742 577 c 0,12,13
 -757 577 -757 577 -774.5 575 c 128,-1,14
 -792 573 -792 573 -805 577 c 0,15,16
 -807 577 -807 577 -807 587 c 0,17,18
 -807 587 -807 587 -806 588 c 128,-1,19
 -805 589 -805 589 -805 589 c 0,20,21
 -805 642 -805 642 -804.5 685 c 128,-1,22
 -804 728 -804 728 -804 782 c 0,23,24
 -804 795 -804 795 -794 797 c 0,0,1
-930 764 m 2,25,-1
 -887 764 l 2,26,27
 -883 764 -883 764 -875.5 764 c 128,-1,28
 -868 764 -868 764 -865 762 c 0,29,30
 -862 759 -862 759 -866 759 c 128,-1,31
 -870 759 -870 759 -873 742 c 2,32,-1
 -877 709 l 2,33,34
 -879 687 -879 687 -898 687 c 2,35,-1
 -940 687 l 2,36,37
 -943 687 -943 687 -952.5 687.5 c 128,-1,38
 -962 688 -962 688 -963 692 c 0,39,40
 -963 696 -963 696 -959.5 697.5 c 128,-1,41
 -956 699 -956 699 -955 709 c 2,42,-1
 -950 742 l 2,43,44
 -948 764 -948 764 -930 764 c 2,25,-1
EndSplineSet
EndChar

StartChar: J
Encoding: 74 74 102
Width: 208
VWidth: 345
GlyphClass: 1
Flags: W
LayerCount: 2
Fore
SplineSet
91 693 m 2,0,1
 92 706 92 706 107 705 c 128,-1,2
 122 704 122 704 123 693 c 2,3,-1
 123 30 l 2,4,5
 123 15 123 15 123 15 c 1,6,7
 117 2 117 2 104 4 c 128,-1,8
 91 6 91 6 91 15 c 2,9,-1
 91 678 l 2,10,11
 91 693 91 693 91 693 c 2,0,1
90 248 m 257,12,13
 90 248 90 248 90 248 c 129,-1,14
 90 248 90 248 90 248 c 257,15,16
 90 248 90 248 90 248 c 129,-1,17
 90 248 90 248 90 248 c 257,18,19
 90 248 90 248 90 248 c 129,-1,20
 90 248 90 248 90 248 c 257,21,22
 90 248 90 248 90 248 c 129,-1,23
 90 248 90 248 90 248 c 257,12,13
EndSplineSet
EndChar

StartChar: exclam
Encoding: 33 33 103
Width: 703
VWidth: 345
GlyphClass: 1
Flags: W
LayerCount: 2
Fore
SplineSet
416 153 m 1,0,1
 405 162 405 162 414.5 169.5 c 128,-1,2
 424 177 424 177 439 177 c 0,3,4
 455 177 455 177 484.5 206.5 c 128,-1,5
 514 236 514 236 523 279 c 0,6,7
 538 352 538 352 447 398 c 0,8,9
 348 447 348 447 192 463 c 0,10,11
 165 465 165 465 133 465 c 128,-1,12
 101 465 101 465 96 467 c 0,13,14
 82 472 82 472 85.5 483.5 c 128,-1,15
 89 495 89 495 101 496 c 0,16,17
 112 497 112 497 155 494.5 c 128,-1,18
 198 492 198 492 250 485 c 0,19,20
 309 476 309 476 369.5 461.5 c 128,-1,21
 430 447 430 447 482 426 c 0,22,23
 541 403 541 403 576 379.5 c 128,-1,24
 611 356 611 356 641 318 c 0,25,26
 670 278 670 278 665.5 239 c 128,-1,27
 661 200 661 200 631 178 c 0,28,29
 604 158 604 158 569.5 151.5 c 128,-1,30
 535 145 535 145 503 145 c 256,31,32
 471 145 471 145 459.5 145.5 c 128,-1,33
 448 146 448 146 416 153 c 1,0,1
EndSplineSet
EndChar

StartChar: Y
Encoding: 89 89 104
Width: 2077
VWidth: 345
GlyphClass: 1
Flags: W
LayerCount: 2
Fore
SplineSet
1591 671 m 0,0,1
 1621 671 1621 671 1654 670 c 128,-1,2
 1687 669 1687 669 1713 664 c 1,3,4
 1732 664 1732 664 1756 613 c 128,-1,5
 1780 562 1780 562 1809 501 c 0,6,7
 1818 480 1818 480 1828 477 c 0,8,9
 1835 474 1835 474 1839.5 466.5 c 128,-1,10
 1844 459 1844 459 1831 453 c 1,11,12
 1801 447 1801 447 1769.5 448 c 128,-1,13
 1738 449 1738 449 1710 453 c 1,14,15
 1684 465 1684 465 1666 498 c 128,-1,16
 1648 531 1648 531 1617 617 c 0,17,18
 1615 622 1615 622 1606.5 632.5 c 128,-1,19
 1598 643 1598 643 1588 645 c 0,20,21
 1574 647 1574 647 1572 659 c 128,-1,22
 1570 671 1570 671 1591 671 c 0,0,1
1321 671 m 0,23,24
 1351 671 1351 671 1384 670 c 128,-1,25
 1417 669 1417 669 1443 664 c 1,26,27
 1462 664 1462 664 1486 613 c 128,-1,28
 1510 562 1510 562 1538 501 c 0,29,30
 1547 480 1547 480 1557 477 c 0,31,32
 1565 474 1565 474 1569.5 466.5 c 128,-1,33
 1574 459 1574 459 1561 453 c 1,34,35
 1530 447 1530 447 1499 448 c 128,-1,36
 1468 449 1468 449 1440 453 c 1,37,38
 1413 465 1413 465 1395.5 498 c 128,-1,39
 1378 531 1378 531 1347 617 c 0,40,41
 1344 622 1344 622 1336 632.5 c 128,-1,42
 1328 643 1328 643 1317 645 c 0,43,44
 1303 647 1303 647 1301.5 659 c 128,-1,45
 1300 671 1300 671 1321 671 c 0,23,24
172.5 384 m 128,-1,47
 178 392 178 392 184 392.5 c 128,-1,48
 190 393 190 393 197.5 389 c 128,-1,49
 205 385 205 385 216 379.5 c 128,-1,50
 227 374 227 374 244 370.5 c 128,-1,51
 261 367 261 367 292 367 c 2,52,-1
 1779 367 l 2,53,54
 1807 367 1807 367 1830.5 362.5 c 128,-1,55
 1854 358 1854 358 1873 348 c 128,-1,56
 1892 338 1892 338 1902.5 330 c 128,-1,57
 1913 322 1913 322 1931 302.5 c 128,-1,58
 1949 283 1949 283 1962.5 265 c 128,-1,59
 1976 247 1976 247 1968 230 c 1,60,61
 1960 218 1960 218 1949.5 225 c 128,-1,62
 1939 232 1939 232 1925 237 c 128,-1,63
 1911 242 1911 242 1894 244 c 128,-1,64
 1877 246 1877 246 1843 246 c 2,65,-1
 370 246 l 2,66,67
 347 246 347 246 328 249 c 128,-1,68
 309 252 309 252 298.5 255.5 c 128,-1,69
 288 259 288 259 276 265 c 128,-1,70
 264 271 264 271 250.5 279.5 c 128,-1,71
 237 288 237 288 222 303.5 c 128,-1,72
 207 319 207 319 191.5 339.5 c 128,-1,73
 176 360 176 360 171.5 368 c 128,-1,46
 167 376 167 376 172.5 384 c 128,-1,47
376 489 m 1,74,75
 338 475 338 475 248 490 c 1,76,77
 195 503 195 503 154 525 c 128,-1,78
 113 547 113 547 91 602 c 1,79,80
 76 655 76 655 81 687 c 128,-1,81
 86 719 86 719 117 760 c 1,82,83
 146 795 146 795 184.5 813 c 128,-1,84
 223 831 223 831 279 843 c 0,85,86
 335 854 335 854 370 853.5 c 128,-1,87
 405 853 405 853 445 851 c 0,88,89
 485 849 485 849 519.5 844.5 c 128,-1,90
 554 840 554 840 603 825 c 0,91,92
 684 803 684 803 763 764 c 0,93,94
 807 742 807 742 857 716.5 c 128,-1,95
 907 691 907 691 968 657 c 0,96,97
 996 640 996 640 1029 620.5 c 128,-1,98
 1062 601 1062 601 1101 581 c 1,99,100
 1130 563 1130 563 1158 544.5 c 128,-1,101
 1186 526 1186 526 1181.5 507.5 c 128,-1,102
 1177 489 1177 489 1160 490 c 128,-1,103
 1143 491 1143 491 1053 489 c 128,-1,104
 963 487 963 487 896 489 c 1,105,106
 869 509 869 509 896.5 517.5 c 128,-1,107
 924 526 924 526 937 539 c 0,108,109
 962 565 962 565 959.5 580 c 128,-1,110
 957 595 957 595 951.5 603.5 c 128,-1,111
 946 612 946 612 935 622 c 128,-1,112
 924 632 924 632 880.5 661.5 c 128,-1,113
 837 691 837 691 772 724 c 1,114,115
 714 749 714 749 681 765.5 c 128,-1,116
 648 782 648 782 574 802 c 1,117,118
 519 813 519 813 462 815 c 128,-1,119
 405 817 405 817 347 798 c 1,120,121
 306 780 306 780 289 767.5 c 128,-1,122
 272 755 272 755 251 723 c 0,123,124
 233 693 233 693 230.5 672.5 c 128,-1,125
 228 652 228 652 230 624 c 0,126,127
 231 596 231 596 236.5 584 c 128,-1,128
 242 572 242 572 251 559 c 128,-1,129
 260 546 260 546 273.5 535.5 c 128,-1,130
 287 525 287 525 314.5 520.5 c 128,-1,131
 342 516 342 516 370 513 c 0,132,133
 382 511 382 511 385 503.5 c 128,-1,134
 388 496 388 496 376 489 c 1,74,75
EndSplineSet
EndChar
